<?xml version="1.0" encoding="UTF-8"?>
<svg xmlns="http://www.w3.org/2000/svg" data-name="Layer 1" width="865.76" height="682.89" viewBox="0 0 865.76 682.89">
  <g data-name="freepik--background-complete--inject-44">
    <path fill="#e0e0e0" d="M498.6 211.27h11.73V223H498.6zm-6.54 121.09h11.73v11.73h-11.73zm12.57 33.67h17.7v17.7h-17.7zm-290.27-23.38h17.7v17.7h-17.7zm-19.16-15.42h11.44v11.44H195.2zm31.15 69.21h11.44v11.44h-11.44zm-45.01-152.08h8.28v8.28h-8.28zm354.43-15h4.38v4.38h-4.38zm-44.11-36.87h6.76v6.76h-6.76zm34.32 133.93h6.76v6.76h-6.76zM217.47 220.47h11.5v11.5h-11.5z"></path>
    <path d="m112 216.72 39.72.66-19.35-24.89Zm11.71 19.52h6.74v6.74h-6.74zm6.43 7.37h6.74v6.74h-6.74zm-6.43 9.07h5.17v5.17h-5.17zm12.5-14.83h5.17v5.17h-5.17zm-16.2 6.34h3.7v3.7h-3.7zm14.43 20.17h-4.32V260h4.32Zm-3.7-.65h3v-3h-3Zm6.22-13.73h3.7v3.7h-3.7z" fill="#f5f5f5"></path>
    <path d="m140.91 213.47-19 .22-1.17 24.31h20.73Zm-6.67 20.2h-3.69V230h3.69Z" fill="#f5f5f5"></path>
    <path d="m91.55 504.12 64.32 1.16-31.34-41.7Zm18.97 32.68h10.9v11.27h-10.9zm10.42 12.35h10.9v11.27h-10.9zm-10.42 15.18h8.37v8.66h-8.37zm20.25-24.82h8.37v8.66h-8.37zm-26.22 10.61h5.98v6.19h-5.98zm23.38 33.76h-7v-7.26h7Zm-6-1.07h4.93v-5.12H122Zm10.04-23.01h5.98v6.19h-5.98z" fill="#ebebeb"></path>
    <path d="m138.38 498.69-30.69.38-2 40.6h33.51Zm-10.75 33.78h-6v-6.17h6Z" fill="#ebebeb"></path>
    <path d="M135.59 95 202 96.14 169.66 54.5Zm19.6 32.61h11.25v11.25h-11.25zm10.75 12.32h11.25v11.25h-11.25zm-10.75 15.16h8.64v8.64h-8.64zm20.91-24.77h8.64v8.64h-8.64zm-27.08 10.59h6.17v6.17h-6.17zm24.13 33.69h-7.25v-7.24h7.25Zm-6.15-1.07h5.09v-5.09H167Zm10.33-22.95h6.17v6.17h-6.17z" fill="#e0e0e0"></path>
    <path d="m184 89.56-31.68.38-2 40.54h34.59Zm-11.14 33.73h-6.14v-6.17h6.17Z" fill="#e0e0e0"></path>
    <path d="m583.93 428.3 57 1-27.78-35.71Zm16.78 28.03h9.66v9.66h-9.66zm9.23 10.57h9.66v9.66h-9.66zm-9.23 13.02h7.43v7.43h-7.43zm17.95-21.28h7.43v7.43h-7.43zm-23.26 9.1h5.3v5.3h-5.3zm20.78 28.95H610v-6.22h6.22Zm-5.3-.92h4.38v-4.38h-4.38Zm8.84-19.72h5.3v5.3h-5.3z" fill="#f5f5f5"></path>
    <path d="m625.4 423.64-27.21.32-1.75 34.82h29.73Zm-9.57 29h-5.31v-5.27h5.31Zm-144.9-379.5 57 1-27.8-35.7Zm16.82 28.02h9.66v9.66h-9.66zm9.22 10.58h9.66v9.66h-9.66zm-9.22 13.01h7.43v7.43h-7.43zm17.95-21.27h7.43v7.43h-7.43zm-23.25 9.1h5.3v5.3h-5.3zm20.72 28.94H497v-6.22h6.22Zm-5.3-.92h4.38v-4.38h-4.38Zm8.89-19.72h5.3v5.3h-5.3z" fill="#f5f5f5"></path>
    <path d="m512.44 68.47-27.21.32-1.78 34.83h29.74Zm-9.57 29h-5.3v-5.3h5.3Z" fill="#f5f5f5"></path>
    <path d="m546.67 269.84 65.78 1.16-32.05-41.22Zm19.4 32.32h11.15v11.15h-11.15zm10.64 12.21h11.15v11.15h-11.15zm-10.64 15.01h8.57v8.57h-8.57zm20.71-24.55h8.57v8.57h-8.57zm-26.82 10.51h6.12v6.12h-6.12zm23.91 33.38h-7.12v-7.18h7.18Zm-6.12-1.06h5.06v-5.06h-5.06ZM588 324.91h6.12v6.12H588z" fill="#ebebeb"></path>
    <path d="m594.56 264.46-31.38.38-2 40.15h34.3Zm-11 33.4h-6.11v-6.11h6.11Z" fill="#ebebeb"></path>
  </g>
  <rect x="201.16" y="123.01" width="270.97" height="500.25" rx="25.64" fill="#2f2e41" data-secondary="true"></rect>
  <rect x="211.12" y="132.94" width="248.85" height="479.9" rx="19.43" fill="#fff"></rect>
  <path d="M457.93 225.27 433.26 183a7.68 7.68 0 1 0-12.76-8.49h-17.78l-26.87 26.34v126.5h-10.29V286.5a7.69 7.69 0 1 0-6.27.31V352h-18.36v-82.85l27.31-25.75V164a7.69 7.69 0 1 0-6.27.46v76.5l-26.37 24.83v20.37h-8.55v-40.74l20.15-21.72V181a7.69 7.69 0 1 0-6 .23v40.92l-19.48 19.7v97.37h-9.62V172l-16.12-16.11v-28.67l12.53-12.53V72.6l27.09-46.34 7.74 12.33a7.68 7.68 0 0 0 3.08 12.11v77.08l-24.74 24.74v47.81a7.69 7.69 0 1 0 5.71 0v-45l25.18-25.19V50.45a7.68 7.68 0 0 0-3.35-14.59 7.79 7.79 0 0 0-1 .07L335.6 14.18 294 85.44h-.68a7.69 7.69 0 1 0 7.68 7.65 7.61 7.61 0 0 0-1.5-4.54l3.34-6.1V112l-12.54 13.21v24.17l-17-16.11 3.76-6.58a8.69 8.69 0 0 0 .89 0 7.7 7.7 0 1 0-5.83-2.68l-18.41 30.29a7.69 7.69 0 1 0 3.17 14.71L274 186.54h7.89a7.68 7.68 0 1 0 .28-5.15H276l-15.4-15.82a7.65 7.65 0 0 0-1.28-8.86l10.85-18.3L306 173.78v152.45h-10v-126.7h-36l-11.44-12a7.51 7.51 0 0 0 .68-3.15 7.69 7.69 0 1 0-5.13 7.25l13 14h33.14v106.6h-11.33v-92.11h-55l5.37-9.75h.8a7.69 7.69 0 1 0-6.41-3.44l-10.5 18.58h60.36l.5 387.29h125.23l-.51-387.29ZM393 313.47h-11.62V203.93l23.13-23.13h15.36a7.69 7.69 0 0 0 7.29 5.25 7.61 7.61 0 0 0 1.52-.15l6.32 11.61-19.36-.14a7.69 7.69 0 1 0 .59 6.26h22.5l9 16H393Z" fill="#0071f2" data-primary="true"></path>
  <path d="M364.59 82.76v38.16l12.18 11.79h15.35a7.68 7.68 0 1 0 .47-6h-12.71l-9.08-9.08V82.92a7.71 7.71 0 1 0-6.21-.16Zm38.25 62.71H393l-11.66 11.75v7.15a7.69 7.69 0 1 0 5.83.21v-4.69l8-8.28h7.93a7.68 7.68 0 1 0-.27-6.14Zm-81.01-58.09v30.47a7.68 7.68 0 1 0 6.08.27V89.79l10.93-11.37V65.87a7.68 7.68 0 1 0-6.28.1v10.68Z" fill="#0071f2" data-primary="true"></path>
  <g opacity=".5" fill="#fff">
    <path d="M457.93 225.27 433.26 183a7.68 7.68 0 1 0-12.76-8.49h-17.78l-26.87 26.34v126.5h-10.29V286.5a7.69 7.69 0 1 0-6.27.31V352h-18.36v-82.85l27.31-25.75V164a7.69 7.69 0 1 0-6.27.46v76.5l-26.37 24.83v20.37h-8.55v-40.74l20.15-21.72V181a7.69 7.69 0 1 0-6 .23v40.92l-19.48 19.7v97.37h-9.62V172l-16.12-16.11v-28.67l12.53-12.53V72.6l27.09-46.34 7.74 12.33a7.68 7.68 0 0 0 3.08 12.11v77.08l-24.74 24.74v47.81a7.69 7.69 0 1 0 5.71 0v-45l25.18-25.19V50.45a7.68 7.68 0 0 0-3.35-14.59 7.79 7.79 0 0 0-1 .07L335.6 14.18 294 85.44h-.68a7.69 7.69 0 1 0 7.68 7.65 7.61 7.61 0 0 0-1.5-4.54l3.34-6.1V112l-12.54 13.21v24.17l-17-16.11 3.76-6.58a8.69 8.69 0 0 0 .89 0 7.7 7.7 0 1 0-5.83-2.68l-18.41 30.29a7.69 7.69 0 1 0 3.17 14.71L274 186.54h7.89a7.68 7.68 0 1 0 .28-5.15H276l-15.4-15.82a7.65 7.65 0 0 0-1.28-8.86l10.85-18.3L306 173.78v152.45h-10v-126.7h-36l-11.44-12a7.51 7.51 0 0 0 .68-3.15 7.69 7.69 0 1 0-5.13 7.25l13 14h33.14v106.6h-11.33v-92.11h-55l5.37-9.75h.8a7.69 7.69 0 1 0-6.41-3.44l-10.5 18.58h60.36l.5 387.29h125.23l-.51-387.29ZM393 313.47h-11.62V203.93l23.13-23.13h15.36a7.69 7.69 0 0 0 7.29 5.25 7.61 7.61 0 0 0 1.52-.15l6.32 11.61-19.36-.14a7.69 7.69 0 1 0 .59 6.26h22.5l9 16H393Z"></path>
    <path d="M364.59 82.76v38.16l12.18 11.79h15.35a7.68 7.68 0 1 0 .47-6h-12.71l-9.08-9.08V82.92a7.71 7.71 0 1 0-6.21-.16Zm38.25 62.71H393l-11.66 11.75v7.15a7.69 7.69 0 1 0 5.83.21v-4.69l8-8.28h7.93a7.68 7.68 0 1 0-.27-6.14Zm-81.01-58.09v30.47a7.68 7.68 0 1 0 6.08.27V89.79l10.93-11.37V65.87a7.68 7.68 0 1 0-6.28.1v10.68Z"></path>
  </g>
  <g data-name="freepik--Arrows--inject-44">
    <path d="m430.61 262.76 29.16.5-14.2-18.26Zm8.93 14.33h4.94v4.94h-4.94zm4.94 5.22H449v4.4h-4.52zm-4.71 6.25h3.8v3.8h-3.8zm9.23-10.28h3.8v3.8H449zm-12.4 4.03h2.71v2.71h-2.71zm11.4 15.76h-3.86v-3.86H448Zm-2.71-1.16h1.55v-1.55h-1.55Zm3.9-9.94h2.71v2.71h-2.71z" fill="#2f2e41" data-secondary="true"></path>
    <path d="m452.74 260.38-15.15.17v17.8h15.2Zm-4.84 14.81h-2.7v-2.71h2.7Z" fill="#2f2e41" data-secondary="true"></path>
    <path d="m227.26 282.75 32.54.56-15.8-20.4Zm9.59 15.99h5.52v5.52h-5.52zm5.27 6.05h5.52v5.52h-5.52zm-5.27 7.43h4.24v4.24h-4.24zm10.26-12.16h4.24v4.24h-4.24zm-13.27 5.2h3.03v3.03h-3.03zm13.87 4.75h3.03v3.03h-3.03z" fill="#0071f2" data-primary="true"></path>
    <path d="m250.93 280.09-15.53.19-1 19.87h17Zm-5.46 16.53h-3v-3h3Z" fill="#0071f2" data-primary="true"></path>
    <path d="m219.8 437.74 47.46.79-23.12-29.74Zm14 23.32h8.04v8.04h-8.04zm8.05 8.13h6.9v6.9h-6.9zm-8.05 8.42h6.19v6.19h-6.19zm14.94-14.63h6.19v6.19h-6.19zm-19.36 6.88h4.41v4.41h-4.41zM247 491.89h-5.54v-5.57H247Zm-4.41-1.16h3.26v-3.26h-3.24Zm6.15-13.98h4.41v4.41h-4.41z" fill="#2f2e41" data-secondary="true"></path>
    <path d="m255 434.27-24.56-.13-.19 29H255ZM246.39 458H242v-4.44h4.42Z" fill="#2f2e41" data-secondary="true"></path>
    <path d="m414.29 334.19 38.27.64-18.64-24ZM425.58 353h6.48v6.48h-6.48zm6.2 7.09h6.48v6.48h-6.48zm-6.2 8.73h4.98v4.98h-4.98zm12.05-14.27h4.98v4.98h-4.98zm-15.61 6.11h3.56v3.56h-3.56zm14.18 19.68h-4.71v-4.71h4.71Zm-3.56-1.15h2.41v-2.41h-2.41Zm5.7-12.96h3.56v3.56h-3.56z" fill="#0071f2" data-primary="true"></path>
    <path d="m442.16 331.07-18.26.22-1.15 23.36h19.95Zm-5.37 19.58h-3.55v-3.55h3.55Zm-308.24 13.82 47.47.8-23.13-29.75Zm14.01 23.33h8.04v8.04h-8.04zm8.04 8.13h6.9v6.9h-6.9zm-8.04 8.42h6.17v6.19h-6.17zm14.94-14.63h6.17v6.19h-6.17zm-19.35 6.88h4.41v4.41h-4.41zm12.57 17.03h4.41v4.41h-4.41zm6.78-10.15h4.41v4.41h-4.41z" fill="#0071f2" data-primary="true"></path>
    <path d="m163.75 361-24.56-.12-.19 28.95h24.74Zm-8.6 23.7h-4.41v-4.41h4.41Zm393.25 88.02 36.68.62-17.84-23Zm10.82 18.03h6.22v6.22h-6.22zm6.22 6.29h5.33v5.33h-5.33zm-6.22 6.49H564v4.78h-4.78zm11.55-11.3h4.78v4.78h-4.78zm-14.96 5.33h3.41v3.41h-3.41zm9.73 13.15h3.41v3.41h-3.41zm5.23-7.83h3.41v3.41h-3.41z" fill="#0071f2" data-primary="true"></path>
    <path d="m575.6 470.05-19-.1-.15 22.38h19.15Zm-6.6 18.31h-3.5v-3.45h3.5Zm-69.25-255.69 47.45.81-23.11-29.75Zm13.99 23.32h8.04v8.04h-8.04zm8.05 8.14h6.9v6.9h-6.9zm-8.05 8.42h6.19v6.19h-6.19zm14.94-14.62h6.19v6.19h-6.19zm-19.35 6.88h4.41v4.41h-4.41zm12.59 17.02h4.41v4.41h-4.41zm6.76-10.14h4.41v4.41h-4.41z" fill="#0071f2" data-primary="true"></path>
    <path d="m535 229.21-24.56-.13-.19 29H535Zm-8.62 23.7h-4.41v-4.41h4.41Z" fill="#0071f2" data-primary="true"></path>
  </g>
  <path d="m214.14 512.69 48.52 6.57s1.4 7-5.23 9.32l-39.83-7.31a4.22 4.22 0 0 1-3.46-4.15Z" fill="#2f2e41" data-secondary="true"></path>
  <path d="m348.53 519.26-16.17-44.67 18.1-46.07 8.8-31.26 17.83 2.45 33.14 31.67s1.69 56 8.36 64.22Z" fill="#f9b499"></path>
  <ellipse cx="332.36" cy="399.71" rx="31.71" ry="41.27" transform="rotate(-26.01 332.393 399.736)" fill="#f9b499"></ellipse>
  <path d="M418.08 431.48c-6.36-5.22-15-21.64-20.1-32.18a86.29 86.29 0 0 1-5.27-13.63c-3.66-12.62-13.38-13.43-13.38-13.43a28 28 0 0 1-14.81-15.3c-6.91-11.85-20.73-2.92-20.73-2.92-11.85 6-18.27 2.43-18.27 2.43-10-5.46-17.77 0-17.77 0-22.71 11.84-13.82 28.13-13.82 28.13s-7.48 6.69 2.79 24.78c0 0 9 16.39 11.94 26.63a9.63 9.63 0 0 1 .08 5.19c-.59 2.11-1 5.58 1.86 7.91a6.87 6.87 0 0 0 3.45 1.43 8.77 8.77 0 0 1 7.79 7.19s-2.32 22.15 9.29 27.28c0 0 9.69-24.31 23.56-33.22 0 0-.46-8.6-4.23-15 0 0-23.45 11.28-43-16.95 0 0-11-16-8.58-33.08 0 0 3-2 6.22 2.07 0 0 7.56 6.4 18.91-2.07 0 0 3.24-4.15 14.58 3.15 0 0 8.33 8.32 17.4-.7 0 0 10.12-5.64 12.57 10.49 0 0 6.89 22.88 22.35 30.06a16.46 16.46 0 0 0 6.84 1.5Z" fill="#2f2e41" data-secondary="true"></path>
  <path d="M350.46 436.8s3.84 8 4.23 15c0 0 6.31-10.33 7.53-26.78 0-.02-3.9 8.08-11.76 11.78Z" fill="#f7a48b"></path>
  <path d="M332.36 481.43s-10.36 26.38-9.66 68.62c0 0-41.54-5.94-55.85-13.62 0 0-7-6.63-9.42-7.85l-18.85-4s1.64-10.17-5.58-12.06a.64.64 0 0 0-.78.56c-.24 2.6-.8 11.62 2.15 16.43a.53.53 0 0 1-.69.77c-2.32-1.26-5.81-3.89-6.27-8.49 0 0 .35-8.65-5.59-11.83 0 0-3.84-4.58-4.19 2.41v9.57a6.15 6.15 0 0 0 2 4.52c4.1 3.83 13.9 12.44 22.47 15.93 0 0 13.61 9.7 20.94 14.62 0 0 55.14 43.67 80.17 40a15.56 15.56 0 0 0 2.42-.6c4.32-1.38 18.54-6.22 23.86-11.82 0 0 2.46-17.81 3.51-19.21s-24.44-46.14-24.44-46.14l-4.88-12.85-7.33-16.75-1.75-8.23Z" fill="#f9b499"></path>
  <path d="M221.82 509.94c.24 2.64.35 5.27.44 7.9.07 1.32.07 2.64.11 4a4.61 4.61 0 0 0 1.21 3.25c1.68 2 3.37 4.05 5 6.13l2.42 3.13c.77 1.07 1.58 2.11 2.33 3.2-.95-.92-1.84-1.89-2.76-2.84l-2.67-2.92c-1.78-1.94-3.49-4-5.2-6a5.68 5.68 0 0 1-1.41-4c0-1.32 0-2.64.1-4 .08-2.58.2-5.21.43-7.85Zm100.88 40.11s20.95 8.37 25.14 11.51c0 0-2.61-7.49-12.9-13a27 27 0 0 1-9-7.77 21.22 21.22 0 0 1-3.06-5.72Z" fill="#f7a48b"></path>
  <ellipse cx="541.24" cy="643.87" rx="232.97" ry="24.85" fill="#2f2e41" data-secondary="true"></ellipse>
  <path d="M418.08 431.48h15.3s-4.28-6.42-5.76-10.63a1.78 1.78 0 0 0-1.91-1.19 19.74 19.74 0 0 1-14.22-3.45 7.16 7.16 0 0 0-6.21-1.21l-12.89 3.66a1.34 1.34 0 0 1-1.71-1.29 1.34 1.34 0 0 1 .89-1.26l13.51-4.84a1.66 1.66 0 0 0 .25-3c-1.21-.69-3.15-1.12-6.25-.47l-14.58.68a1.16 1.16 0 0 1-1.22-1.16 1.17 1.17 0 0 1 1-1.16l20-3s-25.26-7.48-21-12.84c0 0 19.25 7 26.9 5.36 0 0-12.59-15.73-9.87-17.7 0 0 2.71-2 8 4.2l12.47 13.5s3.45 4.13 4.69 0c0 0-.23-12.05 5.86-9.27a1.63 1.63 0 0 1 1 1.43 4.07 4.07 0 0 1-.23 1.42 21.84 21.84 0 0 0-1.4 8.06c.17 4.7.77 10.85 2.67 12.75 0 0 75.12 39.74 94.21 73.63 0 0 16.13 23.7-13 30.78 0 0-30.19 14.16-82-28.14 0 0-13.64 8.13-16-12.61 0 0-6-20.84-4.45-42.29Z" fill="#f9b499"></path>
  <path d="M487.11 494.5a89.9 89.9 0 0 1-33.57-30.27l-20.16-32.75s24.44 82.11 53.73 63.02Z" fill="#f7a48b"></path>
  <path d="M407.89 431.38s-3.5 30.38 6.16 53.61c0 0-21.46 11.17-29 20.29 0 0-26.33 4-34.62 9.38 0 0-15-25.63-14.6-40l-3.5 6.81s5.79 29.21 13.14 39.05a8.06 8.06 0 0 1 1.64 4.19c.55 7.16 3 28 13.8 39.89 0 0 12.88 18.5 10.73 45.06l1.54 51.23s120.15 14.5 290.46 4.13c0 0-1.48-58.75-140.19-120 0 0-3.46-19.74-8.89-30.6 0 0-27.64 8.63-61.46-14.07l-20.49-14.07s-10.12 5.67-12.83-5.68c0 0-9.13-27.61-7.65-49.22Z" fill="#0071f2" data-primary="true"></path>
  <path d="M518.53 524.61a70 70 0 0 0-3.94-10.19S497.65 520 472 510.35c0 0 25.62 28.57 46.53 14.26Zm-136.98 82.63a99.77 99.77 0 0 0 15.43 1c2.58 0 5.15 0 7.71-.25l3.85-.22 3.84-.42a172.12 172.12 0 0 0 30.15-6.16l7.31-2.43c1.21-.43 2.45-.78 3.64-1.27l3.56-1.45c2.38-1 4.8-1.87 7.14-2.92l7-3.32 3.49-1.66 3.33-1.84 6.78-3.72c4.48-2.55 8.75-5.46 13.22-8.11q-3.11 2.32-6.27 4.59l-3.15 2.28c-1.05.76-2.09 1.55-3.2 2.21l-6.64 4.07-3.33 2-3.41 1.81-7 3.57c-2.35 1.12-4.77 2.07-7.16 3.11l-3.6 1.51c-1.2.5-2.45.87-3.67 1.31-2.47.84-4.92 1.71-7.4 2.52a149.41 149.41 0 0 1-30.65 5.74c-10.34.74-20.87.45-30.97-1.95ZM523.48 545a33 33 0 0 1-3.25 7.83 53.26 53.26 0 0 1-4.72 7.06 55.62 55.62 0 0 1-5.77 6.21 43.68 43.68 0 0 1-6.71 5.16c1.77-2.22 3.63-4.28 5.41-6.41.44-.53.89-1.06 1.35-1.57l1.31-1.61c.91-1 1.75-2.14 2.61-3.21 1.73-2.15 3.37-4.36 5-6.59s3.22-4.48 4.77-6.87Z" opacity=".2"></path>
  <ellipse cx="361.48" cy="395.62" rx="7.98" ry="8.85" fill="#f9b499"></ellipse>
  <path fill="#2f2e41" data-secondary="true" d="M116.91 421.83h23.29v23.29h-23.29zm299.05-145.61h11.29v11.29h-11.29zm-9.7-10.82h6.9v6.9h-6.9zm31.52-21.32h-8.41v-8.42h8.41Zm-6.88-1.53h5.35v-5.36h-5.35ZM184.27 467.12h-10.53v-10.53h10.53Zm-9-1.53h7.46v-7.47h-7.46Zm63.92-74.91h15.29v15.29h-15.29zm15.28-25.34h7.77v7.77h-7.77zm-83.34-52.05h7.77v7.77h-7.77zm342.11 86.95h23.29v23.29h-23.29zm-17.01-46.35h5.82v5.82h-5.82zm22.04 18.73h-10.54v-10.53h10.54Zm-9-1.54h7.48v-7.46h-7.48Zm32.01 58.51h7.77v7.77h-7.77zm-392.36 24.95h7.77v7.77h-7.77zm83.52-108.09h13.22v13.22h-13.22zm31.88-5.26h-12v-12h12Zm-10.52-1.53h9v-9h-8.92Z"></path>
</svg>
