<svg xmlns="http://www.w3.org/2000/svg" xmlns:xlink="http://www.w3.org/1999/xlink" width="43" zoomAndPan="magnify" viewBox="0 0 32.25 32.249998" height="43" preserveAspectRatio="xMidYMid meet" version="1.0"><defs><clipPath id="02766290fe"><path d="M 6.507812 3.152344 L 25.230469 3.152344 L 25.230469 28 L 6.507812 28 Z M 6.507812 3.152344 " clip-rule="nonzero"/></clipPath></defs><g clip-path="url(#02766290fe)"><path fill="#cecccc" d="M 23.121094 5.703125 C 22.800781 5.4375 20.320312 4.289062 20.320312 4.289062 L 18.402344 3.730469 L 17.246094 3.4375 L 16.464844 3.316406 C 16.464844 3.316406 15.214844 3.539062 15.207031 3.539062 C 15.195312 3.539062 14.339844 3.671875 14.339844 3.671875 L 13.964844 3.671875 L 12.828125 3.835938 L 11.617188 4.34375 C 11.617188 4.34375 10.367188 4.863281 10.367188 4.890625 C 10.367188 4.914062 9.390625 5.859375 9.390625 5.859375 L 8.484375 6.972656 L 7.996094 7.917969 L 7.46875 9.882812 L 7.46875 11.226562 L 7.40625 11.835938 L 7.003906 12.425781 L 6.835938 13.28125 L 6.816406 13.710938 L 6.84375 14.210938 L 6.691406 15.003906 L 6.65625 15.53125 L 6.730469 16.007812 C 6.730469 16.007812 6.625 16.527344 6.644531 16.527344 C 6.664062 16.527344 6.703125 17.289062 6.691406 17.316406 C 6.6875 17.335938 6.6875 17.769531 6.6875 17.769531 L 7.035156 18.359375 L 7.3125 18.710938 L 7.902344 18.820312 L 8.503906 19.027344 L 8.679688 19.402344 L 8.753906 19.917969 L 8.757812 20.339844 L 8.414062 20.746094 L 8.339844 21.15625 L 8.433594 21.640625 L 8.347656 21.871094 L 8.332031 22.371094 L 8.621094 22.800781 L 8.585938 23.207031 L 8.71875 24.699219 L 9.21875 25.839844 L 9.265625 26.859375 L 9.957031 27.59375 L 10.941406 27.714844 L 12.496094 27.921875 L 13.925781 27.707031 L 15.367188 26.945312 L 17.304688 25.820312 L 18.609375 24.558594 C 18.609375 24.558594 19.980469 23.875 19.984375 23.84375 C 19.992188 23.816406 20.136719 23.46875 20.136719 23.46875 L 19.957031 22.859375 L 20.089844 21.949219 L 20.023438 21.304688 L 20.148438 20.390625 L 20.070312 19.625 L 20.277344 19.15625 L 21.214844 19.007812 L 22.195312 19.453125 L 22.894531 19.226562 L 24.167969 17.78125 L 24.746094 16.226562 L 24.925781 14.855469 L 25.089844 13.839844 C 25.089844 13.839844 25.285156 12.855469 25.300781 12.808594 C 25.316406 12.765625 25.375 11.847656 25.375 11.847656 C 25.375 11.847656 25.433594 11.253906 25.417969 11.191406 C 25.402344 11.125 25.164062 9.929688 25.164062 9.929688 L 24.878906 8.605469 L 24.335938 7.074219 L 23.785156 6.25 Z M 23.121094 5.703125 " fill-opacity="1" fill-rule="nonzero"/><path fill="#000000" d="M 9.164062 16.519531 C 9.210938 16.207031 9.152344 15.878906 9.210938 15.578125 C 9.246094 15.410156 9.277344 15.039062 9.453125 14.921875 C 9.382812 14.914062 9.414062 14.789062 9.476562 14.785156 C 9.628906 14.773438 9.789062 14.746094 9.929688 14.808594 C 10.128906 14.898438 10.28125 15.121094 10.429688 15.269531 C 10.582031 15.429688 10.796875 15.566406 10.90625 15.765625 C 10.933594 15.816406 10.953125 15.871094 10.972656 15.921875 C 11.058594 15.871094 11.085938 15.773438 11.058594 15.632812 C 11.019531 15.550781 10.984375 15.472656 10.945312 15.390625 C 10.921875 15.328125 10.886719 15.273438 10.871094 15.210938 C 10.820312 15.007812 10.871094 14.804688 10.953125 14.617188 C 11.117188 14.25 11.476562 13.855469 11.390625 13.429688 C 11.382812 13.378906 11.445312 13.359375 11.457031 13.410156 C 11.511719 13.648438 11.457031 13.835938 11.359375 14.058594 C 11.273438 14.246094 11.15625 14.417969 11.082031 14.613281 C 10.964844 14.902344 10.988281 15.117188 11.132812 15.382812 C 11.234375 15.585938 11.292969 15.78125 11.144531 15.976562 C 11.117188 16.023438 11.074219 16.0625 11.027344 16.085938 C 11.058594 16.195312 11.085938 16.308594 11.140625 16.414062 C 11.34375 16.808594 11.648438 17.09375 11.726562 17.546875 C 11.8125 18.003906 11.785156 18.476562 11.574219 18.894531 C 11.570312 18.902344 11.566406 18.914062 11.558594 18.921875 C 11.554688 18.933594 11.550781 18.945312 11.546875 18.949219 C 11.5 19.023438 11.445312 19.085938 11.371094 19.136719 C 11.257812 19.214844 11.140625 19.25 11.042969 19.359375 C 10.945312 19.464844 10.894531 19.597656 10.796875 19.699219 C 10.5625 19.949219 10.265625 19.890625 10.027344 19.671875 C 9.757812 19.417969 9.515625 19.121094 9.382812 18.769531 C 9.296875 18.53125 9.277344 18.265625 9.203125 18.023438 C 9.132812 17.785156 9.089844 17.566406 9.089844 17.324219 C 9.078125 17.046875 9.113281 16.796875 9.164062 16.519531 Z M 10.738281 16.585938 C 10.742188 16.574219 10.753906 16.558594 10.761719 16.546875 C 10.753906 16.53125 10.746094 16.519531 10.738281 16.503906 C 10.734375 16.519531 10.722656 16.53125 10.707031 16.542969 C 10.71875 16.558594 10.726562 16.574219 10.738281 16.585938 Z M 9.316406 17.566406 C 9.34375 17.828125 9.445312 18.074219 9.503906 18.328125 C 9.550781 18.558594 9.589844 18.761719 9.710938 18.96875 C 9.8125 19.15625 9.960938 19.320312 10.109375 19.472656 L 10.183594 19.542969 C 10.171875 19.527344 10.15625 19.511719 10.148438 19.496094 C 10.097656 19.417969 10.226562 19.339844 10.289062 19.382812 C 10.363281 19.4375 10.402344 19.464844 10.457031 19.429688 C 10.402344 19.402344 10.359375 19.34375 10.324219 19.265625 C 10.316406 19.261719 10.308594 19.25 10.300781 19.246094 C 10.070312 18.96875 10.035156 18.523438 9.96875 18.179688 C 9.964844 18.148438 9.957031 18.113281 9.949219 18.074219 C 9.90625 17.902344 9.871094 17.734375 9.855469 17.558594 C 9.835938 17.390625 9.824219 17.222656 9.824219 17.050781 C 9.824219 16.882812 9.902344 16.511719 9.808594 16.371094 C 9.75 16.273438 9.917969 16.195312 9.976562 16.28125 C 10.035156 16.363281 10.035156 16.449219 10.035156 16.542969 C 10.054688 16.53125 10.078125 16.53125 10.101562 16.539062 C 10.101562 16.527344 10.097656 16.511719 10.097656 16.503906 C 10.082031 16.464844 10.070312 16.417969 10.050781 16.378906 C 9.960938 16.1875 9.875 15.988281 9.742188 15.824219 C 9.71875 15.796875 9.742188 15.707031 9.789062 15.746094 C 9.921875 15.859375 10.019531 15.988281 10.101562 16.136719 C 10.078125 16.085938 10.058594 16.03125 10.039062 15.976562 C 9.984375 15.824219 10.195312 15.769531 10.269531 15.890625 C 10.339844 15.992188 10.410156 16.09375 10.472656 16.191406 C 10.453125 16.132812 10.421875 16.082031 10.378906 16.023438 C 10.25 15.847656 10.121094 15.722656 9.964844 15.585938 C 9.867188 15.503906 10.015625 15.378906 10.101562 15.453125 C 10.273438 15.597656 10.410156 15.730469 10.546875 15.910156 C 10.566406 15.933594 10.585938 15.957031 10.605469 15.984375 C 10.625 15.988281 10.640625 16 10.648438 16.011719 C 10.777344 16.175781 10.886719 16.363281 10.980469 16.558594 C 10.988281 16.5625 10.992188 16.566406 11 16.574219 C 10.949219 16.488281 10.90625 16.398438 10.871094 16.308594 C 10.847656 16.242188 10.828125 16.175781 10.808594 16.113281 C 10.796875 16.101562 10.78125 16.09375 10.773438 16.078125 C 10.746094 16.046875 10.746094 16.011719 10.765625 15.988281 C 10.734375 15.894531 10.6875 15.804688 10.609375 15.722656 C 10.472656 15.5625 10.300781 15.421875 10.15625 15.269531 C 10.0625 15.171875 9.988281 15.101562 9.917969 15.046875 C 9.910156 15.050781 9.90625 15.058594 9.902344 15.0625 C 9.851562 15.097656 9.796875 15.105469 9.738281 15.101562 C 9.734375 15.101562 9.722656 15.101562 9.71875 15.101562 C 9.710938 15.105469 9.703125 15.113281 9.695312 15.113281 C 9.660156 15.121094 9.609375 15.113281 9.589844 15.078125 C 9.589844 15.078125 9.589844 15.074219 9.589844 15.074219 C 9.582031 15.078125 9.570312 15.078125 9.5625 15.082031 C 9.492188 15.09375 9.449219 15.433594 9.4375 15.484375 C 9.390625 15.746094 9.4375 15.953125 9.417969 16.210938 C 9.394531 16.667969 9.265625 17.097656 9.316406 17.566406 Z M 10.167969 17.078125 C 10.171875 17.101562 10.171875 17.121094 10.175781 17.140625 C 10.183594 17.152344 10.1875 17.15625 10.191406 17.167969 C 10.191406 17.148438 10.191406 17.121094 10.191406 17.101562 C 10.183594 17.058594 10.167969 17.011719 10.152344 16.96875 C 10.15625 17.011719 10.164062 17.046875 10.167969 17.078125 Z M 10.699219 21.507812 C 10.699219 21.550781 10.753906 21.546875 10.761719 21.507812 C 10.847656 21.148438 10.894531 20.707031 11.125 20.417969 C 11.292969 20.207031 11.25 20.011719 11.25 19.742188 C 11.25 19.671875 11.136719 19.695312 11.136719 19.761719 C 11.136719 19.992188 11.15625 20.1875 11.035156 20.390625 C 10.984375 20.472656 10.921875 20.546875 10.886719 20.636719 C 10.832031 20.765625 10.828125 20.898438 10.800781 21.039062 C 10.773438 21.199219 10.703125 21.34375 10.699219 21.507812 Z M 10.433594 20.921875 C 10.4375 20.964844 10.488281 20.964844 10.507812 20.933594 C 10.527344 20.898438 10.5625 20.875 10.574219 20.835938 C 10.585938 20.808594 10.585938 20.785156 10.589844 20.761719 C 10.59375 20.679688 10.609375 20.605469 10.609375 20.527344 C 10.609375 20.457031 10.5 20.46875 10.496094 20.53125 C 10.492188 20.605469 10.480469 20.679688 10.472656 20.753906 C 10.460938 20.808594 10.429688 20.859375 10.433594 20.921875 Z M 9.734375 20.570312 C 9.761719 20.773438 9.773438 20.921875 9.75 21.125 C 9.730469 21.253906 9.730469 21.363281 9.75 21.488281 C 9.757812 21.539062 9.8125 21.511719 9.816406 21.476562 C 9.863281 21.15625 9.894531 20.875 9.847656 20.550781 C 9.804688 20.222656 9.789062 19.949219 9.542969 19.695312 C 9.503906 19.652344 9.417969 19.722656 9.457031 19.765625 C 9.683594 19.992188 9.691406 20.269531 9.734375 20.570312 Z M 9.015625 21.355469 C 9.015625 21.421875 9.117188 21.398438 9.117188 21.339844 C 9.144531 20.957031 9.191406 20.585938 9.128906 20.199219 C 9.113281 20.125 8.992188 20.152344 9.003906 20.226562 C 9.054688 20.601562 9.015625 20.984375 9.015625 21.355469 Z M 8.746094 17.527344 C 8.867188 17.933594 8.832031 18.328125 8.851562 18.75 C 8.863281 19.023438 8.972656 19.214844 9.09375 19.449219 C 9.117188 19.496094 9.21875 19.457031 9.203125 19.410156 C 9.152344 19.269531 9.070312 19.15625 9.023438 19.007812 C 8.964844 18.804688 8.976562 18.597656 8.972656 18.382812 C 8.964844 18.074219 8.925781 17.785156 8.820312 17.488281 C 8.804688 17.4375 8.734375 17.484375 8.746094 17.527344 Z M 11.511719 8.582031 C 12.023438 8.28125 12.671875 8.433594 13.226562 8.5 C 13.484375 8.527344 13.714844 8.542969 13.933594 8.707031 C 14.109375 8.839844 14.21875 8.972656 14.449219 8.976562 C 14.539062 8.976562 14.566406 8.835938 14.46875 8.835938 C 14.222656 8.824219 14.09375 8.585938 13.898438 8.476562 C 13.621094 8.324219 13.214844 8.324219 12.929688 8.289062 C 12.410156 8.226562 11.859375 8.148438 11.414062 8.464844 C 11.3125 8.53125 11.421875 8.636719 11.511719 8.582031 Z M 9.320312 9.210938 C 9.675781 9.304688 9.871094 9.445312 10.242188 9.351562 C 10.566406 9.265625 10.886719 9.179688 11.214844 9.117188 C 11.539062 9.050781 11.871094 9.066406 12.195312 9.003906 C 12.683594 8.902344 13.082031 9.019531 13.539062 9.179688 C 13.632812 9.214844 13.714844 9.074219 13.605469 9.03125 C 13.277344 8.902344 12.933594 8.769531 12.578125 8.730469 C 12.234375 8.691406 11.878906 8.820312 11.535156 8.824219 C 11.226562 8.828125 10.921875 8.914062 10.621094 8.988281 C 10.382812 9.046875 10.164062 9.125 9.921875 9.136719 C 9.714844 9.148438 9.558594 9.082031 9.359375 9.074219 C 9.28125 9.066406 9.242188 9.191406 9.320312 9.210938 Z M 9.585938 10.171875 C 9.828125 10.09375 10.082031 10.125 10.320312 10.207031 C 10.386719 10.226562 10.4375 10.113281 10.375 10.085938 C 10.113281 10 9.835938 9.953125 9.570312 10.042969 C 9.496094 10.066406 9.503906 10.199219 9.585938 10.171875 Z M 14.070312 11.265625 C 14.371094 11.269531 14.644531 11.316406 14.925781 11.414062 C 15.003906 11.445312 15.074219 11.304688 14.984375 11.269531 C 14.855469 11.222656 14.734375 11.179688 14.597656 11.15625 C 14.425781 11.125 14.25 11.113281 14.074219 11.113281 C 13.976562 11.113281 13.960938 11.265625 14.070312 11.265625 Z M 13.488281 12.078125 C 13.652344 12.046875 13.804688 12.027344 13.964844 12.074219 C 14.078125 12.101562 14.191406 12.152344 14.300781 12.1875 C 14.386719 12.214844 14.472656 12.078125 14.375 12.046875 C 14.222656 11.992188 14.070312 11.925781 13.914062 11.898438 C 13.769531 11.878906 13.621094 11.902344 13.480469 11.929688 C 13.390625 11.945312 13.394531 12.09375 13.488281 12.078125 Z M 9.601562 17.84375 C 9.628906 18.121094 9.742188 18.394531 9.855469 18.648438 C 9.894531 18.730469 10.019531 18.648438 9.988281 18.566406 C 9.890625 18.300781 9.761719 18.042969 9.730469 17.753906 C 9.695312 17.46875 9.773438 17.199219 9.8125 16.917969 C 9.824219 16.859375 9.742188 16.828125 9.734375 16.894531 C 9.679688 17.210938 9.5625 17.511719 9.601562 17.84375 Z M 15.363281 17.355469 C 15.492188 17.445312 15.644531 17.46875 15.789062 17.523438 C 16 17.601562 16.085938 17.695312 16.230469 17.863281 C 16.394531 18.050781 16.632812 18.378906 16.890625 18.414062 C 16.957031 18.421875 17.007812 18.335938 16.96875 18.28125 C 16.949219 18.25 16.929688 18.226562 16.898438 18.207031 C 16.875 18.179688 16.839844 18.179688 16.8125 18.195312 C 16.71875 18.121094 16.621094 18.011719 16.566406 17.957031 C 16.441406 17.839844 16.34375 17.691406 16.21875 17.566406 C 16.007812 17.355469 15.703125 17.390625 15.46875 17.230469 C 15.394531 17.179688 15.285156 17.300781 15.363281 17.355469 Z M 14.433594 18.476562 C 14.546875 18.429688 14.660156 18.402344 14.773438 18.355469 C 14.988281 18.25 15.144531 18.160156 15.382812 18.148438 C 15.65625 18.132812 15.90625 18.160156 16.128906 18.328125 C 16.320312 18.46875 16.472656 18.652344 16.640625 18.816406 C 16.691406 18.871094 16.765625 18.761719 16.71875 18.710938 C 16.359375 18.335938 16.105469 18.007812 15.5625 17.992188 C 15.367188 17.988281 15.171875 17.996094 14.988281 18.066406 C 14.882812 18.105469 14.796875 18.175781 14.699219 18.226562 C 14.542969 18.300781 14.496094 18.285156 14.386719 18.359375 C 14.320312 18.398438 14.355469 18.511719 14.433594 18.476562 Z M 13.167969 18.378906 C 13.320312 18.175781 13.445312 17.949219 13.636719 17.773438 C 13.820312 17.613281 14.03125 17.464844 14.238281 17.335938 C 14.351562 17.265625 14.246094 17.105469 14.140625 17.171875 C 13.671875 17.445312 13.183594 17.769531 13.035156 18.324219 C 13.011719 18.402344 13.125 18.4375 13.167969 18.378906 Z M 14.027344 19.007812 C 14.066406 18.902344 14.105469 18.804688 14.144531 18.699219 C 14.179688 18.601562 14.039062 18.578125 14.007812 18.667969 C 13.964844 18.769531 13.925781 18.875 13.894531 18.976562 C 13.851562 19.074219 13.992188 19.085938 14.027344 19.007812 Z M 11.566406 19.457031 C 11.910156 19.433594 12.144531 18.964844 12.277344 18.6875 C 12.390625 18.445312 12.402344 18.265625 12.371094 18.007812 C 12.34375 17.742188 12.351562 17.507812 12.183594 17.285156 C 12.125 17.207031 11.976562 17.300781 12.039062 17.390625 C 12.21875 17.648438 12.25 18.246094 12.136719 18.53125 C 12.058594 18.734375 11.785156 19.253906 11.558594 19.308594 C 11.480469 19.324219 11.460938 19.464844 11.566406 19.457031 Z M 18.085938 12.078125 C 18.101562 12.234375 18.136719 12.410156 18.160156 12.566406 C 18.175781 12.675781 18.195312 12.746094 18.261719 12.824219 C 18.261719 12.828125 18.269531 12.828125 18.269531 12.828125 C 18.25 12.957031 18.230469 13.09375 18.261719 13.210938 C 18.320312 13.433594 18.496094 13.621094 18.59375 13.828125 C 18.671875 14.003906 18.707031 14.160156 18.742188 14.34375 C 18.785156 14.558594 18.785156 14.675781 18.734375 14.902344 C 18.691406 15.105469 18.671875 15.289062 18.710938 15.5 C 18.800781 15.9375 18.921875 16.34375 19.417969 16.414062 C 19.484375 16.421875 19.566406 16.402344 19.625 16.421875 C 19.726562 16.453125 19.773438 16.542969 19.835938 16.613281 C 19.890625 16.667969 19.925781 16.730469 20 16.765625 C 20.078125 16.804688 20.15625 16.800781 20.242188 16.796875 C 20.421875 16.78125 20.597656 16.75 20.777344 16.753906 C 20.875 16.753906 20.910156 16.601562 20.796875 16.597656 C 20.667969 16.59375 20.542969 16.582031 20.417969 16.597656 C 20.226562 16.621094 20.128906 16.613281 19.972656 16.464844 C 19.882812 16.378906 19.859375 16.296875 19.734375 16.246094 C 19.519531 16.160156 19.265625 16.234375 19.125 15.992188 C 19 15.789062 18.953125 15.199219 19 15.019531 C 19.101562 14.632812 19.054688 14.269531 18.894531 13.894531 C 18.808594 13.695312 18.691406 13.527344 18.585938 13.34375 C 18.480469 13.160156 18.515625 12.949219 18.484375 12.742188 C 18.761719 12.726562 18.859375 12.597656 19.121094 12.46875 C 19.339844 12.359375 19.464844 12.066406 19.726562 12.09375 C 19.929688 12.105469 20.050781 12.121094 20.226562 12.023438 C 20.34375 12.324219 20.644531 12.457031 20.675781 12.828125 C 20.695312 13.136719 20.664062 13.519531 20.398438 13.695312 C 20.144531 13.871094 19.917969 13.96875 19.773438 14.265625 C 19.617188 14.601562 19.703125 14.894531 19.683594 15.25 C 19.679688 15.324219 19.785156 15.335938 19.8125 15.273438 C 19.882812 15.136719 19.882812 15.042969 19.871094 14.890625 C 19.851562 14.632812 19.863281 14.390625 20.023438 14.167969 C 20.226562 13.894531 20.648438 13.855469 20.78125 13.53125 C 20.875 13.304688 20.875 12.859375 20.828125 12.625 C 20.761719 12.335938 20.457031 12.191406 20.371094 11.929688 C 20.371094 11.925781 20.363281 11.917969 20.363281 11.914062 C 20.492188 11.804688 20.566406 11.660156 20.5625 11.476562 C 20.554688 11.375 20.402344 11.414062 20.402344 11.503906 C 20.402344 11.773438 20.097656 11.96875 19.859375 11.945312 C 19.769531 11.933594 19.695312 11.878906 19.605469 11.875 C 19.492188 11.871094 19.398438 11.902344 19.316406 11.976562 C 19.1875 12.085938 19.148438 12.214844 18.996094 12.304688 C 18.8125 12.410156 18.65625 12.542969 18.441406 12.5625 C 18.433594 12.550781 18.433594 12.546875 18.429688 12.539062 C 18.414062 12.503906 18.386719 12.5 18.363281 12.507812 C 18.351562 12.410156 18.339844 12.304688 18.332031 12.230469 C 18.289062 11.972656 18.28125 11.820312 18.515625 11.652344 C 18.808594 11.4375 19.148438 11.304688 19.433594 11.074219 C 19.621094 10.914062 20.023438 10.546875 19.808594 10.289062 C 19.769531 10.242188 19.660156 10.25 19.640625 10.316406 C 19.636719 10.324219 19.636719 10.335938 19.632812 10.34375 C 19.617188 10.394531 19.636719 10.429688 19.671875 10.445312 C 19.703125 10.625 19.253906 10.964844 19.164062 11.03125 C 18.886719 11.226562 18.542969 11.355469 18.289062 11.578125 C 18.128906 11.707031 18.066406 11.878906 18.085938 12.078125 Z M 17.332031 10.605469 C 17.398438 10.769531 17.636719 10.675781 17.742188 10.621094 C 17.914062 10.527344 18.027344 10.382812 18.105469 10.207031 C 18.148438 10.101562 17.988281 10.078125 17.949219 10.167969 C 17.871094 10.328125 17.613281 10.625 17.398438 10.519531 C 17.34375 10.492188 17.316406 10.5625 17.332031 10.605469 Z M 16.320312 10.890625 C 16.722656 10.632812 17.113281 10.316406 17.332031 9.875 C 17.539062 9.453125 17.601562 8.976562 17.597656 8.511719 C 17.597656 8.417969 17.464844 8.453125 17.460938 8.53125 C 17.445312 9.019531 17.351562 9.539062 17.085938 9.953125 C 16.875 10.28125 16.554688 10.542969 16.273438 10.800781 C 16.234375 10.835938 16.265625 10.925781 16.320312 10.890625 Z M 9.183594 11.640625 C 9.503906 11.433594 9.78125 12.148438 10.0625 12.191406 C 10.140625 12.207031 10.203125 12.066406 10.117188 12.046875 C 10 12.023438 9.929688 11.890625 9.863281 11.800781 C 9.792969 11.710938 9.71875 11.636719 9.625 11.566406 C 9.476562 11.457031 9.230469 11.34375 9.105469 11.539062 C 9.058594 11.597656 9.113281 11.6875 9.183594 11.640625 Z M 20.226562 15.414062 C 20.238281 15.523438 20.429688 15.519531 20.433594 15.410156 C 20.453125 15.113281 20.636719 14.902344 20.929688 14.871094 C 21.042969 14.855469 21.019531 14.679688 20.90625 14.691406 C 20.523438 14.722656 20.1875 15 20.226562 15.414062 Z M 20.96875 12.320312 C 21.140625 12.261719 21.28125 12.160156 21.472656 12.167969 C 21.605469 12.171875 21.738281 12.210938 21.871094 12.214844 C 22.085938 12.222656 22.265625 12.148438 22.441406 12.019531 C 22.644531 11.875 22.855469 11.550781 23.121094 11.53125 C 23.394531 11.511719 23.617188 11.75 23.886719 11.753906 C 23.96875 11.753906 24.007812 11.621094 23.917969 11.617188 C 23.621094 11.601562 23.402344 11.359375 23.085938 11.375 C 22.835938 11.390625 22.675781 11.582031 22.484375 11.726562 C 22.324219 11.847656 22.164062 11.972656 21.960938 12.003906 C 21.796875 12.023438 21.644531 11.96875 21.480469 11.957031 C 21.234375 11.945312 21.066406 12.007812 20.871094 12.160156 C 20.792969 12.230469 20.882812 12.347656 20.96875 12.320312 Z M 21.914062 10.5625 C 22.101562 10.488281 22.304688 10.414062 22.511719 10.445312 C 22.6875 10.46875 22.800781 10.578125 22.921875 10.699219 C 22.988281 10.765625 23.105469 10.660156 23.042969 10.597656 C 22.882812 10.433594 22.742188 10.304688 22.503906 10.28125 C 22.285156 10.261719 22.070312 10.328125 21.875 10.429688 C 21.804688 10.46875 21.832031 10.597656 21.914062 10.5625 Z M 21.097656 11.125 C 21.09375 11.214844 21.242188 11.195312 21.25 11.117188 C 21.3125 10.675781 21.683594 10.484375 22.007812 10.242188 C 22.066406 10.195312 22.03125 10.078125 21.960938 10.125 C 21.753906 10.273438 21.519531 10.394531 21.339844 10.578125 C 21.1875 10.730469 21.113281 10.914062 21.097656 11.125 Z M 23.351562 16.605469 C 23.515625 16.46875 23.652344 16.34375 23.6875 16.117188 C 23.714844 15.921875 23.667969 15.730469 23.730469 15.542969 C 23.78125 15.398438 23.863281 15.285156 23.96875 15.175781 C 24.050781 15.085938 23.914062 15 23.835938 15.074219 C 23.679688 15.226562 23.558594 15.398438 23.515625 15.617188 C 23.476562 15.800781 23.527344 16 23.460938 16.175781 C 23.410156 16.304688 23.289062 16.410156 23.210938 16.523438 C 23.140625 16.621094 23.292969 16.660156 23.351562 16.605469 Z M 21.269531 18.300781 C 21.707031 18.398438 22.117188 18.488281 22.539062 18.273438 C 22.804688 18.140625 23.105469 17.800781 22.914062 17.488281 C 22.859375 17.394531 22.675781 17.46875 22.738281 17.5625 C 22.9375 17.902344 22.40625 18.160156 22.152344 18.214844 C 21.871094 18.273438 21.585938 18.1875 21.308594 18.140625 C 21.207031 18.121094 21.152344 18.273438 21.269531 18.300781 Z M 11.648438 21.601562 C 11.738281 21.507812 11.804688 21.398438 11.8125 21.261719 C 11.816406 21.0625 11.75 20.871094 11.757812 20.667969 C 11.761719 20.585938 11.652344 20.601562 11.644531 20.667969 C 11.628906 20.785156 11.613281 20.902344 11.617188 21.023438 C 11.625 21.132812 11.644531 21.25 11.617188 21.359375 C 11.605469 21.421875 11.566406 21.484375 11.546875 21.550781 C 11.535156 21.613281 11.613281 21.640625 11.648438 21.601562 Z M 10.039062 21.742188 C 10.117188 21.65625 10.136719 21.550781 10.148438 21.4375 C 10.152344 21.398438 10.117188 21.375 10.078125 21.378906 C 10.039062 21.382812 10.007812 21.417969 10.007812 21.457031 C 10.003906 21.527344 9.988281 21.601562 9.949219 21.660156 C 9.910156 21.726562 9.984375 21.804688 10.039062 21.742188 Z M 6.605469 16.945312 C 6.585938 16.730469 6.53125 16.539062 6.566406 16.324219 C 6.59375 16.140625 6.628906 16.007812 6.609375 15.820312 C 6.597656 15.714844 6.589844 15.613281 6.585938 15.503906 C 6.585938 15.476562 6.589844 15.464844 6.605469 15.449219 C 6.550781 15.027344 6.769531 14.597656 6.765625 14.175781 C 6.761719 13.859375 6.691406 13.59375 6.761719 13.269531 C 6.8125 13.039062 6.820312 12.796875 6.894531 12.566406 C 6.972656 12.328125 7.078125 12.113281 7.25 11.929688 C 7.257812 11.917969 7.269531 11.910156 7.277344 11.898438 C 7.273438 11.890625 7.269531 11.878906 7.261719 11.871094 C 7.222656 11.800781 7.28125 11.734375 7.335938 11.734375 C 7.425781 11.582031 7.371094 11.1875 7.371094 11.0625 C 7.371094 10.710938 7.351562 10.359375 7.367188 10.007812 C 7.375 9.804688 7.449219 9.621094 7.5 9.429688 C 7.589844 9.085938 7.675781 8.746094 7.765625 8.402344 C 7.90625 7.859375 8.085938 7.398438 8.410156 6.9375 C 8.769531 6.429688 9.1875 5.949219 9.605469 5.484375 C 9.9375 5.117188 10.335938 4.789062 10.78125 4.585938 C 11.046875 4.46875 11.324219 4.34375 11.597656 4.246094 C 11.898438 4.136719 12.179688 4.003906 12.46875 3.882812 C 12.992188 3.667969 13.585938 3.578125 14.148438 3.566406 C 14.796875 3.558594 15.402344 3.390625 16.039062 3.277344 C 16.722656 3.152344 17.324219 3.394531 17.984375 3.523438 C 18.09375 3.546875 18.207031 3.574219 18.320312 3.605469 C 18.335938 3.601562 18.355469 3.601562 18.375 3.605469 C 18.800781 3.765625 19.257812 3.855469 19.699219 3.964844 C 19.851562 3.988281 20.011719 4.03125 20.148438 4.082031 C 20.433594 4.179688 20.734375 4.300781 21.007812 4.425781 C 21.527344 4.660156 22.042969 4.917969 22.542969 5.179688 C 23.535156 5.695312 24.304688 6.445312 24.660156 7.527344 C 25.023438 8.636719 25.28125 9.753906 25.464844 10.898438 C 25.546875 11.425781 25.523438 11.984375 25.449219 12.507812 C 25.414062 12.753906 25.433594 13.007812 25.394531 13.253906 C 25.335938 13.621094 25.183594 13.96875 25.113281 14.335938 C 25.109375 14.347656 25.105469 14.363281 25.09375 14.375 C 25.035156 15.136719 24.964844 15.910156 24.730469 16.625 C 24.507812 17.296875 24.238281 17.917969 23.808594 18.476562 C 23.613281 18.734375 23.402344 19.007812 23.128906 19.191406 C 22.890625 19.355469 22.523438 19.585938 22.226562 19.59375 C 21.828125 19.597656 21.613281 19.195312 21.246094 19.140625 C 21.015625 19.105469 20.816406 19.199219 20.597656 19.234375 C 20.527344 19.246094 20.441406 19.261719 20.375 19.25 C 20.371094 19.25 20.363281 19.25 20.359375 19.25 C 20.285156 19.402344 20.203125 19.539062 20.203125 19.714844 C 20.203125 19.898438 20.261719 20.078125 20.265625 20.261719 C 20.265625 20.445312 20.25 20.625 20.230469 20.808594 C 20.207031 21.023438 20.152344 21.242188 20.167969 21.457031 C 20.183594 21.632812 20.207031 21.785156 20.203125 21.957031 C 20.191406 22.300781 20.070312 22.699219 20.128906 23.03125 C 20.171875 23.289062 20.34375 23.492188 20.210938 23.753906 C 20.105469 23.96875 19.832031 24.09375 19.632812 24.1875 C 19.472656 24.253906 19.316406 24.347656 19.148438 24.394531 C 19.144531 24.394531 19.144531 24.398438 19.140625 24.398438 C 18.699219 24.53125 18.46875 24.871094 18.164062 25.1875 C 17.828125 25.542969 17.46875 25.933594 17.019531 26.136719 C 16.640625 26.308594 16.347656 26.5625 16 26.773438 C 15.753906 26.921875 15.507812 27.039062 15.246094 27.140625 C 15.242188 27.15625 15.230469 27.167969 15.222656 27.167969 C 14.808594 27.261719 14.429688 27.523438 14.046875 27.695312 C 13.71875 27.839844 13.339844 27.910156 12.992188 27.964844 C 12.269531 28.070312 11.609375 27.789062 10.886719 27.785156 C 10.59375 27.78125 10.261719 27.835938 10 27.679688 C 9.734375 27.527344 9.414062 27.253906 9.269531 26.976562 C 9.207031 26.859375 9.152344 26.734375 9.136719 26.601562 C 9.125 26.445312 9.183594 26.300781 9.164062 26.140625 C 9.136719 25.914062 8.980469 25.691406 8.992188 25.457031 C 8.992188 25.445312 8.996094 25.433594 9.003906 25.417969 C 8.976562 25.320312 8.941406 25.214844 8.898438 25.121094 C 8.820312 24.964844 8.695312 24.839844 8.640625 24.667969 C 8.601562 24.539062 8.601562 24.390625 8.597656 24.253906 C 8.59375 24.039062 8.574219 23.824219 8.558594 23.613281 C 8.558594 23.613281 8.558594 23.613281 8.554688 23.613281 C 8.453125 23.527344 8.527344 23.414062 8.546875 23.316406 C 8.546875 23.308594 8.554688 23.300781 8.554688 23.296875 C 8.484375 23.140625 8.542969 23.003906 8.542969 22.835938 C 8.542969 22.820312 8.546875 22.804688 8.558594 22.796875 C 8.480469 22.714844 8.410156 22.621094 8.351562 22.539062 C 8.246094 22.378906 8.265625 22.207031 8.265625 22.023438 C 8.265625 21.890625 8.273438 21.78125 8.351562 21.6875 C 8.328125 21.617188 8.332031 21.550781 8.296875 21.457031 C 8.273438 21.390625 8.214844 21.328125 8.207031 21.25 C 8.203125 21.15625 8.261719 21.023438 8.28125 20.929688 C 8.3125 20.804688 8.320312 20.695312 8.378906 20.582031 C 8.511719 20.34375 8.710938 20.222656 8.660156 19.910156 C 8.617188 19.640625 8.566406 19.308594 8.441406 19.050781 C 8.257812 18.976562 8.09375 18.902344 7.898438 18.859375 C 7.707031 18.816406 7.496094 18.863281 7.3125 18.789062 C 7.164062 18.726562 7.109375 18.621094 7.042969 18.484375 C 6.949219 18.300781 6.816406 18.171875 6.710938 17.996094 C 6.523438 17.699219 6.636719 17.28125 6.605469 16.945312 Z M 8.726562 24.1875 C 8.734375 24.410156 8.75 24.613281 8.859375 24.808594 C 8.972656 25.019531 9.054688 25.191406 9.113281 25.390625 C 9.125 25.394531 9.128906 25.402344 9.132812 25.414062 C 9.226562 25.597656 9.28125 25.800781 9.332031 26.003906 C 9.410156 26.320312 9.277344 26.597656 9.4375 26.902344 C 9.601562 27.210938 10.007812 27.539062 10.34375 27.597656 C 10.679688 27.65625 11.027344 27.59375 11.367188 27.644531 C 11.667969 27.695312 11.964844 27.785156 12.269531 27.824219 C 12.617188 27.871094 12.953125 27.804688 13.292969 27.734375 C 13.660156 27.660156 13.960938 27.546875 14.300781 27.394531 C 14.503906 27.304688 14.714844 27.195312 14.929688 27.125 C 15.265625 26.875 15.667969 26.707031 16.023438 26.472656 C 16.1875 26.363281 16.328125 26.234375 16.492188 26.132812 C 16.777344 25.957031 17.097656 25.882812 17.347656 25.65625 C 17.828125 25.214844 18.242188 24.605469 18.855469 24.347656 C 18.839844 24.304688 18.863281 24.246094 18.925781 24.226562 C 19.066406 24.1875 19.191406 24.078125 19.320312 24.011719 C 19.445312 23.953125 19.566406 23.902344 19.683594 23.835938 C 19.9375 23.6875 19.992188 23.625 19.921875 23.265625 C 19.898438 23.140625 19.851562 23.046875 19.847656 22.917969 C 19.84375 22.648438 19.921875 22.375 19.9375 22.101562 C 19.949219 21.804688 19.886719 21.507812 19.917969 21.214844 C 19.945312 20.902344 20.011719 20.597656 20.019531 20.28125 C 20.03125 20.019531 19.929688 19.734375 19.996094 19.476562 C 20.015625 19.390625 20.054688 19.339844 20.097656 19.261719 C 20.1875 19.097656 20.242188 18.945312 20.300781 18.765625 C 20.394531 18.484375 20.53125 18.214844 20.566406 17.917969 C 20.523438 17.914062 20.484375 17.910156 20.449219 17.894531 C 20.339844 18.0625 20.175781 18.167969 19.976562 18.199219 C 19.890625 18.488281 19.964844 18.808594 19.773438 19.0625 C 19.699219 19.160156 19.59375 19.214844 19.546875 19.34375 C 19.492188 19.488281 19.558594 19.671875 19.566406 19.816406 C 19.582031 20.011719 19.511719 20.132812 19.445312 20.320312 C 19.425781 20.378906 19.367188 20.328125 19.371094 20.285156 C 19.386719 20.03125 19.375 19.808594 19.367188 19.558594 C 19.359375 19.429688 19.386719 19.304688 19.457031 19.195312 C 19.492188 19.148438 19.542969 19.105469 19.578125 19.0625 C 19.710938 18.898438 19.75 18.726562 19.773438 18.527344 C 19.789062 18.414062 19.804688 18.316406 19.832031 18.214844 C 19.824219 18.214844 19.8125 18.214844 19.804688 18.214844 C 19.75 18.214844 19.699219 18.210938 19.652344 18.210938 C 19.4375 18.46875 19.3125 18.75 19.238281 19.082031 C 19.183594 19.320312 19.191406 19.617188 19.054688 19.820312 C 19.019531 19.871094 18.972656 19.800781 18.992188 19.761719 C 19.066406 19.601562 19.054688 19.355469 19.089844 19.175781 C 19.121094 19.03125 19.144531 18.890625 19.191406 18.75 C 19.257812 18.5625 19.355469 18.390625 19.480469 18.234375 C 19.429688 18.253906 19.378906 18.28125 19.324219 18.328125 C 19.246094 18.398438 19.160156 18.445312 19.074219 18.507812 C 18.957031 18.601562 18.941406 18.648438 18.859375 18.769531 C 18.824219 18.820312 18.785156 18.859375 18.746094 18.890625 C 18.65625 19.058594 18.59375 19.230469 18.542969 19.433594 C 18.460938 19.78125 18.453125 20.136719 18.386719 20.484375 C 18.375 20.542969 18.292969 20.570312 18.28125 20.496094 C 18.214844 19.988281 18.308594 19.457031 18.535156 18.996094 C 18.476562 19.019531 18.414062 19.03125 18.347656 19.046875 C 18.273438 19.0625 18.203125 19.074219 18.128906 19.074219 C 18.148438 19.085938 18.164062 19.113281 18.144531 19.152344 C 18.054688 19.34375 17.984375 19.539062 17.96875 19.75 C 17.953125 19.996094 18.003906 20.242188 17.960938 20.484375 C 17.910156 20.835938 17.746094 21.105469 17.5 21.355469 C 17.277344 21.578125 17.25 21.921875 17.027344 22.148438 C 16.890625 22.285156 16.625 22.484375 16.40625 22.496094 C 16.363281 22.5625 16.3125 22.621094 16.253906 22.667969 C 16.207031 22.699219 16.113281 22.660156 16.136719 22.59375 C 16.175781 22.492188 16.234375 22.394531 16.292969 22.304688 C 16.347656 22.226562 16.457031 22.140625 16.472656 22.042969 C 16.484375 21.945312 16.40625 21.769531 16.320312 21.722656 C 16.273438 21.695312 16.21875 21.710938 16.167969 21.714844 C 16.152344 21.804688 16.105469 21.882812 16.085938 21.976562 C 16.082031 21.996094 16.0625 22.011719 16.042969 22.011719 C 16.035156 22.027344 16.019531 22.03125 16.003906 22.023438 C 16.003906 22.023438 16.003906 22.027344 16.003906 22.027344 C 16.035156 22.09375 16.019531 22.449219 16.019531 22.519531 C 16.019531 22.597656 16.019531 22.667969 15.996094 22.746094 C 15.949219 22.890625 15.851562 23.042969 15.71875 23.113281 C 15.566406 23.191406 15.523438 23.132812 15.382812 23.09375 C 15.269531 23.0625 15.1875 23.097656 15.109375 23.160156 C 15.082031 23.222656 15.050781 23.265625 15 23.285156 C 14.996094 23.285156 14.996094 23.285156 14.988281 23.285156 C 14.898438 23.398438 14.8125 23.53125 14.699219 23.601562 C 14.597656 23.667969 14.390625 23.761719 14.273438 23.730469 C 14.28125 23.734375 14.164062 23.691406 14.164062 23.667969 C 14.132812 23.695312 14.105469 23.753906 14.085938 23.78125 C 13.972656 23.914062 13.867188 24.097656 13.675781 24.105469 C 13.5 24.117188 13.46875 23.972656 13.347656 23.882812 C 13.335938 23.9375 13.316406 23.992188 13.289062 24.042969 C 13.238281 24.136719 13.167969 24.246094 13.066406 24.273438 C 12.878906 24.328125 12.796875 24.15625 12.628906 24.117188 C 12.617188 24.113281 12.609375 24.105469 12.601562 24.09375 C 12.476562 24.234375 12.328125 24.433594 12.105469 24.382812 C 11.976562 24.355469 11.933594 24.207031 11.832031 24.171875 C 11.8125 24.167969 11.800781 24.160156 11.792969 24.15625 C 11.785156 24.15625 11.78125 24.160156 11.773438 24.160156 C 11.71875 24.171875 11.613281 24.320312 11.574219 24.347656 C 11.308594 24.566406 11.144531 24.453125 11.039062 24.226562 C 10.847656 24.359375 10.625 24.382812 10.441406 24.210938 C 10.410156 24.175781 10.378906 24.136719 10.355469 24.097656 C 10.347656 24.105469 10.347656 24.113281 10.339844 24.117188 C 10.25 24.199219 10.128906 24.296875 9.996094 24.285156 C 9.886719 24.28125 9.816406 24.210938 9.769531 24.125 C 9.671875 24.214844 9.515625 24.328125 9.378906 24.304688 C 9.257812 24.285156 9.242188 24.152344 9.222656 24.046875 C 9.21875 24.03125 9.21875 24.019531 9.210938 24.003906 C 9.183594 24.046875 9.152344 24.085938 9.109375 24.09375 C 8.882812 24.210938 8.757812 23.957031 8.710938 23.742188 C 8.691406 23.65625 8.699219 23.546875 8.671875 23.46875 C 8.664062 23.457031 8.660156 23.453125 8.660156 23.445312 C 8.660156 23.449219 8.660156 23.449219 8.660156 23.453125 C 8.65625 23.476562 8.644531 23.496094 8.636719 23.523438 C 8.675781 23.769531 8.71875 23.96875 8.726562 24.1875 Z M 16.0625 21.65625 C 16.0625 21.636719 16.058594 21.617188 16.054688 21.59375 C 16.039062 21.488281 16.054688 21.320312 15.929688 21.273438 C 15.753906 21.210938 15.675781 21.402344 15.5625 21.492188 C 15.546875 21.503906 15.53125 21.507812 15.511719 21.507812 C 15.503906 21.519531 15.492188 21.527344 15.476562 21.527344 C 15.527344 21.523438 15.550781 21.863281 15.542969 21.902344 C 15.53125 21.957031 15.515625 22.011719 15.503906 22.066406 C 15.53125 22.046875 15.566406 22.042969 15.601562 22.058594 C 15.660156 22.082031 15.75 22.160156 15.8125 22.101562 C 15.851562 22.0625 15.882812 21.992188 15.882812 21.9375 C 15.882812 21.871094 16.003906 21.820312 16.019531 21.902344 C 16.019531 21.917969 16.019531 21.933594 16.019531 21.953125 C 16.023438 21.917969 16.035156 21.882812 16.042969 21.84375 C 16.058594 21.785156 16.0625 21.746094 16.058594 21.710938 C 16.058594 21.691406 16.058594 21.671875 16.0625 21.65625 Z M 14.046875 22.320312 C 14.046875 22.378906 14.039062 22.433594 14.039062 22.492188 C 14.09375 22.640625 14.148438 22.660156 14.203125 22.5625 C 14.238281 22.542969 14.261719 22.488281 14.300781 22.46875 C 14.4375 22.390625 14.558594 22.484375 14.703125 22.347656 C 14.683594 22.328125 14.683594 22.285156 14.71875 22.273438 C 14.730469 22.269531 14.738281 22.269531 14.753906 22.269531 C 14.757812 22.246094 14.785156 22.214844 14.808594 22.207031 C 14.886719 22.039062 14.910156 21.796875 14.917969 21.652344 C 14.90625 21.648438 14.898438 21.648438 14.882812 21.640625 C 14.863281 21.636719 14.847656 21.605469 14.832031 21.597656 C 14.722656 21.527344 14.644531 21.46875 14.511719 21.488281 C 14.335938 21.519531 14.148438 21.734375 14.054688 21.898438 C 14.058594 21.910156 14.066406 21.914062 14.070312 21.921875 C 14.132812 22.042969 14.054688 22.191406 14.046875 22.320312 Z M 14.160156 23.433594 C 14.152344 23.46875 14.148438 23.507812 14.144531 23.546875 C 14.148438 23.542969 14.152344 23.542969 14.164062 23.539062 C 14.183594 23.527344 14.21875 23.527344 14.238281 23.542969 C 14.570312 23.789062 14.769531 23.359375 14.996094 23.097656 C 15.019531 23.027344 15.039062 22.957031 15.039062 22.890625 C 15.039062 22.761719 14.988281 22.632812 14.960938 22.507812 C 14.945312 22.523438 14.921875 22.519531 14.90625 22.488281 C 14.886719 22.453125 14.878906 22.414062 14.835938 22.394531 C 14.828125 22.390625 14.8125 22.382812 14.804688 22.382812 C 14.652344 22.59375 14.445312 22.511719 14.246094 22.660156 C 14.179688 22.714844 14.125 22.753906 14.074219 22.75 C 14.152344 22.96875 14.1875 23.1875 14.160156 23.433594 Z M 14.890625 22.226562 C 14.945312 22.265625 15.003906 22.304688 15.0625 22.320312 C 15.171875 22.34375 15.242188 22.269531 15.304688 22.195312 C 15.449219 22.019531 15.429688 21.828125 15.398438 21.621094 C 15.394531 21.601562 15.394531 21.578125 15.394531 21.558594 C 15.390625 21.558594 15.382812 21.550781 15.378906 21.546875 C 15.222656 21.4375 15.175781 21.558594 15.058594 21.632812 C 15.03125 21.652344 15.011719 21.660156 15 21.667969 C 15 21.847656 14.96875 22.050781 14.890625 22.226562 Z M 15.398438 22.285156 C 15.34375 22.359375 15.246094 22.433594 15.15625 22.464844 C 15.125 22.472656 15.089844 22.476562 15.058594 22.472656 C 15.101562 22.59375 15.152344 22.699219 15.167969 22.828125 C 15.171875 22.859375 15.171875 22.898438 15.167969 22.945312 C 15.203125 22.921875 15.242188 22.914062 15.277344 22.914062 C 15.367188 22.910156 15.410156 22.996094 15.480469 23.019531 C 15.875 23.125 15.90625 22.605469 15.90625 22.398438 C 15.90625 22.355469 15.894531 22.289062 15.894531 22.226562 C 15.890625 22.230469 15.886719 22.234375 15.882812 22.242188 C 15.757812 22.335938 15.613281 22.265625 15.503906 22.199219 C 15.480469 22.191406 15.472656 22.179688 15.46875 22.167969 C 15.449219 22.210938 15.429688 22.25 15.398438 22.285156 Z M 13.203125 22.507812 C 13.1875 22.578125 13.179688 22.636719 13.175781 22.707031 C 13.183594 22.679688 13.214844 22.65625 13.238281 22.671875 C 13.347656 22.722656 13.441406 22.824219 13.566406 22.824219 C 13.738281 22.828125 13.839844 22.65625 13.925781 22.539062 C 13.925781 22.53125 13.933594 22.53125 13.9375 22.53125 C 13.925781 22.464844 13.933594 22.394531 13.9375 22.324219 C 13.953125 22.171875 14.058594 21.957031 13.78125 21.898438 C 13.578125 21.855469 13.386719 21.949219 13.316406 22.152344 C 13.300781 22.195312 13.242188 22.199219 13.207031 22.179688 C 13.203125 22.179688 13.203125 22.179688 13.199219 22.1875 C 13.203125 22.289062 13.226562 22.394531 13.203125 22.507812 Z M 13.921875 22.675781 C 13.84375 22.789062 13.75 22.890625 13.601562 22.914062 C 13.445312 22.9375 13.296875 22.84375 13.179688 22.75 C 13.167969 22.746094 13.167969 22.734375 13.164062 22.730469 C 13.160156 22.765625 13.160156 22.796875 13.140625 22.824219 C 13.214844 23.105469 13.367188 23.449219 13.355469 23.761719 C 13.367188 23.761719 13.375 23.761719 13.386719 23.761719 C 13.480469 23.785156 13.445312 23.804688 13.527344 23.84375 C 13.554688 23.878906 13.578125 23.914062 13.601562 23.945312 C 13.730469 23.933594 13.828125 23.882812 13.898438 23.796875 C 13.898438 23.796875 13.898438 23.789062 13.898438 23.789062 C 13.90625 23.742188 13.9375 23.707031 13.953125 23.65625 C 13.980469 23.582031 13.992188 23.484375 14 23.398438 C 14.054688 23.160156 13.996094 22.910156 13.921875 22.675781 Z M 13.105469 22.117188 C 13.035156 22.039062 12.992188 21.992188 12.859375 22.046875 C 12.753906 22.09375 12.710938 22.15625 12.671875 22.234375 C 12.683594 22.34375 12.667969 22.464844 12.675781 22.566406 C 12.6875 22.65625 12.707031 22.730469 12.683594 22.808594 C 12.691406 22.808594 12.703125 22.816406 12.710938 22.820312 C 12.828125 22.917969 12.949219 22.902344 13.011719 22.773438 C 13.011719 22.761719 13.023438 22.746094 13.03125 22.734375 C 13.035156 22.722656 13.042969 22.707031 13.046875 22.691406 C 13.054688 22.660156 13.054688 22.621094 13.0625 22.585938 C 13.074219 22.507812 13.105469 22.445312 13.101562 22.363281 C 13.101562 22.296875 13.082031 22.226562 13.082031 22.15625 C 13.085938 22.140625 13.09375 22.125 13.105469 22.117188 Z M 13.046875 22.945312 C 12.921875 23.042969 12.765625 23.042969 12.644531 22.914062 C 12.578125 23.007812 12.488281 23.023438 12.390625 23.046875 C 12.402344 23.050781 12.410156 23.058594 12.421875 23.058594 C 12.328125 23.101562 12.214844 23.152344 12.125 23.121094 C 12.007812 23.078125 11.929688 22.964844 11.804688 22.929688 C 11.800781 22.949219 11.800781 22.96875 11.800781 22.988281 C 11.796875 23.058594 11.8125 23.125 11.78125 23.1875 C 11.800781 23.246094 11.804688 23.304688 11.824219 23.375 C 11.859375 23.492188 11.917969 23.585938 11.933594 23.710938 C 11.945312 23.785156 11.96875 23.882812 11.949219 23.957031 C 11.9375 23.988281 11.925781 24.023438 11.898438 24.050781 C 11.949219 24.097656 11.992188 24.152344 12.046875 24.175781 C 12.257812 24.296875 12.351562 24.195312 12.488281 24.046875 C 12.507812 23.988281 12.535156 23.929688 12.539062 23.863281 C 12.558594 23.714844 12.550781 23.546875 12.507812 23.402344 C 12.480469 23.285156 12.441406 23.175781 12.457031 23.0625 C 12.476562 23.066406 12.496094 23.066406 12.515625 23.0625 C 12.535156 23.101562 12.554688 23.140625 12.5625 23.167969 C 12.582031 23.226562 12.601562 23.28125 12.621094 23.339844 C 12.648438 23.417969 12.664062 23.476562 12.667969 23.558594 C 12.667969 23.652344 12.671875 23.753906 12.664062 23.847656 C 12.652344 23.914062 12.632812 23.96875 12.609375 24.019531 C 12.613281 24.023438 12.617188 24.027344 12.621094 24.039062 C 12.628906 24.039062 12.632812 24.03125 12.636719 24.03125 C 12.722656 24.027344 12.742188 24.046875 12.816406 24.085938 C 13.09375 24.230469 13.222656 23.984375 13.207031 23.714844 C 13.1875 23.453125 13.101562 23.199219 13.046875 22.945312 Z M 9.699219 23.144531 C 9.589844 23.210938 9.394531 23.222656 9.257812 23.191406 C 9.230469 23.390625 9.222656 23.613281 9.277344 23.800781 C 9.296875 23.863281 9.3125 23.9375 9.335938 24.003906 C 9.355469 24.066406 9.394531 24.175781 9.484375 24.179688 C 9.5625 24.1875 9.664062 24.085938 9.71875 24.039062 C 9.71875 24.039062 9.722656 24.03125 9.722656 24.03125 C 9.71875 24.023438 9.714844 24.007812 9.710938 23.996094 C 9.636719 23.824219 9.503906 23.300781 9.699219 23.144531 Z M 9.464844 23.050781 C 9.484375 23.050781 9.628906 23.039062 9.628906 23.039062 C 9.628906 23.03125 9.636719 23.027344 9.636719 23.019531 C 9.601562 22.929688 9.585938 22.828125 9.601562 22.726562 C 9.628906 22.507812 9.808594 22.335938 9.660156 22.105469 C 9.570312 21.972656 9.488281 21.953125 9.34375 21.992188 C 9.183594 22.039062 9.203125 22.03125 9.179688 22.171875 C 9.136719 22.402344 9.132812 22.652344 9.191406 22.882812 C 9.238281 23.050781 9.226562 23.058594 9.464844 23.050781 Z M 9.789062 23.882812 C 9.808594 23.953125 9.832031 24.03125 9.875 24.085938 C 10.015625 24.265625 10.164062 24.175781 10.296875 24.050781 C 10.300781 24.046875 10.308594 24.042969 10.316406 24.042969 C 10.289062 23.988281 10.269531 23.933594 10.246094 23.882812 C 10.175781 23.742188 10.136719 23.621094 10.128906 23.457031 C 10.128906 23.453125 10.128906 23.453125 10.128906 23.449219 C 9.984375 23.410156 9.855469 23.328125 9.761719 23.226562 C 9.644531 23.347656 9.75 23.75 9.789062 23.882812 Z M 9.980469 23.226562 C 10.214844 23.347656 10.511719 23.398438 10.519531 23.058594 C 10.527344 22.898438 10.441406 22.695312 10.417969 22.53125 C 10.402344 22.445312 10.398438 22.289062 10.335938 22.230469 C 10.246094 22.136719 9.925781 22.058594 9.871094 22.25 C 9.871094 22.316406 9.855469 22.382812 9.828125 22.46875 C 9.734375 22.714844 9.699219 23.078125 9.980469 23.226562 Z M 10.441406 23.464844 C 10.375 23.476562 10.304688 23.476562 10.234375 23.472656 C 10.253906 23.507812 10.253906 23.546875 10.265625 23.597656 C 10.289062 23.707031 10.347656 23.808594 10.394531 23.914062 C 10.511719 24.1875 10.738281 24.339844 11 24.152344 C 10.890625 23.847656 10.847656 23.429688 10.800781 23.253906 C 10.757812 23.230469 10.722656 23.199219 10.695312 23.167969 C 10.695312 23.1875 10.6875 23.199219 10.683594 23.222656 C 10.65625 23.34375 10.570312 23.4375 10.441406 23.464844 Z M 10.660156 22.75 C 10.667969 22.816406 10.679688 22.882812 10.683594 22.953125 C 10.699219 22.953125 10.714844 22.953125 10.726562 22.972656 C 10.8125 23.117188 10.945312 23.199219 11.113281 23.230469 C 11.199219 23.246094 11.363281 23.246094 11.453125 23.222656 C 11.679688 23.15625 11.648438 23.0625 11.671875 22.882812 C 11.6875 22.78125 11.703125 22.691406 11.679688 22.585938 C 11.628906 22.398438 11.472656 22.210938 11.285156 22.15625 C 11.023438 22.082031 10.726562 22.210938 10.683594 22.503906 C 10.679688 22.527344 10.664062 22.542969 10.644531 22.546875 C 10.640625 22.617188 10.644531 22.679688 10.660156 22.75 Z M 11.671875 23.289062 C 11.589844 23.335938 11.480469 23.335938 11.386719 23.339844 C 11.265625 23.34375 11.078125 23.34375 10.921875 23.296875 C 10.980469 23.496094 11.003906 23.710938 11.058594 23.914062 C 11.125 24.160156 11.273438 24.421875 11.613281 24.175781 C 11.628906 24.167969 11.636719 24.15625 11.652344 24.144531 C 11.652344 24.144531 11.652344 24.140625 11.652344 24.140625 C 11.761719 24.019531 11.816406 23.933594 11.796875 23.773438 C 11.78125 23.667969 11.730469 23.566406 11.703125 23.464844 C 11.691406 23.414062 11.6875 23.347656 11.671875 23.289062 Z M 11.820312 22.816406 C 11.90625 22.824219 11.976562 22.875 12.046875 22.917969 C 12.066406 22.933594 12.089844 22.953125 12.109375 22.964844 C 12.144531 22.984375 12.179688 22.992188 12.210938 22.992188 C 12.214844 22.988281 12.21875 22.984375 12.222656 22.976562 C 12.308594 22.917969 12.460938 22.917969 12.519531 22.828125 C 12.578125 22.742188 12.515625 22.414062 12.507812 22.308594 C 12.5 22.167969 12.335938 21.863281 12.136719 21.890625 C 12.082031 21.894531 12.042969 21.9375 11.976562 21.949219 C 11.976562 21.949219 11.972656 21.949219 11.972656 21.949219 C 11.890625 22.046875 11.8125 22.210938 11.773438 22.308594 C 11.761719 22.335938 11.742188 22.347656 11.71875 22.347656 C 11.785156 22.453125 11.832031 22.570312 11.835938 22.695312 C 11.832031 22.742188 11.824219 22.773438 11.820312 22.816406 Z M 8.632812 23.121094 C 8.640625 23.273438 8.734375 23.308594 8.777344 23.433594 C 8.800781 23.488281 8.789062 23.5625 8.800781 23.621094 C 8.8125 23.742188 8.878906 24.171875 9.125 24.007812 C 9.128906 24.003906 9.132812 24.003906 9.132812 24.003906 C 9.136719 23.996094 9.148438 23.988281 9.152344 23.976562 C 9.164062 23.957031 9.179688 23.945312 9.1875 23.921875 C 9.15625 23.808594 9.128906 23.695312 9.125 23.570312 C 9.117188 23.433594 9.128906 23.300781 9.152344 23.167969 C 9.132812 23.15625 9.117188 23.144531 9.105469 23.136719 C 9.066406 23.097656 9.035156 23.042969 9.015625 22.972656 C 8.882812 23.011719 8.753906 22.96875 8.644531 22.890625 C 8.640625 22.964844 8.625 23.042969 8.632812 23.121094 Z M 8.390625 22.320312 C 8.398438 22.382812 8.441406 22.464844 8.492188 22.542969 C 8.492188 22.519531 8.492188 22.492188 8.492188 22.46875 C 8.5 22.269531 8.5 22.082031 8.527344 21.882812 C 8.539062 21.824219 8.636719 21.824219 8.632812 21.890625 C 8.597656 22.15625 8.605469 22.433594 8.632812 22.707031 C 8.746094 22.816406 8.878906 22.894531 8.996094 22.863281 C 8.964844 22.679688 8.980469 22.46875 8.992188 22.347656 C 8.996094 22.285156 9 22.210938 9.015625 22.132812 C 9.011719 22.132812 9.011719 22.125 9.003906 22.121094 C 8.945312 22.046875 8.890625 21.914062 8.808594 21.859375 C 8.746094 21.816406 8.664062 21.84375 8.59375 21.828125 C 8.546875 21.820312 8.507812 21.800781 8.480469 21.769531 C 8.460938 21.78125 8.441406 21.785156 8.421875 21.785156 C 8.359375 21.945312 8.367188 22.175781 8.390625 22.320312 Z M 6.984375 15.824219 C 6.917969 16.042969 6.703125 16.335938 6.785156 16.566406 C 6.800781 16.601562 6.761719 16.667969 6.726562 16.660156 C 6.746094 16.808594 6.789062 16.957031 6.796875 17.105469 C 6.800781 17.273438 6.761719 17.433594 6.761719 17.601562 C 6.765625 17.871094 6.953125 18.050781 7.082031 18.273438 C 7.125 18.347656 7.140625 18.457031 7.199219 18.523438 C 7.222656 18.550781 7.253906 18.574219 7.28125 18.59375 C 7.183594 18.417969 7.128906 18.269531 7.097656 18.050781 C 7.0625 17.824219 7.144531 17.597656 7.082031 17.375 C 7.015625 17.148438 6.933594 17.097656 6.992188 16.847656 C 7.050781 16.597656 7.199219 16.371094 7.28125 16.121094 C 7.3125 16.042969 7.441406 16.042969 7.414062 16.136719 C 7.347656 16.371094 7.164062 16.636719 7.148438 16.875 C 7.140625 17.058594 7.234375 17.207031 7.257812 17.378906 C 7.328125 17.804688 7.175781 18.207031 7.34375 18.621094 C 7.4375 18.667969 7.542969 18.691406 7.636719 18.710938 C 7.917969 18.765625 8.144531 18.824219 8.390625 18.933594 C 8.398438 18.898438 8.445312 18.875 8.484375 18.875 C 8.335938 18.617188 8.367188 18.253906 8.371094 17.976562 C 8.371094 17.917969 8.472656 17.894531 8.472656 17.964844 C 8.472656 18.097656 8.464844 18.234375 8.472656 18.371094 C 8.484375 18.507812 8.546875 18.78125 8.617188 18.898438 C 8.632812 18.921875 8.613281 18.957031 8.582031 18.96875 C 8.6875 19.152344 8.726562 19.371094 8.773438 19.574219 C 8.828125 19.773438 8.933594 20.066406 8.859375 20.273438 C 8.832031 20.347656 8.777344 20.398438 8.730469 20.457031 C 8.601562 20.605469 8.511719 20.734375 8.472656 20.929688 C 8.445312 21.085938 8.40625 21.210938 8.453125 21.363281 C 8.472656 21.433594 8.484375 21.507812 8.5 21.582031 C 8.511719 21.613281 8.523438 21.640625 8.542969 21.671875 C 8.613281 21.761719 8.695312 21.714844 8.789062 21.734375 C 8.910156 21.753906 8.980469 21.875 9.050781 21.972656 C 9.078125 21.898438 9.125 21.835938 9.191406 21.800781 C 9.363281 21.699219 9.5625 21.808594 9.695312 21.929688 C 9.753906 21.984375 9.796875 22.039062 9.824219 22.09375 C 9.917969 21.996094 10.0625 21.945312 10.183594 21.949219 C 10.410156 21.953125 10.507812 22.160156 10.550781 22.363281 C 10.554688 22.378906 10.554688 22.390625 10.554688 22.402344 C 10.566406 22.398438 10.574219 22.398438 10.585938 22.402344 C 10.609375 22.300781 10.675781 22.210938 10.757812 22.140625 C 10.910156 22.019531 11.023438 22.023438 11.199219 22.042969 C 11.382812 22.066406 11.476562 22.082031 11.605469 22.226562 C 11.617188 22.242188 11.628906 22.253906 11.636719 22.269531 C 11.6875 22.140625 11.78125 21.957031 11.90625 21.84375 C 11.910156 21.839844 11.914062 21.835938 11.925781 21.828125 C 11.953125 21.800781 11.988281 21.78125 12.023438 21.765625 C 12.042969 21.75 12.0625 21.734375 12.085938 21.730469 C 12.152344 21.722656 12.234375 21.761719 12.289062 21.785156 C 12.417969 21.84375 12.558594 21.953125 12.621094 22.09375 C 12.675781 21.988281 12.746094 21.890625 12.828125 21.863281 C 12.96875 21.824219 13.066406 21.933594 13.144531 22.039062 C 13.15625 22.03125 13.164062 22.03125 13.175781 22.042969 C 13.222656 21.910156 13.328125 21.796875 13.46875 21.753906 C 13.601562 21.722656 13.828125 21.742188 13.964844 21.835938 C 14.015625 21.707031 14.152344 21.578125 14.246094 21.496094 C 14.359375 21.394531 14.558594 21.34375 14.710938 21.382812 C 14.765625 21.398438 14.789062 21.429688 14.832031 21.449219 C 14.910156 21.488281 14.863281 21.578125 15.015625 21.507812 C 15.039062 21.496094 15.070312 21.445312 15.09375 21.421875 C 15.207031 21.335938 15.304688 21.375 15.410156 21.445312 C 15.421875 21.429688 15.4375 21.417969 15.460938 21.417969 C 15.554688 21.339844 15.585938 21.214844 15.714844 21.175781 C 15.796875 21.152344 15.914062 21.148438 16 21.1875 C 16.003906 20.871094 16.039062 20.75 16.285156 20.511719 C 16.527344 20.28125 16.472656 20.148438 16.566406 19.875 C 16.609375 19.746094 16.703125 19.640625 16.792969 19.539062 C 16.730469 19.53125 16.679688 19.523438 16.625 19.507812 C 16.621094 19.507812 16.613281 19.511719 16.609375 19.511719 C 16.597656 19.53125 16.578125 19.546875 16.558594 19.546875 C 16.519531 19.585938 16.492188 19.636719 16.464844 19.667969 C 16.375 19.796875 16.265625 19.910156 16.167969 20.03125 C 16.113281 20.097656 16.027344 20.03125 16.0625 19.957031 C 16.105469 19.863281 16.171875 19.796875 16.242188 19.714844 C 16.308594 19.636719 16.375 19.550781 16.441406 19.472656 C 16.308594 19.394531 16.175781 19.375 16.019531 19.421875 C 15.839844 19.476562 15.75 19.597656 15.601562 19.707031 C 15.550781 19.742188 15.496094 19.671875 15.523438 19.621094 C 15.628906 19.402344 15.832031 19.273438 16.046875 19.242188 C 15.722656 19.125 15.414062 19.125 15.054688 19.25 C 14.921875 19.296875 14.867188 19.113281 14.996094 19.074219 C 15.550781 18.890625 15.949219 18.9375 16.460938 19.207031 C 16.640625 19.300781 16.722656 19.355469 16.914062 19.320312 C 17.050781 19.296875 17.152344 19.226562 17.277344 19.167969 C 17.449219 19.078125 17.617188 18.957031 17.816406 18.921875 C 18.074219 18.878906 18.394531 18.976562 18.628906 18.800781 C 18.648438 18.785156 18.660156 18.769531 18.675781 18.753906 C 18.691406 18.734375 18.707031 18.710938 18.71875 18.691406 C 18.75 18.640625 18.773438 18.585938 18.804688 18.542969 C 18.847656 18.476562 18.90625 18.4375 18.964844 18.398438 C 18.972656 18.394531 18.976562 18.390625 18.976562 18.382812 C 18.988281 18.375 18.996094 18.371094 19.007812 18.363281 C 19.171875 18.234375 19.351562 18.011719 19.566406 17.988281 C 19.671875 17.976562 19.753906 18.023438 19.851562 18.03125 C 20.089844 18.050781 20.277344 17.898438 20.355469 17.679688 C 20.335938 17.648438 20.339844 17.597656 20.375 17.558594 C 20.382812 17.546875 20.394531 17.53125 20.410156 17.523438 C 20.453125 17.476562 20.574219 17.46875 20.5625 17.5625 C 20.550781 17.636719 20.53125 17.707031 20.507812 17.769531 C 20.535156 17.773438 20.566406 17.78125 20.597656 17.78125 C 20.628906 17.75 20.683594 17.746094 20.722656 17.765625 C 20.867188 17.730469 20.988281 17.636719 21.113281 17.539062 C 21.335938 17.359375 21.601562 17.175781 21.6875 16.890625 C 21.738281 16.722656 21.722656 16.550781 21.832031 16.402344 C 21.984375 16.195312 22.328125 16.230469 22.453125 16.027344 C 22.492188 15.957031 22.625 16.003906 22.578125 16.082031 C 22.441406 16.335938 22.070312 16.28125 21.9375 16.546875 C 21.867188 16.695312 21.890625 16.878906 21.828125 17.03125 C 21.773438 17.167969 21.660156 17.265625 21.554688 17.363281 C 21.421875 17.488281 21.292969 17.601562 21.167969 17.734375 C 21.078125 17.835938 21.015625 17.878906 20.875 17.902344 C 20.84375 17.910156 20.800781 17.917969 20.757812 17.921875 C 20.722656 18.199219 20.609375 18.449219 20.515625 18.714844 C 20.484375 18.820312 20.453125 18.929688 20.417969 19.039062 C 20.65625 18.976562 21.097656 18.898438 21.140625 18.894531 C 21.472656 18.890625 21.632812 19.066406 21.898438 19.226562 C 22.257812 19.445312 22.671875 19.195312 22.984375 18.984375 C 23.28125 18.773438 23.519531 18.4375 23.730469 18.148438 C 24.113281 17.621094 24.332031 16.96875 24.546875 16.355469 C 24.558594 16.328125 24.5625 16.300781 24.574219 16.273438 C 24.546875 16.308594 24.527344 16.339844 24.503906 16.371094 C 24.242188 16.695312 23.949219 17.007812 23.761719 17.394531 C 23.734375 17.445312 23.632812 17.464844 23.636719 17.382812 C 23.648438 17.121094 23.882812 16.816406 24.046875 16.621094 C 24.246094 16.378906 24.453125 16.289062 24.601562 15.910156 C 24.679688 15.710938 24.675781 15.488281 24.695312 15.28125 C 24.710938 15.132812 24.726562 15.023438 24.785156 14.878906 C 24.789062 14.871094 24.792969 14.863281 24.796875 14.859375 C 24.832031 14.625 24.867188 14.390625 24.890625 14.15625 C 24.898438 14.105469 24.933594 14.074219 24.964844 14.058594 C 24.984375 13.878906 25.015625 13.707031 25.054688 13.53125 C 25.113281 13.28125 25.117188 13.050781 25.136719 12.800781 C 25.15625 12.5625 25.226562 12.324219 25.242188 12.085938 C 25.257812 11.847656 25.242188 11.59375 25.230469 11.355469 C 25.222656 11.078125 25.136719 10.828125 25.097656 10.558594 C 25.066406 10.324219 25.050781 10.085938 25 9.855469 C 24.882812 9.269531 24.710938 8.710938 24.539062 8.140625 C 24.375 7.601562 24.214844 7.085938 23.867188 6.632812 C 23.523438 6.179688 23.097656 5.859375 22.617188 5.574219 C 22.382812 5.433594 22.136719 5.320312 21.886719 5.210938 C 21.660156 5.113281 21.453125 4.972656 21.234375 4.859375 C 20.988281 4.734375 20.738281 4.613281 20.472656 4.53125 C 20.210938 4.453125 19.972656 4.308594 19.703125 4.242188 C 19.832031 4.359375 19.960938 4.472656 20.109375 4.566406 C 20.210938 4.632812 20.289062 4.707031 20.359375 4.808594 C 20.5625 5.117188 20.648438 5.425781 20.769531 5.765625 C 20.816406 5.902344 20.816406 6.050781 20.882812 6.1875 C 20.964844 6.359375 21.128906 6.449219 21.28125 6.546875 C 21.453125 6.660156 21.460938 6.746094 21.492188 6.949219 C 21.511719 7.097656 21.558594 7.242188 21.570312 7.390625 C 21.589844 7.640625 21.554688 7.882812 21.660156 8.132812 C 21.726562 8.300781 21.847656 8.476562 21.765625 8.667969 C 21.691406 8.84375 21.488281 8.902344 21.304688 8.964844 C 21.300781 8.992188 21.28125 9.023438 21.246094 9.023438 C 20.894531 9.027344 21.0625 9.519531 21.082031 9.722656 C 21.101562 9.902344 21.140625 9.976562 21.230469 10.121094 C 21.273438 10.191406 21.304688 10.246094 21.292969 10.335938 C 21.285156 10.433594 21.214844 10.46875 21.171875 10.546875 C 21.089844 10.691406 21.101562 10.78125 21.074219 10.925781 C 21.035156 11.125 20.867188 11.25 20.714844 11.375 C 20.644531 11.433594 20.554688 11.339844 20.617188 11.269531 C 20.753906 11.121094 20.847656 11.058594 20.890625 10.824219 C 20.914062 10.710938 20.910156 10.636719 20.949219 10.523438 C 20.988281 10.410156 21.132812 10.445312 21.0625 10.234375 C 21.054688 10.195312 21 10.160156 20.976562 10.125 C 20.910156 10.039062 20.882812 9.972656 20.871094 9.863281 C 20.84375 9.558594 20.769531 8.988281 21.148438 8.902344 C 21.152344 8.898438 21.15625 8.894531 21.160156 8.894531 C 21.265625 8.855469 21.433594 8.824219 21.519531 8.753906 C 21.8125 8.527344 21.585938 8.300781 21.5 8.09375 C 21.4375 7.925781 21.441406 7.796875 21.445312 7.617188 C 21.457031 7.285156 21.402344 6.878906 21.132812 6.667969 C 20.949219 6.523438 20.75 6.4375 20.648438 6.210938 C 20.476562 5.796875 20.414062 5.0625 20.050781 4.75 C 19.921875 4.640625 19.785156 4.574219 19.664062 4.457031 C 19.511719 4.304688 19.378906 4.191406 19.222656 4.105469 C 19.089844 4.078125 18.945312 4.050781 18.824219 4.003906 C 18.695312 3.953125 18.574219 3.898438 18.445312 3.851562 C 18.179688 3.777344 17.914062 3.730469 17.644531 3.667969 C 17.347656 3.597656 17.078125 3.476562 16.777344 3.457031 C 16.113281 3.382812 15.496094 3.632812 14.832031 3.703125 C 14.21875 3.765625 13.597656 3.730469 12.996094 3.910156 C 12.441406 4.074219 11.882812 4.320312 11.351562 4.546875 C 10.828125 4.777344 10.382812 4.984375 9.960938 5.378906 C 9.511719 5.789062 9.199219 6.300781 8.800781 6.753906 C 8.355469 7.253906 8.105469 7.796875 7.9375 8.4375 C 7.765625 9.101562 7.542969 9.742188 7.546875 10.425781 C 7.546875 10.785156 7.578125 11.160156 7.546875 11.523438 C 7.542969 11.566406 7.539062 11.613281 7.535156 11.660156 C 7.726562 11.476562 7.914062 11.28125 7.957031 11.027344 C 8.027344 10.621094 7.867188 10.191406 7.921875 9.769531 C 7.957031 9.519531 8.015625 9.199219 8.144531 8.984375 C 8.183594 8.914062 8.300781 8.976562 8.261719 9.050781 C 8.089844 9.355469 8.039062 9.828125 8.050781 10.160156 C 8.054688 10.4375 8.140625 10.722656 8.113281 11 C 8.085938 11.296875 7.898438 11.492188 7.683594 11.679688 C 7.351562 11.964844 7.082031 12.34375 7.015625 12.789062 C 6.988281 13 6.945312 13.199219 6.902344 13.410156 C 6.851562 13.675781 6.921875 13.914062 6.921875 14.175781 C 6.929688 14.433594 6.839844 14.675781 6.777344 14.921875 C 6.726562 15.113281 6.71875 15.289062 6.730469 15.476562 C 6.738281 15.488281 6.738281 15.492188 6.742188 15.503906 C 6.757812 15.613281 6.78125 15.722656 6.796875 15.835938 C 6.871094 15.574219 6.894531 15.324219 6.894531 15.027344 C 6.894531 14.9375 7.050781 14.902344 7.050781 15.007812 C 7.050781 15.285156 7.066406 15.550781 6.984375 15.824219 Z M 17.308594 24.65625 C 17.652344 24.289062 17.910156 23.824219 18.035156 23.335938 C 18.15625 22.875 18.09375 22.382812 18.195312 21.929688 C 18.207031 21.871094 18.128906 21.839844 18.117188 21.902344 C 17.992188 22.316406 18.007812 22.765625 17.914062 23.1875 C 17.796875 23.695312 17.503906 24.136719 17.222656 24.570312 C 17.183594 24.632812 17.25 24.714844 17.308594 24.65625 Z M 16.558594 23.660156 C 16.875 23.378906 17.152344 22.964844 17.25 22.546875 C 17.273438 22.449219 17.136719 22.4375 17.117188 22.523438 C 17.011719 22.921875 16.738281 23.265625 16.472656 23.570312 C 16.40625 23.640625 16.492188 23.726562 16.558594 23.660156 Z M 14.332031 25.113281 C 14.617188 24.808594 14.753906 24.246094 15.25 24.226562 C 15.324219 24.222656 15.367188 24.085938 15.28125 24.085938 C 14.804688 24.09375 14.339844 24.613281 14.238281 25.0625 C 14.21875 25.121094 14.285156 25.15625 14.332031 25.113281 Z M 13 25.667969 C 13.023438 25.71875 13.082031 25.691406 13.09375 25.652344 C 13.160156 25.476562 13.167969 25.289062 13.21875 25.117188 C 13.273438 24.933594 13.347656 24.753906 13.429688 24.582031 C 13.484375 24.476562 13.316406 24.445312 13.273438 24.527344 C 13.109375 24.828125 12.855469 25.320312 13 25.667969 Z M 12.648438 25.988281 C 12.671875 26.046875 12.734375 25.992188 12.742188 25.949219 C 12.746094 25.632812 12.722656 25.308594 12.800781 24.996094 C 12.820312 24.914062 12.710938 24.898438 12.6875 24.976562 C 12.597656 25.28125 12.523438 25.691406 12.648438 25.988281 Z M 11.140625 24.890625 C 11.226562 24.859375 11.234375 25.265625 11.238281 25.316406 C 11.25 25.398438 11.359375 25.363281 11.367188 25.300781 C 11.386719 25.140625 11.378906 25.003906 11.308594 24.859375 C 11.265625 24.769531 11.207031 24.734375 11.113281 24.785156 C 11.058594 24.808594 11.078125 24.914062 11.140625 24.890625 Z M 10.648438 24.800781 C 10.933594 25.335938 10.933594 26.023438 10.878906 26.613281 C 10.875 26.667969 10.945312 26.699219 10.972656 26.644531 C 11.125 26.375 11.082031 25.996094 11.042969 25.695312 C 11 25.359375 10.914062 25.007812 10.734375 24.722656 C 10.695312 24.652344 10.621094 24.746094 10.648438 24.800781 Z M 9.339844 24.804688 C 9.417969 24.964844 9.453125 25.152344 9.492188 25.320312 C 9.511719 25.398438 9.605469 25.359375 9.617188 25.296875 C 9.628906 25.105469 9.570312 24.910156 9.488281 24.742188 C 9.445312 24.65625 9.300781 24.726562 9.339844 24.804688 Z M 12.085938 27.53125 C 12.464844 27.539062 12.785156 27.464844 13.128906 27.300781 C 13.195312 27.269531 13.175781 27.152344 13.09375 27.1875 C 12.769531 27.328125 12.46875 27.394531 12.117188 27.394531 C 12.039062 27.394531 11.992188 27.53125 12.085938 27.53125 Z M 15.269531 20.582031 C 15.269531 20.671875 15.382812 20.652344 15.402344 20.582031 C 15.492188 20.304688 15.582031 20.0625 15.789062 19.847656 C 15.871094 19.765625 15.734375 19.671875 15.65625 19.746094 C 15.4375 19.972656 15.265625 20.265625 15.269531 20.582031 Z M 14.691406 20.816406 C 14.691406 20.914062 14.832031 20.890625 14.832031 20.804688 C 14.835938 20.507812 14.828125 20.222656 14.964844 19.949219 C 15.074219 19.730469 15.242188 19.621094 15.398438 19.449219 C 15.421875 19.417969 15.390625 19.359375 15.355469 19.390625 C 15.136719 19.574219 14.949219 19.714844 14.824219 19.972656 C 14.691406 20.242188 14.683594 20.523438 14.691406 20.816406 Z M 13.59375 21.078125 C 13.773438 20.929688 13.714844 20.660156 13.710938 20.453125 C 13.710938 20.363281 13.585938 20.382812 13.585938 20.464844 C 13.585938 20.625 13.640625 20.859375 13.542969 21.003906 C 13.527344 21.03125 13.554688 21.113281 13.59375 21.078125 Z M 12.921875 20.417969 C 13.011719 20.667969 13.121094 20.878906 13.105469 21.160156 C 13.09375 21.316406 12.996094 21.429688 12.988281 21.578125 C 12.980469 21.621094 13.042969 21.660156 13.066406 21.613281 C 13.207031 21.355469 13.296875 21.230469 13.253906 20.910156 C 13.222656 20.710938 13.132812 20.546875 13.066406 20.359375 C 12.953125 20.039062 12.976562 19.710938 13.011719 19.378906 C 13.023438 19.285156 12.898438 19.300781 12.890625 19.378906 C 12.847656 19.730469 12.804688 20.078125 12.921875 20.417969 Z M 12.460938 21.039062 C 12.460938 21.078125 12.464844 21.113281 12.464844 21.152344 C 12.464844 21.191406 12.523438 21.207031 12.523438 21.160156 C 12.523438 21.121094 12.53125 21.082031 12.53125 21.042969 C 12.535156 20.988281 12.460938 20.984375 12.460938 21.039062 Z M 19.21875 23.308594 C 19.191406 23.414062 19.339844 23.410156 19.371094 23.324219 C 19.511719 22.878906 19.375 22.519531 19.375 22.070312 C 19.375 21.621094 19.425781 21.199219 19.613281 20.789062 C 19.644531 20.714844 19.546875 20.671875 19.511719 20.746094 C 19.332031 21.117188 19.234375 21.503906 19.21875 21.917969 C 19.199219 22.394531 19.335938 22.84375 19.21875 23.308594 Z M 18.699219 23.902344 C 18.894531 23.761719 18.957031 23.582031 18.957031 23.347656 C 18.957031 23.285156 18.867188 23.296875 18.867188 23.355469 C 18.867188 23.546875 18.8125 23.695312 18.660156 23.816406 C 18.617188 23.84375 18.652344 23.9375 18.699219 23.902344 Z M 17.332031 18.382812 C 17.570312 18.207031 17.898438 18.210938 18.105469 17.984375 C 18.296875 17.773438 18.363281 17.476562 18.382812 17.199219 C 18.390625 17.101562 18.214844 17.113281 18.203125 17.199219 C 18.167969 17.496094 18.082031 17.839844 17.796875 17.984375 C 17.59375 18.082031 17.347656 18.085938 17.234375 18.316406 C 17.203125 18.382812 17.277344 18.421875 17.332031 18.382812 Z M 21.09375 18.578125 C 21.355469 18.605469 21.550781 18.59375 21.804688 18.699219 C 21.953125 18.765625 22.082031 18.835938 22.25 18.839844 C 22.585938 18.847656 22.933594 18.675781 23.179688 18.464844 C 23.253906 18.398438 23.164062 18.308594 23.089844 18.371094 C 22.898438 18.519531 22.683594 18.621094 22.441406 18.667969 C 22.210938 18.707031 22.058594 18.617188 21.851562 18.53125 C 21.601562 18.421875 21.363281 18.449219 21.09375 18.488281 C 21.046875 18.488281 21.046875 18.566406 21.09375 18.578125 Z M 23.949219 11.085938 C 24.140625 11.269531 24.335938 11.449219 24.453125 11.6875 C 24.492188 11.765625 24.605469 11.6875 24.574219 11.617188 C 24.445312 11.355469 24.246094 11.140625 24.007812 10.976562 C 23.949219 10.945312 23.902344 11.046875 23.949219 11.085938 Z M 12.769531 10.984375 C 12.789062 11.058594 12.882812 11.03125 12.910156 10.972656 C 12.9375 10.890625 13.074219 10.828125 13.148438 10.796875 C 13.269531 10.734375 13.394531 10.679688 13.527344 10.726562 C 13.625 10.761719 13.730469 10.617188 13.621094 10.578125 C 13.421875 10.503906 13.226562 10.558594 13.042969 10.648438 C 12.902344 10.707031 12.722656 10.800781 12.769531 10.984375 Z M 18.972656 17.269531 C 19.101562 17.175781 19.226562 17.097656 19.386719 17.082031 C 19.527344 17.066406 19.671875 17.09375 19.808594 17.105469 C 19.925781 17.121094 19.976562 16.949219 19.847656 16.933594 C 19.519531 16.894531 19.078125 16.835938 18.894531 17.1875 C 18.875 17.234375 18.917969 17.308594 18.972656 17.269531 Z M 13.980469 18.402344 C 14.007812 18.449219 14.066406 18.4375 14.078125 18.394531 C 14.09375 18.34375 14.109375 18.304688 14.109375 18.25 C 14.113281 18.167969 14.113281 18.113281 14.203125 18.085938 C 14.304688 18.058594 14.414062 18.066406 14.523438 18.058594 C 14.742188 18.042969 14.878906 17.894531 14.871094 17.671875 C 14.871094 17.574219 14.734375 17.597656 14.730469 17.679688 C 14.71875 17.933594 14.523438 17.890625 14.34375 17.902344 C 14.265625 17.910156 14.183594 17.921875 14.109375 17.953125 C 13.925781 18.027344 13.902344 18.242188 13.980469 18.402344 Z M 7.601562 17.488281 C 7.628906 17.507812 7.65625 17.476562 7.660156 17.453125 C 7.6875 17.363281 7.691406 17.300781 7.75 17.226562 C 7.800781 17.167969 7.84375 17.101562 7.898438 17.046875 C 8 16.933594 8.109375 16.839844 8.1875 16.707031 C 8.242188 16.613281 8.101562 16.558594 8.050781 16.640625 C 7.949219 16.820312 7.765625 16.964844 7.632812 17.121094 C 7.523438 17.246094 7.457031 17.375 7.601562 17.488281 Z M 10.515625 12.382812 C 10.8125 12.433594 11.082031 12.578125 11.386719 12.546875 C 11.570312 12.527344 11.816406 12.453125 11.792969 12.226562 C 11.777344 12.113281 11.585938 12.132812 11.59375 12.246094 C 11.609375 12.394531 11.234375 12.378906 11.152344 12.359375 C 10.941406 12.316406 10.773438 12.191406 10.546875 12.234375 C 10.46875 12.25 10.414062 12.371094 10.515625 12.382812 Z M 12.011719 13.007812 C 11.976562 13.097656 11.964844 13.191406 11.964844 13.285156 C 11.964844 13.339844 12.003906 13.429688 12.058594 13.453125 C 11.976562 13.632812 11.917969 13.820312 11.898438 14.019531 C 11.890625 14.136719 12.03125 14.140625 12.082031 14.058594 C 12.191406 13.875 12.285156 13.671875 12.382812 13.484375 C 12.425781 13.398438 12.464844 13.273438 12.519531 13.15625 C 12.53125 13.171875 12.535156 13.1875 12.550781 13.195312 C 12.410156 13.382812 12.355469 13.617188 12.316406 13.855469 C 12.261719 14.195312 12.199219 14.648438 12.382812 14.957031 C 12.441406 15.0625 12.597656 14.957031 12.589844 14.863281 C 12.578125 14.734375 12.570312 14.605469 12.5625 14.472656 C 12.609375 14.445312 12.648438 14.398438 12.664062 14.355469 C 12.722656 14.195312 12.765625 14.042969 12.804688 13.878906 C 12.828125 13.78125 12.847656 13.617188 12.929688 13.527344 C 12.933594 13.53125 12.933594 13.539062 12.9375 13.546875 C 12.933594 13.550781 12.929688 13.5625 12.921875 13.566406 C 12.894531 13.621094 12.890625 13.691406 12.902344 13.753906 C 12.804688 14 12.742188 14.289062 12.75 14.5625 C 12.734375 14.539062 12.722656 14.507812 12.707031 14.484375 C 12.65625 14.390625 12.558594 14.464844 12.574219 14.546875 C 12.707031 15.265625 13.273438 15.734375 13.871094 16.101562 C 13.976562 16.160156 14.085938 15.992188 13.992188 15.929688 C 13.695312 15.730469 13.441406 15.5 13.21875 15.242188 C 13.238281 15.210938 13.246094 15.171875 13.253906 15.140625 C 13.257812 15.066406 13.253906 15 13.253906 14.929688 C 13.507812 15.300781 13.863281 15.636719 14.128906 15.878906 C 14.261719 16.003906 14.40625 15.765625 14.355469 15.625 C 14.488281 15.75 14.636719 15.863281 14.785156 15.9375 C 14.988281 16.039062 15.222656 15.707031 15.019531 15.585938 C 14.832031 15.476562 14.664062 15.273438 14.523438 15.113281 C 14.476562 15.066406 14.4375 15.019531 14.398438 14.972656 C 14.519531 15.058594 14.636719 15.136719 14.753906 15.214844 C 14.898438 15.316406 15.019531 15.414062 15.136719 15.527344 C 15.15625 15.625 15.167969 15.726562 15.222656 15.804688 C 15.300781 15.921875 15.394531 15.933594 15.472656 15.890625 C 15.476562 15.894531 15.480469 15.902344 15.488281 15.910156 C 15.507812 16.050781 15.453125 16.261719 15.46875 16.359375 C 15.46875 16.363281 15.472656 16.371094 15.472656 16.375 C 15.449219 16.375 15.417969 16.378906 15.394531 16.375 C 15.164062 16.371094 14.941406 16.296875 14.710938 16.28125 C 14.109375 16.242188 13.578125 16.296875 13.105469 15.855469 C 12.84375 15.613281 12.5 15.511719 12.238281 15.261719 C 12.191406 15.210938 12.097656 15.28125 12.128906 15.34375 C 12.234375 15.539062 12.390625 15.632812 12.578125 15.734375 C 12.710938 15.808594 12.84375 15.847656 12.957031 15.957031 C 13.042969 16.039062 13.109375 16.113281 13.207031 16.171875 C 13.675781 16.472656 14.148438 16.402344 14.675781 16.457031 C 15.109375 16.503906 15.46875 16.648438 15.910156 16.527344 C 16.308594 16.417969 16.6875 16.179688 16.929688 15.84375 C 17.199219 15.472656 17.296875 15.023438 17.292969 14.566406 C 17.292969 14.335938 17.292969 14.101562 17.222656 13.898438 C 17.316406 13.902344 17.421875 13.902344 17.511719 13.902344 C 17.703125 13.898438 17.929688 13.847656 17.890625 13.605469 C 17.878906 13.53125 17.769531 13.582031 17.78125 13.648438 C 17.800781 13.820312 17.445312 13.765625 17.335938 13.761719 C 17.269531 13.753906 17.210938 13.75 17.152344 13.734375 C 17.105469 13.667969 17.046875 13.601562 16.96875 13.546875 C 16.785156 13.417969 16.558594 13.390625 16.351562 13.304688 C 16.082031 13.199219 15.832031 13.101562 15.589844 12.929688 C 15.269531 12.695312 14.90625 12.503906 14.519531 12.402344 C 14.050781 12.285156 13.738281 12.191406 13.269531 12.339844 C 12.800781 12.488281 12.277344 12.539062 11.890625 12.863281 C 11.796875 12.9375 11.917969 13.050781 12.011719 13.007812 Z M 7.007812 13.410156 C 7.03125 13.316406 7.015625 13.269531 7.066406 13.1875 C 7.167969 13.007812 7.332031 12.84375 7.484375 12.707031 C 7.671875 12.539062 7.855469 12.46875 8.050781 12.445312 C 8.0625 12.4375 8.070312 12.429688 8.082031 12.425781 C 8.300781 12.304688 8.546875 12.363281 8.785156 12.371094 C 9.070312 12.375 9.332031 12.390625 9.566406 12.5625 C 9.855469 12.773438 9.875 13.175781 10.164062 13.390625 C 10.167969 13.390625 10.167969 13.394531 10.167969 13.394531 C 10.175781 13.269531 10.15625 13.167969 10.195312 13.039062 C 10.210938 12.988281 10.285156 12.972656 10.320312 13 C 10.398438 12.898438 10.511719 12.839844 10.648438 12.816406 C 10.96875 12.761719 11.253906 12.914062 11.472656 13.136719 C 11.539062 13.207031 11.425781 13.320312 11.359375 13.253906 C 11.066406 12.976562 10.566406 12.789062 10.367188 13.261719 C 10.359375 13.28125 10.339844 13.296875 10.320312 13.300781 C 10.324219 13.410156 10.335938 13.519531 10.300781 13.625 C 10.242188 13.804688 10.082031 13.917969 9.941406 14.023438 C 9.714844 14.191406 9.523438 14.347656 9.375 14.601562 C 9.226562 14.847656 9.15625 15.136719 9.046875 15.402344 C 8.976562 15.566406 8.917969 15.78125 8.757812 15.882812 C 8.59375 15.992188 8.296875 16.023438 8.105469 16.003906 C 7.835938 15.972656 7.539062 15.84375 7.5 15.546875 C 7.5 15.539062 7.5 15.527344 7.5 15.523438 C 7.441406 15.378906 7.425781 15.207031 7.402344 15.050781 C 7.371094 14.863281 7.390625 14.675781 7.355469 14.488281 C 7.335938 14.390625 7.328125 14.316406 7.328125 14.210938 C 7.335938 13.96875 7.367188 13.722656 7.402344 13.484375 C 7.445312 13.191406 7.535156 13.074219 7.707031 12.839844 C 7.75 12.78125 7.785156 12.722656 7.828125 12.667969 C 7.734375 12.707031 7.640625 12.765625 7.550781 12.855469 C 7.351562 13.042969 7.230469 13.253906 7.066406 13.464844 C 7.042969 13.503906 6.996094 13.453125 7.007812 13.410156 Z M 8.519531 13.726562 C 8.519531 13.722656 8.511719 13.722656 8.511719 13.714844 C 8.53125 13.816406 8.566406 13.910156 8.597656 14.003906 C 8.601562 13.988281 8.613281 13.96875 8.617188 13.953125 C 8.582031 13.878906 8.546875 13.800781 8.519531 13.726562 Z M 9.457031 14.214844 C 9.449219 14.222656 9.433594 14.222656 9.417969 14.226562 C 9.398438 14.265625 9.375 14.300781 9.351562 14.339844 C 9.382812 14.296875 9.425781 14.253906 9.457031 14.214844 Z M 9.089844 14.207031 C 9.109375 14.175781 9.128906 14.152344 9.148438 14.125 C 9.144531 14.121094 9.136719 14.117188 9.136719 14.117188 C 9.125 14.105469 9.117188 14.09375 9.113281 14.078125 C 9.097656 14.0625 9.085938 14.046875 9.070312 14.03125 C 9.054688 14.046875 9.039062 14.066406 9.03125 14.082031 C 9.046875 14.121094 9.070312 14.167969 9.089844 14.207031 Z M 7.828125 13.058594 C 7.824219 13.0625 7.824219 13.066406 7.820312 13.074219 C 7.652344 13.296875 7.652344 13.523438 7.621094 13.789062 C 7.601562 13.957031 7.558594 14.132812 7.570312 14.300781 C 7.578125 14.484375 7.621094 14.648438 7.621094 14.835938 C 7.621094 15.03125 7.667969 15.414062 7.765625 15.59375 C 7.773438 15.613281 7.78125 15.632812 7.769531 15.652344 C 7.90625 15.820312 8.21875 15.84375 8.394531 15.800781 C 8.664062 15.730469 8.789062 15.5625 8.890625 15.320312 C 8.941406 15.207031 8.976562 15.082031 9.015625 14.964844 C 8.984375 14.992188 8.957031 15.027344 8.917969 15.066406 C 8.820312 15.167969 8.613281 15.074219 8.710938 14.933594 C 8.792969 14.816406 8.851562 14.675781 8.917969 14.542969 C 8.917969 14.53125 8.921875 14.523438 8.921875 14.511719 C 8.910156 14.507812 8.90625 14.5 8.898438 14.488281 C 8.859375 14.421875 8.820312 14.355469 8.777344 14.285156 C 8.773438 14.285156 8.769531 14.289062 8.765625 14.289062 C 8.738281 14.296875 8.714844 14.296875 8.695312 14.296875 C 8.738281 14.414062 8.773438 14.539062 8.789062 14.667969 C 8.792969 14.707031 8.757812 14.742188 8.71875 14.730469 C 8.527344 14.675781 8.453125 14.335938 8.40625 14.167969 C 8.355469 14.007812 8.3125 13.839844 8.292969 13.671875 C 8.28125 13.675781 8.273438 13.675781 8.261719 13.675781 C 8.277344 14.105469 8.523438 14.507812 8.519531 14.933594 C 8.519531 15.019531 8.414062 15.117188 8.351562 15.023438 C 8.1875 14.796875 8.148438 14.464844 8.109375 14.1875 C 8.09375 14.101562 8.082031 14.011719 8.070312 13.929688 C 8.046875 14.425781 8.101562 14.917969 8.261719 15.382812 C 8.308594 15.507812 8.105469 15.625 8.050781 15.488281 C 7.898438 15.097656 7.839844 14.699219 7.839844 14.304688 C 7.785156 14.34375 7.703125 14.328125 7.691406 14.234375 C 7.660156 13.925781 7.707031 13.582031 7.835938 13.285156 C 7.828125 13.199219 7.824219 13.125 7.828125 13.058594 Z M 7.828125 13.058594 " fill-opacity="1" fill-rule="nonzero"/></g></svg>