<svg xmlns="http://www.w3.org/2000/svg" xmlns:xlink="http://www.w3.org/1999/xlink" width="43" zoomAndPan="magnify" viewBox="0 0 32.25 32.249998" height="43" preserveAspectRatio="xMidYMid meet" version="1.0"><defs><clipPath id="c035d867f4"><path d="M 3.402344 4 L 28.324219 4 L 28.324219 28 L 3.402344 28 Z M 3.402344 4 " clip-rule="nonzero"/></clipPath></defs><g clip-path="url(#c035d867f4)"><path fill="#000000" d="M 28.269531 8.90625 C 28.339844 8.855469 28.339844 8.777344 28.292969 8.734375 C 28.257812 8.6875 28.191406 8.679688 28.140625 8.707031 L 27.058594 9.347656 C 27.050781 9.359375 27.011719 9.359375 27.003906 9.335938 C 26.992188 9.320312 26.996094 9.292969 27.011719 9.285156 L 28.097656 8.429688 C 28.148438 8.390625 28.171875 8.3125 28.125 8.253906 C 28.082031 8.199219 28 8.183594 27.9375 8.222656 L 26.820312 8.992188 C 26.800781 8.996094 26.785156 8.996094 26.769531 8.984375 C 26.746094 8.964844 26.746094 8.925781 26.765625 8.90625 L 27.539062 7.996094 C 27.582031 7.925781 27.5625 7.859375 27.515625 7.832031 C 27.46875 7.796875 27.402344 7.800781 27.363281 7.839844 L 26.398438 8.769531 C 26.246094 8.878906 26.089844 8.976562 25.96875 9 C 25.925781 9.007812 25.890625 8.976562 25.886719 8.941406 C 25.886719 8.9375 25.878906 8.929688 25.878906 8.925781 C 25.84375 8.613281 26.070312 8.484375 26.042969 8.214844 C 26.039062 8.128906 26.011719 8.0625 25.957031 8.03125 C 25.914062 8.011719 25.863281 8.03125 25.839844 8.074219 L 25.46875 8.792969 C 25.378906 8.964844 25.3125 9.148438 25.265625 9.335938 L 25.054688 10.1875 C 25.039062 10.242188 25.019531 10.292969 24.992188 10.34375 C 24.511719 11.15625 23.949219 11.929688 23.289062 12.648438 C 23.203125 12.742188 23.046875 12.710938 23 12.59375 C 22.617188 11.535156 22.164062 10.554688 21.617188 9.671875 C 21.554688 9.570312 21.519531 9.457031 21.511719 9.335938 C 21.492188 9.042969 21.355469 8.824219 21.132812 8.671875 C 21.101562 8.652344 21.113281 8.601562 21.148438 8.59375 L 21.542969 8.480469 C 21.566406 8.476562 21.585938 8.488281 21.597656 8.5 C 22.003906 9.070312 22.402344 9.371094 22.765625 8.894531 C 22.933594 8.929688 23.042969 8.886719 23.074219 8.757812 C 23.222656 8.828125 23.339844 8.792969 23.4375 8.703125 C 23.660156 8.835938 23.777344 8.789062 23.835938 8.644531 C 23.964844 8.179688 24.195312 7.917969 24.53125 7.84375 C 26.28125 8.011719 25.644531 5.945312 24.609375 4.6875 C 23.558594 3.371094 21.523438 4.65625 20.984375 6.066406 C 20.894531 6.277344 20.742188 6.457031 20.535156 6.558594 C 20.214844 6.714844 19.882812 6.714844 19.542969 6.535156 C 19.042969 6.125 18.464844 5.921875 17.785156 5.972656 C 17.632812 5.984375 17.480469 5.980469 17.332031 5.949219 C 16.226562 5.742188 15 5.714844 13.691406 5.84375 C 13.304688 5.878906 13.160156 5.722656 12.683594 5.863281 C 11.503906 6.28125 10.390625 6.75 9.394531 7.3125 L 7.972656 8.066406 C 7.847656 8.136719 7.734375 8.21875 7.632812 8.316406 L 6.992188 8.90625 L 6.382812 9.429688 C 6.335938 9.46875 6.328125 9.542969 6.371094 9.585938 C 6.40625 9.632812 6.472656 9.636719 6.519531 9.601562 L 6.972656 9.273438 C 7 9.261719 7.023438 9.257812 7.046875 9.277344 C 7.066406 9.300781 7.066406 9.335938 7.046875 9.355469 L 6.183594 10.160156 C 6.128906 10.207031 6.128906 10.316406 6.195312 10.363281 C 6.246094 10.398438 6.320312 10.398438 6.367188 10.351562 L 7.144531 9.675781 C 7.15625 9.671875 7.183594 9.660156 7.195312 9.671875 C 7.21875 9.683594 7.230469 9.71875 7.210938 9.738281 L 6.472656 10.667969 C 6.414062 10.738281 6.429688 10.84375 6.503906 10.898438 C 6.578125 10.953125 6.679688 10.945312 6.734375 10.875 L 7.4375 10.03125 C 7.464844 10.003906 7.488281 9.996094 7.523438 10.015625 C 7.554688 10.03125 7.570312 10.070312 7.554688 10.101562 L 7.167969 10.886719 C 7.140625 10.941406 7.148438 11.019531 7.199219 11.070312 C 7.265625 11.136719 7.386719 11.128906 7.441406 11.050781 L 8.027344 10.230469 C 8.148438 10.117188 8.261719 10.019531 8.375 9.960938 C 8.507812 9.894531 8.671875 9.964844 8.707031 10.109375 L 8.835938 10.671875 C 8.859375 10.765625 8.964844 10.800781 9.03125 10.777344 C 9.085938 10.757812 9.125 10.707031 9.128906 10.652344 C 9.171875 10.207031 9.167969 9.777344 9.101562 9.363281 C 9.054688 9.050781 9.238281 8.753906 9.53125 8.636719 C 10.613281 8.210938 11.804688 7.832031 13.058594 7.484375 C 13.34375 7.402344 13.640625 7.386719 13.929688 7.441406 C 14.820312 7.601562 15.78125 7.769531 16.3125 7.910156 C 16.507812 7.960938 16.613281 8.171875 16.523438 8.355469 C 16.050781 9.34375 15.695312 10.339844 15.496094 11.335938 C 15.398438 11.730469 15.148438 12.183594 14.851562 12.660156 C 14.777344 12.769531 14.691406 12.871094 14.589844 12.957031 C 13.726562 13.675781 12.929688 14.402344 12.738281 15.238281 C 12.683594 15.464844 12.542969 15.667969 12.339844 15.789062 C 11.792969 16.125 11.25 16.589844 10.714844 17.125 C 10.558594 17.28125 10.421875 17.457031 10.304688 17.644531 C 9.980469 18.160156 9.46875 18.492188 8.78125 18.644531 C 7.679688 18.820312 6.648438 19.472656 5.6875 20.582031 C 5.292969 21.054688 4.835938 21.382812 4.265625 21.449219 C 3.410156 21.496094 3.515625 22.121094 3.878906 22.507812 C 4.777344 23.457031 4.21875 24.28125 4.949219 24.804688 C 5.386719 25.117188 5.472656 24.136719 5.324219 23.699219 C 5.246094 22.960938 5.507812 22.191406 6.140625 21.757812 C 7.097656 21.113281 8.09375 20.570312 9.140625 20.132812 C 9.257812 20.085938 9.382812 20.058594 9.511719 20.058594 C 10.148438 20.050781 10.648438 19.945312 10.910156 19.671875 C 11.046875 19.539062 11.210938 19.425781 11.378906 19.339844 C 12.503906 18.761719 13.5625 18.105469 14.558594 17.363281 C 14.648438 17.292969 14.773438 17.285156 14.871094 17.347656 C 16.519531 18.371094 18.140625 19.261719 19.714844 19.925781 C 19.839844 19.976562 19.859375 20.132812 19.757812 20.214844 C 18.839844 20.925781 18.191406 21.78125 17.875 22.832031 C 17.625 23.539062 17.117188 24.402344 16.535156 25.308594 C 16.039062 25.902344 16.269531 26.386719 16.71875 26.554688 C 17.699219 26.894531 17.953125 27.167969 18.328125 27.351562 C 19.089844 27.671875 19.277344 27.828125 19.617188 27.84375 C 20.558594 27.867188 20.746094 27.277344 20.457031 27.117188 C 19.675781 26.667969 18.992188 26.152344 18.441406 25.546875 C 18.296875 25.386719 18.273438 25.160156 18.382812 24.976562 C 18.933594 24.058594 20.597656 22.039062 21.625 20.898438 C 21.78125 20.726562 21.910156 20.535156 21.992188 20.324219 C 22.25 19.6875 22.066406 19.132812 21.476562 18.660156 C 21.375 18.578125 21.28125 18.488281 21.195312 18.390625 C 19.996094 17.003906 18.691406 15.914062 17.1875 15.40625 C 17.085938 15.371094 17.019531 15.261719 17.042969 15.15625 L 17.070312 15.027344 C 17.105469 14.863281 17.167969 14.703125 17.261719 14.5625 C 17.847656 13.644531 18.480469 12.832031 19.195312 12.183594 C 19.5 11.925781 19.835938 12.019531 20.238281 11.414062 C 20.277344 11.347656 20.378906 11.351562 20.421875 11.417969 C 20.886719 12.210938 21.695312 13.164062 22.570312 14.144531 C 22.691406 14.265625 22.828125 14.339844 22.976562 14.359375 C 23.175781 14.390625 23.371094 14.316406 23.515625 14.179688 C 24.527344 13.191406 25.339844 12.15625 25.792969 11.039062 C 25.855469 10.882812 25.976562 10.761719 26.136719 10.707031 C 26.4375 10.589844 26.722656 10.390625 27.007812 10.1875 C 27.070312 10.140625 27.136719 10.101562 27.203125 10.066406 L 28.027344 9.636719 C 28.136719 9.574219 28.054688 9.410156 27.9375 9.464844 L 27.265625 9.757812 C 27.242188 9.769531 27.203125 9.765625 27.175781 9.734375 C 27.15625 9.703125 27.167969 9.664062 27.199219 9.640625 Z M 8.285156 9.152344 C 8.019531 9.152344 7.796875 8.9375 7.796875 8.671875 C 7.796875 8.40625 8.019531 8.1875 8.285156 8.1875 C 8.558594 8.1875 8.773438 8.40625 8.773438 8.671875 C 8.773438 8.9375 8.558594 9.152344 8.285156 9.152344 Z M 13.1875 7.160156 C 12.882812 7.160156 12.636719 6.917969 12.636719 6.621094 C 12.636719 6.320312 12.882812 6.078125 13.1875 6.078125 C 13.492188 6.078125 13.738281 6.320312 13.738281 6.621094 C 13.738281 6.917969 13.492188 7.160156 13.1875 7.160156 Z M 4.554688 22.714844 C 3.839844 22.714844 3.835938 21.65625 4.554688 21.65625 C 4.851562 21.65625 5.089844 21.894531 5.089844 22.1875 C 5.089844 22.480469 4.851562 22.714844 4.554688 22.714844 Z M 9.707031 19.621094 C 9.433594 19.621094 9.210938 19.40625 9.210938 19.136719 C 9.210938 18.871094 9.433594 18.652344 9.707031 18.652344 C 9.980469 18.652344 10.203125 18.871094 10.203125 19.136719 C 10.203125 19.40625 9.980469 19.621094 9.707031 19.621094 Z M 17.3125 26.164062 C 17.042969 26.164062 16.828125 25.949219 16.828125 25.683594 C 16.828125 25.421875 17.042969 25.207031 17.3125 25.207031 C 17.585938 25.207031 17.800781 25.421875 17.800781 25.683594 C 17.800781 25.949219 17.585938 26.164062 17.3125 26.164062 Z M 20.890625 19.429688 C 21.257812 19.429688 21.550781 19.71875 21.550781 20.078125 C 21.550781 20.433594 21.257812 20.726562 20.890625 20.726562 C 20.523438 20.726562 20.226562 20.433594 20.226562 20.078125 C 20.226562 19.71875 20.523438 19.429688 20.890625 19.429688 Z M 15.722656 16.761719 C 15.242188 16.761719 14.855469 16.382812 14.855469 15.914062 C 14.855469 15.445312 15.242188 15.066406 15.722656 15.066406 C 16.199219 15.066406 16.585938 15.445312 16.585938 15.914062 C 16.585938 16.382812 16.199219 16.761719 15.722656 16.761719 Z M 18.351562 7.558594 C 18.046875 7.558594 17.804688 7.320312 17.804688 7.023438 C 17.804688 6.730469 18.046875 6.492188 18.351562 6.492188 C 18.652344 6.492188 18.898438 6.730469 18.898438 7.023438 C 18.898438 7.320312 18.652344 7.558594 18.351562 7.558594 Z M 20.34375 10.292969 C 20.214844 10.246094 20.117188 10.148438 20.066406 10.027344 C 19.90625 9.605469 20.308594 9.214844 20.734375 9.371094 C 20.859375 9.421875 20.960938 9.515625 21.007812 9.640625 C 21.171875 10.0625 20.773438 10.453125 20.34375 10.292969 Z M 23.207031 14.03125 C 22.929688 14.03125 22.703125 13.808594 22.703125 13.542969 C 22.703125 13.269531 22.929688 13.046875 23.207031 13.046875 C 23.484375 13.046875 23.707031 13.269531 23.707031 13.542969 C 23.707031 13.808594 23.484375 14.03125 23.207031 14.03125 Z M 25.554688 10.800781 C 25.308594 10.800781 25.105469 10.605469 25.105469 10.363281 C 25.105469 10.121094 25.308594 9.925781 25.554688 9.925781 C 25.800781 9.925781 26.003906 10.121094 26.003906 10.363281 C 26.003906 10.605469 25.800781 10.800781 25.554688 10.800781 Z M 25.554688 10.800781 " fill-opacity="1" fill-rule="nonzero"/></g></svg>