<svg xmlns="http://www.w3.org/2000/svg" xmlns:xlink="http://www.w3.org/1999/xlink" width="43" zoomAndPan="magnify" viewBox="0 0 32.25 32.249998" height="43" preserveAspectRatio="xMidYMid meet" version="1.0"><defs><clipPath id="b11c490efe"><path d="M 14 9 L 26.597656 9 L 26.597656 28.070312 L 14 28.070312 Z M 14 9 " clip-rule="nonzero"/></clipPath><clipPath id="e909010965"><path d="M 7 3.152344 L 22 3.152344 L 22 28.070312 L 7 28.070312 Z M 7 3.152344 " clip-rule="nonzero"/></clipPath></defs><path fill="#000000" d="M 13.714844 27.546875 C 13.875 27.546875 14.007812 27.417969 14.007812 27.257812 L 14.007812 25.566406 L 13.992188 21.109375 C 14.359375 21.007812 14.664062 20.804688 14.898438 20.527344 C 15.542969 19.769531 15.484375 18.664062 14.796875 17.964844 C 14.226562 17.410156 13.378906 17.265625 12.679688 17.585938 C 12.515625 17.644531 12.386719 17.730469 12.253906 17.847656 C 12.121094 17.730469 11.976562 17.644531 11.832031 17.585938 C 11.113281 17.265625 10.265625 17.410156 9.710938 17.964844 C 9.011719 18.664062 8.964844 19.785156 9.609375 20.527344 C 9.84375 20.804688 10.148438 21.007812 10.515625 21.109375 L 10.515625 27.257812 C 10.515625 27.417969 10.648438 27.546875 10.808594 27.546875 L 12.605469 27.546875 L 12.605469 21.96875 C 12.605469 21.910156 12.648438 21.867188 12.707031 21.867188 C 12.75 21.867188 12.796875 21.910156 12.796875 21.96875 L 12.796875 27.546875 Z M 13.714844 27.546875 " fill-opacity="1" fill-rule="nonzero"/><g clip-path="url(#b11c490efe)"><path fill="#000000" d="M 26.503906 10.230469 C 26.589844 10.097656 26.5625 9.925781 26.429688 9.824219 C 26.296875 9.734375 26.109375 9.777344 26.019531 9.910156 C 25.230469 11.058594 24.019531 12.371094 22.191406 13.476562 C 20.378906 14.585938 17.953125 15.488281 14.738281 15.851562 C 14.242188 15.910156 14.257812 16.316406 14.535156 16.421875 C 14.738281 16.523438 16.988281 17.761719 15.628906 22.507812 C 15.175781 24.082031 14.914062 25.230469 14.769531 26.0625 C 14.621094 26.90625 14.59375 27.429688 14.605469 27.765625 C 14.621094 27.925781 14.753906 28.042969 14.914062 28.042969 C 15.074219 28.027344 15.191406 27.898438 15.191406 27.738281 C 15.175781 27.445312 15.207031 26.964844 15.339844 26.164062 C 15.484375 25.347656 15.746094 24.226562 16.1875 22.667969 C 17.265625 18.894531 16.1875 17.105469 15.394531 16.347656 C 18.421875 15.941406 20.730469 15.050781 22.5 13.972656 C 24.414062 12.824219 25.671875 11.4375 26.503906 10.230469 Z M 26.503906 10.230469 " fill-opacity="1" fill-rule="nonzero"/></g><g clip-path="url(#e909010965)"><path fill="#000000" d="M 20.847656 3.75 C 20.992188 3.691406 21.066406 3.515625 20.992188 3.371094 C 20.933594 3.210938 20.757812 3.152344 20.613281 3.210938 C 17.953125 4.316406 13.730469 7.097656 10.707031 10.097656 C 8.410156 12.371094 6.816406 14.816406 7.097656 16.785156 C 7.316406 18.3125 7.828125 20.628906 8.339844 22.785156 C 8.847656 24.910156 9.359375 26.921875 9.59375 27.824219 C 9.636719 27.984375 9.800781 28.070312 9.960938 28.027344 C 10.105469 28 10.207031 27.839844 10.164062 27.679688 C 9.929688 26.804688 9.417969 24.839844 8.90625 22.652344 C 8.394531 20.511719 7.886719 18.210938 7.664062 16.710938 C 7.417969 14.933594 8.9375 12.675781 11.128906 10.507812 C 14.082031 7.566406 18.230469 4.828125 20.847656 3.75 Z M 20.847656 3.75 " fill-opacity="1" fill-rule="nonzero"/></g><path fill="#000000" d="M 23.230469 9.296875 C 23.375 9.226562 23.433594 9.050781 23.359375 8.90625 C 23.097656 8.394531 22.222656 5.949219 22.207031 5.917969 C 22.175781 5.890625 22.164062 5.875 22.132812 5.859375 C 22.03125 5.789062 21.898438 5.789062 21.796875 5.875 L 21.605469 6.019531 L 21.578125 6.019531 L 21.578125 6.035156 L 15.382812 10.988281 C 15.367188 11.003906 15.351562 11.003906 15.339844 11.015625 C 15.132812 11.21875 14.679688 11.542969 14.140625 11.917969 C 12.75 12.894531 10.792969 14.277344 10.472656 15.445312 C 10.265625 16.1875 10.632812 16.8125 11.960938 17.175781 C 14.050781 18.066406 14.082031 15.835938 14.050781 15.226562 C 17.835938 11.992188 23.214844 9.296875 23.230469 9.296875 Z M 23.230469 9.296875 " fill-opacity="1" fill-rule="nonzero"/><path fill="#000000" d="M 8.863281 15.328125 C 9.039062 14.773438 9.359375 14.570312 9.550781 14.484375 C 9.566406 14.484375 9.566406 14.484375 9.582031 14.46875 C 9.726562 14.410156 9.785156 14.394531 9.902344 14.46875 C 9.917969 14.46875 9.929688 14.46875 9.929688 14.484375 C 10.046875 14.554688 10.0625 14.628906 10.078125 14.730469 C 10.078125 14.746094 10.078125 14.746094 10.078125 14.761719 C 10.164062 15.253906 10.238281 15.621094 10.324219 15.910156 C 10.429688 16.289062 10.53125 16.480469 10.589844 16.582031 C 10.71875 16.8125 10.601562 17.148438 10.355469 17.410156 C 10.238281 17.542969 10.078125 17.644531 9.917969 17.714844 C 9.726562 17.789062 9.523438 17.804688 9.332031 17.714844 C 9.054688 17.601562 8.847656 17.292969 8.777344 16.695312 C 8.703125 16.085938 8.761719 15.648438 8.863281 15.328125 Z M 8.863281 15.328125 " fill-opacity="1" fill-rule="nonzero"/></svg>