<svg xmlns="http://www.w3.org/2000/svg" xmlns:xlink="http://www.w3.org/1999/xlink" width="43" zoomAndPan="magnify" viewBox="0 0 32.25 32.249998" height="43" preserveAspectRatio="xMidYMid meet" version="1.0"><defs><clipPath id="1a19beec5a"><path d="M 5.277344 3.152344 L 26.535156 3.152344 L 26.535156 16 L 5.277344 16 Z M 5.277344 3.152344 " clip-rule="nonzero"/></clipPath><clipPath id="0bd8836faa"><path d="M 5.277344 15 L 26.535156 15 L 26.535156 28.070312 L 5.277344 28.070312 Z M 5.277344 15 " clip-rule="nonzero"/></clipPath></defs><g clip-path="url(#1a19beec5a)"><path fill="#000000" d="M 23.285156 5.984375 C 23.160156 5.347656 23.003906 4.730469 22.8125 4.140625 C 22.621094 3.546875 22.046875 3.148438 21.40625 3.148438 C 21.324219 3.148438 21.246094 3.15625 21.164062 3.171875 C 20.863281 3.222656 20.554688 3.265625 20.25 3.308594 L 20.25 6.910156 C 20.25 7.035156 20.199219 7.15625 20.105469 7.242188 L 18.179688 9.125 C 18.082031 9.214844 17.960938 9.261719 17.835938 9.261719 C 17.714844 9.261719 17.589844 9.214844 17.496094 9.125 C 17.308594 8.941406 17.308594 8.644531 17.496094 8.460938 L 19.285156 6.714844 L 19.285156 3.429688 C 18.175781 3.550781 17.050781 3.621094 15.90625 3.621094 C 14.597656 3.621094 13.3125 3.535156 12.046875 3.378906 L 12.046875 7.585938 L 13.0625 8.179688 C 13.3125 7.976562 13.628906 7.851562 13.976562 7.851562 C 14.777344 7.851562 15.425781 8.484375 15.425781 9.261719 C 15.425781 10.042969 14.777344 10.671875 13.976562 10.671875 C 13.179688 10.671875 12.53125 10.042969 12.53125 9.261719 C 12.53125 9.167969 12.539062 9.074219 12.558594 8.980469 L 11.316406 8.253906 C 11.171875 8.171875 11.082031 8.015625 11.082031 7.851562 L 11.082031 3.234375 C 10.9375 3.214844 10.792969 3.195312 10.648438 3.171875 C 10.570312 3.15625 10.488281 3.148438 10.40625 3.148438 C 9.765625 3.148438 9.191406 3.546875 9 4.140625 C 8.8125 4.730469 8.652344 5.347656 8.527344 5.984375 C 6.710938 6.109375 5.292969 7.109375 5.292969 8.320312 C 5.292969 9.46875 6.554688 10.421875 8.226562 10.628906 C 8.285156 11.601562 8.414062 12.539062 8.613281 13.429688 C 8.777344 14.160156 9.394531 14.710938 10.148438 14.847656 C 10.894531 14.988281 11.648438 15.089844 12.414062 15.175781 L 14.039062 12.324219 C 14.121094 12.175781 14.285156 12.082031 14.460938 12.082031 L 17.925781 12.082031 C 18.125 11.535156 18.652344 11.144531 19.28125 11.144531 C 20.082031 11.144531 20.730469 11.773438 20.730469 12.554688 C 20.730469 13.332031 20.082031 13.964844 19.28125 13.964844 C 18.652344 13.964844 18.125 13.570312 17.925781 13.023438 L 14.742188 13.023438 L 13.460938 15.273438 C 14.269531 15.335938 15.082031 15.375 15.90625 15.375 C 17.875 15.375 19.800781 15.195312 21.667969 14.851562 C 22.421875 14.710938 23.035156 14.160156 23.199219 13.429688 C 23.398438 12.539062 23.527344 11.601562 23.589844 10.628906 C 25.257812 10.421875 26.519531 9.46875 26.519531 8.324219 C 26.519531 7.109375 25.101562 6.109375 23.285156 5.984375 Z M 23.285156 5.984375 " fill-opacity="1" fill-rule="nonzero"/></g><g clip-path="url(#0bd8836faa)"><path fill="#000000" d="M 23.285156 18.679688 C 23.160156 18.042969 23.003906 17.425781 22.8125 16.839844 C 22.621094 16.242188 22.046875 15.84375 21.40625 15.84375 C 21.324219 15.84375 21.246094 15.851562 21.164062 15.867188 C 19.457031 16.160156 17.703125 16.316406 15.90625 16.316406 C 14.113281 16.316406 12.355469 16.160156 10.648438 15.867188 C 10.570312 15.851562 10.488281 15.84375 10.40625 15.84375 C 9.769531 15.84375 9.191406 16.242188 9.003906 16.839844 C 8.8125 17.425781 8.65625 18.042969 8.527344 18.679688 C 6.710938 18.804688 5.296875 19.804688 5.296875 21.019531 C 5.296875 22.164062 6.558594 23.117188 8.226562 23.324219 C 8.285156 24.296875 8.414062 25.234375 8.613281 26.125 C 8.777344 26.855469 9.394531 27.40625 10.148438 27.546875 C 10.773438 27.660156 11.410156 27.75 12.046875 27.828125 L 12.046875 24.222656 C 11.488281 24.027344 11.082031 23.511719 11.082031 22.898438 C 11.082031 22.121094 11.730469 21.488281 12.53125 21.488281 C 13.328125 21.488281 13.976562 22.121094 13.976562 22.898438 C 13.976562 23.511719 13.574219 24.027344 13.011719 24.222656 L 13.011719 27.9375 C 13.964844 28.027344 14.933594 28.070312 15.90625 28.070312 C 16.882812 28.070312 17.847656 28.027344 18.800781 27.9375 L 18.800781 25.25 C 18.800781 24.992188 19.015625 24.78125 19.285156 24.78125 C 19.550781 24.78125 19.765625 24.988281 19.765625 25.25 L 19.765625 27.828125 C 20.089844 27.789062 20.410156 27.746094 20.730469 27.695312 L 20.730469 25.25 C 20.730469 24.988281 20.945312 24.777344 21.214844 24.777344 C 21.480469 24.777344 21.695312 24.988281 21.695312 25.25 L 21.695312 27.539062 C 22.4375 27.390625 23.039062 26.84375 23.199219 26.125 C 23.398438 25.234375 23.53125 24.296875 23.589844 23.324219 C 25.257812 23.117188 26.519531 22.164062 26.519531 21.015625 C 26.519531 19.804688 25.105469 18.804688 23.289062 18.679688 Z M 18.800781 20.546875 C 18.578125 20.546875 18.371094 20.496094 18.179688 20.40625 L 17.355469 21.210938 L 17.355469 24.308594 C 17.355469 24.570312 17.136719 24.78125 16.871094 24.78125 C 16.605469 24.78125 16.390625 24.570312 16.390625 24.308594 L 16.390625 21.019531 C 16.390625 20.894531 16.441406 20.773438 16.53125 20.683594 L 17.5 19.742188 C 17.410156 19.558594 17.355469 19.355469 17.355469 19.136719 C 17.355469 18.359375 18.003906 17.726562 18.800781 17.726562 C 19.601562 17.726562 20.25 18.355469 20.25 19.136719 C 20.25 19.917969 19.601562 20.546875 18.800781 20.546875 Z M 18.800781 20.546875 " fill-opacity="1" fill-rule="nonzero"/></g></svg>