<svg xmlns="http://www.w3.org/2000/svg" xmlns:xlink="http://www.w3.org/1999/xlink" width="43" zoomAndPan="magnify" viewBox="0 0 32.25 32.249998" height="43" preserveAspectRatio="xMidYMid meet" version="1.0"><defs><clipPath id="1c045d0a1b"><path d="M 10 5.058594 L 12 5.058594 L 12 7 L 10 7 Z M 10 5.058594 " clip-rule="nonzero"/></clipPath><clipPath id="ce58b9606a"><path d="M 13 5.058594 L 15 5.058594 L 15 6 L 13 6 Z M 13 5.058594 " clip-rule="nonzero"/></clipPath><clipPath id="e58a94e969"><path d="M 15 5.058594 L 17 5.058594 L 17 6 L 15 6 Z M 15 5.058594 " clip-rule="nonzero"/></clipPath><clipPath id="1f6d9586fc"><path d="M 12 5.058594 L 13 5.058594 L 13 7 L 12 7 Z M 12 5.058594 " clip-rule="nonzero"/></clipPath><clipPath id="be05994f30"><path d="M 15 25 L 17 25 L 17 26.316406 L 15 26.316406 Z M 15 25 " clip-rule="nonzero"/></clipPath><clipPath id="3bac5d2705"><path d="M 13 25 L 15 25 L 15 26.316406 L 13 26.316406 Z M 13 25 " clip-rule="nonzero"/></clipPath><clipPath id="a2e1edefab"><path d="M 3.265625 5.058594 L 28.183594 5.058594 L 28.183594 26.316406 L 3.265625 26.316406 Z M 3.265625 5.058594 " clip-rule="nonzero"/></clipPath></defs><path fill="#000000" d="M 10.0625 23.804688 C 10.0625 23.910156 10.023438 24.003906 9.949219 24.078125 C 9.871094 24.152344 9.78125 24.191406 9.675781 24.191406 C 9.566406 24.191406 9.476562 24.152344 9.402344 24.078125 C 9.328125 24.003906 9.289062 23.910156 9.289062 23.804688 C 9.289062 23.699219 9.328125 23.609375 9.402344 23.53125 C 9.476562 23.457031 9.566406 23.417969 9.675781 23.417969 C 9.78125 23.417969 9.871094 23.457031 9.949219 23.53125 C 10.023438 23.609375 10.0625 23.699219 10.0625 23.804688 Z M 10.0625 23.804688 " fill-opacity="1" fill-rule="nonzero"/><path fill="#000000" d="M 7.4375 8.902344 C 7.53125 8.902344 7.628906 8.863281 7.707031 8.785156 C 7.746094 8.746094 7.804688 8.707031 7.839844 8.648438 C 7.996094 8.496094 7.996094 8.265625 7.839844 8.109375 C 7.6875 7.957031 7.457031 7.957031 7.300781 8.109375 C 7.261719 8.148438 7.203125 8.207031 7.167969 8.246094 C 7.011719 8.398438 7.011719 8.628906 7.167969 8.785156 C 7.242188 8.863281 7.339844 8.902344 7.4375 8.902344 Z M 7.4375 8.902344 " fill-opacity="1" fill-rule="nonzero"/><path fill="#000000" d="M 4.328125 13.1875 C 4.308594 13.246094 4.289062 13.320312 4.273438 13.378906 C 4.214844 13.59375 4.347656 13.785156 4.5625 13.84375 C 4.601562 13.84375 4.617188 13.863281 4.65625 13.863281 C 4.832031 13.863281 4.984375 13.746094 5.023438 13.574219 C 5.042969 13.515625 5.0625 13.457031 5.0625 13.398438 C 5.121094 13.1875 4.984375 12.992188 4.792969 12.9375 C 4.601562 12.859375 4.386719 12.992188 4.328125 13.1875 Z M 4.328125 13.1875 " fill-opacity="1" fill-rule="nonzero"/><path fill="#000000" d="M 6.21875 10.386719 C 6.335938 10.386719 6.472656 10.328125 6.546875 10.214844 C 6.585938 10.15625 6.625 10.117188 6.644531 10.058594 C 6.761719 9.886719 6.722656 9.652344 6.546875 9.519531 C 6.375 9.402344 6.144531 9.441406 6.007812 9.617188 C 5.96875 9.671875 5.929688 9.730469 5.890625 9.769531 C 5.777344 9.945312 5.816406 10.175781 5.988281 10.308594 C 6.066406 10.347656 6.144531 10.386719 6.21875 10.386719 Z M 6.21875 10.386719 " fill-opacity="1" fill-rule="nonzero"/><path fill="#000000" d="M 5.121094 12.007812 C 5.179688 12.027344 5.21875 12.046875 5.273438 12.046875 C 5.429688 12.046875 5.566406 11.972656 5.621094 11.816406 C 5.640625 11.757812 5.679688 11.699219 5.699219 11.640625 C 5.796875 11.449219 5.699219 11.21875 5.507812 11.140625 C 5.3125 11.042969 5.082031 11.140625 4.984375 11.332031 C 4.964844 11.390625 4.925781 11.449219 4.910156 11.507812 C 4.832031 11.699219 4.925781 11.933594 5.121094 12.007812 Z M 5.121094 12.007812 " fill-opacity="1" fill-rule="nonzero"/><g clip-path="url(#1c045d0a1b)"><path fill="#000000" d="M 10.601562 6.738281 C 10.660156 6.738281 10.71875 6.71875 10.753906 6.699219 C 10.8125 6.679688 10.871094 6.640625 10.929688 6.621094 C 11.121094 6.546875 11.21875 6.3125 11.121094 6.121094 C 11.046875 5.929688 10.8125 5.832031 10.621094 5.929688 C 10.5625 5.949219 10.503906 5.984375 10.445312 6.003906 C 10.253906 6.101562 10.15625 6.3125 10.253906 6.507812 C 10.3125 6.640625 10.445312 6.738281 10.601562 6.738281 Z M 10.601562 6.738281 " fill-opacity="1" fill-rule="nonzero"/></g><path fill="#000000" d="M 8.921875 7.683594 C 9 7.683594 9.078125 7.664062 9.132812 7.609375 C 9.191406 7.570312 9.230469 7.53125 9.289062 7.511719 C 9.460938 7.394531 9.519531 7.164062 9.386719 6.96875 C 9.269531 6.796875 9.019531 6.738281 8.84375 6.875 C 8.789062 6.914062 8.730469 6.953125 8.671875 6.988281 C 8.496094 7.105469 8.460938 7.355469 8.574219 7.53125 C 8.671875 7.625 8.804688 7.683594 8.921875 7.683594 Z M 8.921875 7.683594 " fill-opacity="1" fill-rule="nonzero"/><g clip-path="url(#ce58b9606a)"><path fill="#000000" d="M 14.324219 5.832031 C 14.324219 5.832031 14.34375 5.832031 14.34375 5.832031 C 14.402344 5.832031 14.460938 5.832031 14.539062 5.832031 C 14.75 5.832031 14.921875 5.636719 14.90625 5.445312 C 14.886719 5.214844 14.710938 5.058594 14.5 5.058594 C 14.441406 5.058594 14.363281 5.058594 14.304688 5.058594 C 14.09375 5.078125 13.941406 5.253906 13.941406 5.464844 C 13.941406 5.675781 14.113281 5.832031 14.324219 5.832031 Z M 14.324219 5.832031 " fill-opacity="1" fill-rule="nonzero"/></g><g clip-path="url(#e58a94e969)"><path fill="#000000" d="M 16.390625 5.929688 C 16.410156 5.929688 16.429688 5.929688 16.449219 5.929688 C 16.640625 5.929688 16.796875 5.792969 16.835938 5.601562 C 16.871094 5.386719 16.71875 5.195312 16.507812 5.15625 C 16.449219 5.15625 16.371094 5.136719 16.3125 5.136719 C 16.101562 5.117188 15.90625 5.253906 15.890625 5.464844 C 15.871094 5.675781 16.003906 5.871094 16.214844 5.890625 C 16.253906 5.910156 16.3125 5.929688 16.390625 5.929688 Z M 16.390625 5.929688 " fill-opacity="1" fill-rule="nonzero"/></g><g clip-path="url(#1f6d9586fc)"><path fill="#000000" d="M 12.414062 6.101562 C 12.453125 6.101562 12.472656 6.101562 12.511719 6.082031 C 12.570312 6.0625 12.628906 6.0625 12.683594 6.042969 C 12.898438 6.003906 13.03125 5.792969 12.976562 5.582031 C 12.9375 5.367188 12.722656 5.253906 12.511719 5.289062 C 12.453125 5.308594 12.375 5.328125 12.320312 5.328125 C 12.105469 5.386719 11.992188 5.582031 12.027344 5.792969 C 12.085938 5.984375 12.242188 6.101562 12.414062 6.101562 Z M 12.414062 6.101562 " fill-opacity="1" fill-rule="nonzero"/></g><path fill="#000000" d="M 21.253906 23.746094 C 21.3125 23.707031 21.351562 23.671875 21.40625 23.613281 C 21.5625 23.476562 21.582031 23.226562 21.445312 23.070312 C 21.3125 22.917969 21.058594 22.898438 20.90625 23.03125 C 20.867188 23.070312 20.808594 23.109375 20.769531 23.148438 C 20.617188 23.285156 20.597656 23.535156 20.730469 23.6875 C 20.808594 23.785156 20.925781 23.824219 21.023438 23.824219 C 21.078125 23.824219 21.175781 23.804688 21.253906 23.746094 Z M 21.253906 23.746094 " fill-opacity="1" fill-rule="nonzero"/><path fill="#000000" d="M 23.917969 18.476562 C 23.898438 18.535156 23.878906 18.59375 23.859375 18.652344 C 23.78125 18.84375 23.898438 19.074219 24.089844 19.132812 C 24.128906 19.152344 24.167969 19.152344 24.226562 19.152344 C 24.378906 19.152344 24.535156 19.054688 24.59375 18.902344 C 24.609375 18.84375 24.628906 18.785156 24.648438 18.707031 C 24.707031 18.515625 24.609375 18.285156 24.398438 18.226562 C 24.207031 18.167969 23.992188 18.265625 23.917969 18.476562 Z M 23.917969 18.476562 " fill-opacity="1" fill-rule="nonzero"/><path fill="#000000" d="M 22.351562 22.472656 C 22.46875 22.472656 22.566406 22.433594 22.644531 22.339844 C 22.679688 22.28125 22.71875 22.242188 22.777344 22.183594 C 22.914062 22.007812 22.875 21.777344 22.71875 21.644531 C 22.546875 21.507812 22.316406 21.546875 22.179688 21.699219 C 22.140625 21.738281 22.101562 21.796875 22.0625 21.835938 C 21.929688 21.992188 21.949219 22.242188 22.121094 22.375 C 22.179688 22.453125 22.257812 22.472656 22.351562 22.472656 Z M 22.351562 22.472656 " fill-opacity="1" fill-rule="nonzero"/><path fill="#000000" d="M 23.722656 20 C 23.53125 19.90625 23.300781 19.964844 23.203125 20.15625 C 23.164062 20.214844 23.144531 20.273438 23.105469 20.3125 C 23.007812 20.503906 23.066406 20.734375 23.261719 20.832031 C 23.316406 20.871094 23.375 20.890625 23.453125 20.890625 C 23.589844 20.890625 23.722656 20.8125 23.78125 20.695312 C 23.820312 20.640625 23.839844 20.582031 23.878906 20.523438 C 23.972656 20.347656 23.898438 20.117188 23.722656 20 Z M 23.722656 20 " fill-opacity="1" fill-rule="nonzero"/><path fill="#000000" d="M 25.113281 16.777344 C 25.152344 16.566406 24.996094 16.371094 24.785156 16.351562 C 24.574219 16.316406 24.378906 16.46875 24.339844 16.679688 C 24.339844 16.738281 24.320312 16.796875 24.320312 16.855469 C 24.28125 17.066406 24.4375 17.261719 24.648438 17.300781 C 24.667969 17.300781 24.6875 17.300781 24.707031 17.300781 C 24.902344 17.300781 25.054688 17.164062 25.09375 16.972656 C 25.09375 16.914062 25.09375 16.855469 25.113281 16.777344 Z M 25.113281 16.777344 " fill-opacity="1" fill-rule="nonzero"/><path fill="#000000" d="M 17.664062 25.714844 C 17.703125 25.714844 17.742188 25.714844 17.800781 25.695312 C 17.855469 25.679688 17.933594 25.660156 17.992188 25.640625 C 18.183594 25.5625 18.300781 25.351562 18.222656 25.15625 C 18.148438 24.964844 17.933594 24.867188 17.722656 24.925781 C 17.664062 24.945312 17.605469 24.964844 17.546875 24.984375 C 17.355469 25.058594 17.238281 25.273438 17.316406 25.464844 C 17.355469 25.621094 17.507812 25.714844 17.664062 25.714844 Z M 17.664062 25.714844 " fill-opacity="1" fill-rule="nonzero"/><g clip-path="url(#be05994f30)"><path fill="#000000" d="M 15.792969 26.179688 C 15.8125 26.179688 15.832031 26.179688 15.851562 26.179688 C 15.90625 26.160156 15.984375 26.160156 16.042969 26.140625 C 16.253906 26.101562 16.390625 25.910156 16.351562 25.695312 C 16.3125 25.484375 16.121094 25.351562 15.90625 25.386719 C 15.851562 25.40625 15.792969 25.40625 15.714844 25.425781 C 15.503906 25.464844 15.367188 25.660156 15.386719 25.871094 C 15.445312 26.042969 15.597656 26.179688 15.792969 26.179688 Z M 15.792969 26.179688 " fill-opacity="1" fill-rule="nonzero"/></g><path fill="#000000" d="M 19.421875 24.925781 C 19.476562 24.925781 19.554688 24.90625 19.613281 24.867188 C 19.671875 24.828125 19.730469 24.808594 19.785156 24.769531 C 19.960938 24.65625 20.039062 24.421875 19.921875 24.25 C 19.804688 24.074219 19.574219 24.015625 19.402344 24.113281 C 19.34375 24.152344 19.285156 24.171875 19.246094 24.210938 C 19.054688 24.308594 18.996094 24.558594 19.113281 24.730469 C 19.148438 24.867188 19.285156 24.925781 19.421875 24.925781 Z M 19.421875 24.925781 " fill-opacity="1" fill-rule="nonzero"/><g clip-path="url(#3bac5d2705)"><path fill="#000000" d="M 14.054688 26.296875 C 14.269531 26.296875 14.441406 26.121094 14.441406 25.929688 C 14.441406 25.714844 14.269531 25.542969 14.054688 25.542969 C 13.996094 25.542969 13.941406 25.542969 13.863281 25.542969 C 13.648438 25.523438 13.476562 25.695312 13.457031 25.910156 C 13.457031 26.121094 13.613281 26.296875 13.824219 26.316406 C 13.921875 26.296875 13.996094 26.296875 14.054688 26.296875 Z M 14.054688 26.296875 " fill-opacity="1" fill-rule="nonzero"/></g><g clip-path="url(#a2e1edefab)"><path fill="#000000" d="M 3.402344 17.570312 C 3.480469 17.648438 3.578125 17.703125 3.691406 17.703125 C 3.789062 17.703125 3.886719 17.664062 3.945312 17.609375 L 6.453125 15.386719 L 6.683594 15.65625 C 6.820312 15.8125 7.011719 15.890625 7.203125 15.910156 C 7.222656 15.910156 7.242188 15.910156 7.242188 15.910156 C 7.4375 15.910156 7.609375 15.851562 7.746094 15.714844 L 8.015625 15.484375 L 8.882812 16.429688 L 8.476562 16.796875 L 8.246094 16.527344 C 8.113281 16.371094 7.859375 16.351562 7.707031 16.488281 C 7.550781 16.625 7.53125 16.875 7.667969 17.027344 L 7.917969 17.300781 L 7.089844 18.03125 L 6.859375 17.761719 C 6.722656 17.609375 6.472656 17.589844 6.316406 17.722656 C 6.164062 17.859375 6.144531 18.109375 6.277344 18.265625 L 6.53125 18.535156 L 5.929688 19.054688 C 5.777344 19.191406 5.757812 19.441406 5.890625 19.597656 C 5.96875 19.671875 6.066406 19.730469 6.183594 19.730469 C 6.277344 19.730469 6.375 19.691406 6.433594 19.636719 L 7.03125 19.113281 L 7.589844 19.730469 L 5.410156 21.429688 C 5.238281 21.566406 5.21875 21.796875 5.351562 21.972656 C 5.488281 22.125 5.738281 22.164062 5.890625 22.027344 L 8.132812 20.3125 L 9.210938 21.527344 C 9.058594 21.664062 9.039062 21.914062 9.171875 22.066406 C 9.25 22.144531 9.347656 22.203125 9.460938 22.203125 C 9.558594 22.203125 9.65625 22.164062 9.714844 22.105469 L 10.3125 21.585938 C 10.464844 21.449219 10.484375 21.199219 10.351562 21.042969 C 10.214844 20.890625 9.964844 20.871094 9.808594 21.003906 L 8.710938 19.808594 L 9.578125 19.132812 L 10.582031 20.253906 C 10.425781 20.386719 10.40625 20.640625 10.542969 20.792969 C 10.621094 20.871094 10.71875 20.929688 10.832031 20.929688 C 10.929688 20.929688 11.027344 20.890625 11.082031 20.832031 L 11.683594 20.3125 C 11.835938 20.175781 11.855469 19.925781 11.71875 19.769531 C 11.585938 19.617188 11.335938 19.597656 11.179688 19.730469 L 10.214844 18.652344 L 14.304688 15.484375 L 15.039062 16.296875 C 14.886719 16.429688 14.867188 16.679688 15 16.835938 C 15.078125 16.914062 15.175781 16.972656 15.289062 16.972656 C 15.386719 16.972656 15.484375 16.933594 15.542969 16.875 L 16.140625 16.351562 C 16.292969 16.21875 16.3125 15.96875 16.179688 15.8125 C 16.042969 15.65625 15.792969 15.640625 15.636719 15.773438 L 14.941406 15 L 15.5625 14.519531 C 15.832031 14.324219 15.984375 13.921875 15.945312 13.574219 C 15.890625 13.207031 15.90625 12.859375 15.964844 12.53125 L 17.433594 14.171875 C 17.277344 14.308594 17.257812 14.558594 17.394531 14.710938 C 17.472656 14.789062 17.566406 14.847656 17.683594 14.847656 C 17.78125 14.847656 17.875 14.808594 17.933594 14.75 L 18.53125 14.230469 C 18.6875 14.09375 18.707031 13.84375 18.570312 13.6875 C 18.4375 13.535156 18.183594 13.515625 18.03125 13.648438 L 16.234375 11.660156 C 16.46875 11.140625 16.796875 10.675781 17.125 10.253906 C 17.683594 9.558594 18.050781 8.921875 18.242188 7.917969 C 18.472656 6.757812 18.765625 6.621094 19.035156 6.640625 C 19.207031 6.660156 19.382812 6.757812 19.496094 6.894531 C 19.554688 6.96875 19.613281 7.085938 19.574219 7.261719 L 19.015625 9.691406 C 18.917969 10.117188 19.113281 10.292969 19.226562 10.367188 C 19.34375 10.445312 19.59375 10.503906 19.921875 10.214844 L 23.78125 6.699219 C 23.957031 6.546875 24.226562 6.546875 24.398438 6.71875 C 24.496094 6.816406 24.554688 6.96875 24.535156 7.125 C 24.535156 7.183594 24.515625 7.296875 24.4375 7.375 L 20.675781 10.773438 C 20.519531 10.910156 20.5 11.160156 20.65625 11.3125 C 20.789062 11.46875 21.042969 11.488281 21.195312 11.332031 L 26.195312 6.777344 C 26.367188 6.621094 26.636719 6.621094 26.8125 6.796875 C 26.886719 6.875 26.925781 6.988281 26.925781 7.105469 C 26.925781 7.222656 26.867188 7.316406 26.792969 7.414062 L 21.792969 11.972656 C 21.640625 12.105469 21.621094 12.355469 21.773438 12.511719 C 21.851562 12.589844 21.949219 12.628906 22.0625 12.628906 C 22.160156 12.628906 22.257812 12.589844 22.335938 12.53125 L 26.539062 8.707031 C 26.714844 8.613281 27.003906 8.648438 27.160156 8.824219 C 27.3125 8.996094 27.3125 9.269531 27.121094 9.421875 L 22.933594 13.1875 C 22.777344 13.320312 22.757812 13.574219 22.914062 13.726562 C 23.046875 13.882812 23.300781 13.902344 23.453125 13.746094 L 26 11.429688 C 26.175781 11.277344 26.445312 11.277344 26.617188 11.449219 C 26.695312 11.527344 26.734375 11.640625 26.734375 11.757812 C 26.734375 11.875 26.675781 11.988281 26.597656 12.066406 L 24.339844 14.132812 L 24.28125 14.191406 C 24.070312 14.382812 23.878906 14.578125 23.664062 14.769531 C 23.007812 15.40625 22.371094 16.003906 21.621094 16.449219 C 21.003906 16.816406 20.210938 16.992188 19.285156 17.007812 C 19.246094 17.007812 19.1875 17.007812 19.128906 17.027344 L 18.550781 16.371094 C 18.417969 16.21875 18.164062 16.199219 18.011719 16.332031 C 17.855469 16.46875 17.835938 16.71875 17.972656 16.875 L 18.398438 17.355469 C 18.398438 17.355469 18.378906 17.375 18.378906 17.375 L 9.886719 25.464844 C 9.734375 25.621094 9.734375 25.851562 9.867188 26.007812 C 9.945312 26.082031 10.042969 26.121094 10.136719 26.121094 C 10.234375 26.121094 10.332031 26.082031 10.40625 26.007812 L 18.898438 17.917969 C 18.976562 17.839844 19.167969 17.761719 19.285156 17.761719 C 20.347656 17.742188 21.253906 17.511719 21.988281 17.085938 C 22.835938 16.605469 23.511719 15.949219 24.1875 15.3125 C 24.398438 15.117188 24.609375 14.90625 24.824219 14.710938 L 27.121094 12.609375 C 27.351562 12.394531 27.503906 12.085938 27.503906 11.777344 C 27.523438 11.46875 27.410156 11.160156 27.195312 10.929688 C 27.101562 10.832031 27.003906 10.753906 26.886719 10.695312 L 27.660156 10 C 28.144531 9.558594 28.179688 8.804688 27.738281 8.320312 C 27.621094 8.1875 27.488281 8.089844 27.332031 8.03125 L 27.351562 8.011719 C 27.582031 7.800781 27.71875 7.511719 27.738281 7.183594 C 27.757812 6.855469 27.640625 6.566406 27.429688 6.332031 C 26.984375 5.851562 26.214844 5.832031 25.730469 6.277344 L 25.265625 6.699219 C 25.210938 6.527344 25.113281 6.390625 24.996094 6.257812 C 24.554688 5.773438 23.78125 5.753906 23.300781 6.199219 L 19.902344 9.191406 L 20.289062 7.472656 C 20.367188 7.144531 20.308594 6.777344 20.078125 6.488281 C 19.824219 6.160156 19.441406 5.949219 19.054688 5.910156 C 17.820312 5.832031 17.546875 7.261719 17.453125 7.800781 C 17.296875 8.648438 16.96875 9.171875 16.488281 9.808594 C 16.253906 10.117188 15.925781 10.523438 15.65625 11.0625 L 15.425781 10.8125 C 15.578125 10.425781 15.523438 9.964844 15.234375 9.632812 C 15.039062 9.402344 14.75 9.269531 14.441406 9.269531 C 14.304688 9.269531 14.191406 9.269531 14.074219 9.304688 L 13.726562 8.921875 L 14.558594 8.1875 C 14.710938 8.050781 14.730469 7.800781 14.597656 7.644531 C 14.460938 7.492188 14.210938 7.472656 14.054688 7.609375 L 13.226562 8.339844 L 12.957031 8.089844 C 12.820312 7.9375 12.570312 7.917969 12.414062 8.050781 C 12.261719 8.1875 12.242188 8.4375 12.375 8.59375 L 12.628906 8.863281 L 10.832031 10.464844 L 10.601562 10.195312 C 10.464844 10.039062 10.214844 10.019531 10.0625 10.15625 C 9.90625 10.292969 9.886719 10.542969 10.023438 10.695312 L 10.273438 10.96875 L 7.339844 13.554688 L 7.109375 13.285156 C 6.972656 13.128906 6.722656 13.109375 6.566406 13.246094 C 6.414062 13.378906 6.394531 13.632812 6.53125 13.785156 L 6.78125 14.054688 L 3.441406 17.027344 C 3.269531 17.164062 3.269531 17.414062 3.402344 17.570312 Z M 8.1875 19.230469 L 7.609375 18.574219 L 8.441406 17.839844 L 9.078125 18.554688 Z M 14.113281 10.117188 C 14.171875 10.058594 14.269531 10.019531 14.34375 10.019531 C 14.34375 10.019531 14.363281 10.019531 14.363281 10.019531 C 14.460938 10.019531 14.558594 10.058594 14.613281 10.136719 C 14.75 10.292969 14.730469 10.523438 14.597656 10.636719 C 14.519531 10.695312 14.421875 10.734375 14.324219 10.734375 C 14.230469 10.734375 14.132812 10.695312 14.074219 10.621094 C 13.957031 10.484375 13.976562 10.253906 14.113281 10.117188 Z M 13.148438 9.441406 L 13.4375 9.75 C 13.148438 10.175781 13.167969 10.734375 13.535156 11.140625 C 13.726562 11.371094 14.015625 11.507812 14.324219 11.507812 C 14.34375 11.507812 14.363281 11.507812 14.382812 11.507812 C 14.578125 11.507812 14.75 11.449219 14.90625 11.371094 L 15.328125 11.855469 C 15.175781 12.375 15.078125 12.992188 15.175781 13.6875 C 15.195312 13.765625 15.136719 13.902344 15.078125 13.941406 L 14.421875 14.460938 L 13.304688 13.226562 C 13.515625 12.820312 13.476562 12.300781 13.148438 11.953125 C 12.957031 11.71875 12.664062 11.585938 12.355469 11.585938 C 12.183594 11.585938 12.027344 11.605469 11.875 11.660156 L 11.355469 11.082031 Z M 12.53125 12.9375 C 12.453125 12.992188 12.375 13.03125 12.261719 13.03125 C 12.164062 13.03125 12.066406 12.992188 12.011719 12.917969 C 11.875 12.761719 11.894531 12.53125 12.027344 12.414062 C 12.085938 12.355469 12.183594 12.316406 12.261719 12.316406 C 12.261719 12.316406 12.28125 12.316406 12.28125 12.316406 C 12.375 12.316406 12.472656 12.355469 12.53125 12.433594 C 12.703125 12.570312 12.683594 12.800781 12.53125 12.9375 Z M 8.941406 13.648438 L 8.691406 13.378906 L 10.753906 11.546875 L 11.277344 12.144531 C 11.0625 12.550781 11.101562 13.070312 11.429688 13.417969 C 11.625 13.648438 11.914062 13.785156 12.222656 13.785156 C 12.242188 13.785156 12.261719 13.785156 12.28125 13.785156 C 12.433594 13.785156 12.570312 13.765625 12.703125 13.707031 L 13.785156 14.90625 L 9.675781 18.089844 L 9 17.335938 L 9.40625 16.972656 C 9.714844 16.699219 9.753906 16.21875 9.460938 15.910156 L 8.59375 14.945312 L 8.863281 14.710938 C 9.191406 14.441406 9.210938 13.960938 8.941406 13.648438 Z M 7.957031 14.035156 L 8.132812 13.882812 L 8.363281 14.132812 L 7.28125 15.117188 L 7.03125 14.847656 Z M 7.957031 14.035156 " fill-opacity="1" fill-rule="nonzero"/></g><path fill="#000000" d="M 11.199219 23.089844 L 14.75 20.078125 C 14.90625 19.945312 14.921875 19.691406 14.789062 19.539062 C 14.652344 19.382812 14.402344 19.363281 14.25 19.5 L 10.699219 22.511719 C 10.542969 22.648438 10.523438 22.898438 10.660156 23.050781 C 10.792969 23.207031 11.046875 23.226562 11.199219 23.089844 Z M 11.199219 23.089844 " fill-opacity="1" fill-rule="nonzero"/></svg>