<?xml version="1.0" encoding="UTF-8"?>
<!DOCTYPE svg PUBLIC "-//W3C//DTD SVG 1.1//EN" "http://www.w3.org/Graphics/SVG/1.1/DTD/svg11.dtd">
<!-- Creator: CorelDRAW (Evaluation Version) -->
<svg xmlns="http://www.w3.org/2000/svg" xml:space="preserve" width="88.9mm" height="50.8mm" version="1.1" style="shape-rendering:geometricPrecision; text-rendering:geometricPrecision; image-rendering:optimizeQuality; fill-rule:evenodd; clip-rule:evenodd"
viewBox="0 0 8890 5080"
 xmlns:xlink="http://www.w3.org/1999/xlink"
 xmlns:xodm="http://www.corel.com/coreldraw/odm/2003">
 <defs>
  <style type="text/css">
   <![CDATA[
    .fil3 {fill:white}
    .fil1 {fill:#01A459}
    .fil0 {fill:#0B5CA0;fill-rule:nonzero}
    .fil2 {fill:#0082C7;fill-rule:nonzero}
   ]]>
  </style>
 </defs>
 <g id="Layer_x0020_1">
  <metadata id="CorelCorpID_0Corel-Layer"/>
  <path class="fil0" d="M2789.66 1698.89l0 -48.19c120.91,4.46 215.72,6.69 284.21,6.69l219.96 -2.67c65.59,0 117.12,6.91 155.27,20.97 37.92,13.83 68.7,39.48 92.35,76.51 23.43,37.04 35.25,81.88 35.25,134.75 0,84.55 -28.78,154.37 -86.33,209.03 -57.56,54.65 -136.31,82.09 -236.25,82.09 -31.01,0 -69.6,-3.79 -115.78,-11.15 1.78,116.67 2.68,184.26 2.68,202.56l-2.01 47.51c0,41.94 3.57,66.93 10.48,75.18 11.38,14.06 51.76,24.99 121.36,33.24 8.03,0.89 19.63,2.46 35.47,4.69l0 48.18c-124.92,-4.46 -215.27,-6.69 -270.82,-6.69 -64.25,0 -146.12,2.23 -245.84,6.69l0 -48.18c76.74,-13.61 119.57,-24.1 128.5,-32.13 9.14,-7.81 14.27,-22.31 16.06,-43.72 1.78,-21.42 3.57,-139.65 5.35,-354.48l-1.34 -198.1c-0.89,-79.86 -2.67,-126.71 -5.35,-140.76 -2.45,-13.84 -8.25,-23.87 -16.73,-29.9 -11.38,-8.03 -43.95,-16.95 -97.71,-26.99 -6.69,-0.67 -16.29,-2.45 -28.78,-5.13zm349.35 393.52c26.55,2.67 49.3,4.01 68.49,4.01 50.41,0 89.68,-15.39 118.01,-46.4 28.33,-31.01 42.38,-78.97 42.38,-143.89 0,-57.55 -13.83,-101.05 -41.71,-130.72 -27.89,-29.67 -67.37,-44.4 -118.68,-44.4 -19.64,0 -42.39,2.23 -68.49,6.47l0 354.93zm488.55 -393.52l0 -48.19c111.32,4.46 198.1,6.69 260.34,6.69 63.35,0 147.9,-2.23 253.64,-6.69l0 48.19c-89.68,13.61 -138.53,22.31 -146.34,26.1 -13.16,7.36 -19.63,26.32 -19.63,56.89l-2.68 167.98 0 544.1 238.92 0c39.49,0 65.59,-2.68 78.75,-7.81 18.07,-7.36 35.25,-20.75 51.98,-39.71 16.51,-19.18 45.96,-63.58 87.9,-133.18l59.11 0c-29.22,80.53 -57.78,168.87 -85.66,265.02 -185.38,-4.46 -339.53,-6.69 -462.45,-6.69 -100.61,0 -205.24,2.23 -313.88,6.69l0 -48.18c76.96,-15.17 119.35,-25.66 127.16,-31.46 7.58,-5.58 12.49,-16.06 14.5,-31.68 2.01,-15.39 2.9,-120.01 2.9,-313.65l0 -238.03 0 -41.72c0,-69.82 -2.46,-111.76 -7.14,-125.59 -3.57,-10.49 -9.37,-17.85 -17.85,-21.87 -8.48,-4.23 -48.41,-13.16 -119.57,-27.21zm892.78 0l0 -48.19c105.07,4.46 219.29,6.69 342.43,6.69 143,0 290.23,-2.23 441.93,-6.69 1.34,91.47 7.14,170.88 17.4,238.26l-55.99 0c-5.13,-13.84 -8.93,-24.54 -11.16,-31.91 -21.64,-62.24 -38.37,-98.38 -50.64,-108.41 -12.49,-10.04 -39.93,-14.95 -82.98,-14.95l-251.64 0c-3.13,73.39 -5.13,180.03 -6.03,319.9l114.45 1.34c59.56,0 96.37,-5.8 110.2,-17.4 13.83,-11.38 28.33,-50.2 43.72,-116.45l54.88 0c-4.46,64.02 -6.69,120.46 -6.69,169.32 0,46.62 2.23,104.85 6.69,174.67l-54.88 0c-12.27,-70.27 -24.09,-110.42 -35.47,-120.91 -11.37,-10.48 -45.95,-15.61 -103.28,-15.61l-128.95 0 0 365.41 261.23 0c29.01,0 48.19,-1.79 57.78,-5.36 15.4,-5.57 29.23,-15.84 41.94,-30.34 26.77,-29.44 58,-75.84 93.92,-139.65l57.78 0c-25.21,71.84 -52.43,158.39 -81.65,259.67 -148.8,-4.46 -304.06,-6.69 -466.24,-6.69 -73.84,0 -176.69,2.23 -308.75,6.69l0 -48.18c71.83,-13.17 112.88,-23.65 123.14,-31.46 14.28,-10.04 21.42,-35.25 21.42,-75.85l0 -22.08 2.67 -259 0 -209.25 -2.67 -96.82c0,-46.63 -2.46,-75.63 -7.14,-87 -4.69,-11.38 -13.83,-20.3 -27.44,-26.77 -13.61,-6.7 -50.19,-14.28 -109.98,-22.98zm2061.06 0l0 -48.19c101.95,4.46 183.6,6.69 244.95,6.69 61.35,0 142.1,-2.23 242.27,-6.69l0 48.19c-63.81,10.48 -103.74,19.41 -119.8,26.77 -10.48,4.46 -17.4,10.71 -20.97,18.96 -4.24,10.93 -6.47,39.71 -6.47,86.33l0 334.85c0,86.33 4.69,145.01 14.28,176.01 12.27,41.05 35.69,73.84 70.49,98.83 34.8,24.76 84.11,37.26 147.68,37.26 70.05,0 122.92,-14.28 158.62,-42.84 35.69,-28.55 58.44,-66.25 68.71,-112.88 10.26,-46.62 15.39,-126.71 15.39,-240.03 0,-26.11 -1.79,-99.95 -5.13,-221.08 -2.23,-67.15 -5.58,-106.63 -9.82,-118.46 -2.67,-6.91 -7.36,-12.27 -13.83,-16.28 -8.25,-5.58 -36.58,-13.16 -84.99,-22.31 -5.58,-1.12 -14.06,-2.9 -25.44,-5.13l0 -48.19c91.92,4.46 157.28,6.69 195.65,6.69 45.28,0 104.63,-2.23 177.8,-6.69l0 48.19c-66.26,12.27 -104.63,22.08 -115.11,29.45 -10.49,7.36 -16.74,18.29 -18.97,32.79 -3.79,24.31 -6.47,135.41 -7.8,332.84 -0.9,113.32 -3.8,187.83 -8.48,223.08 -7.36,48.41 -19.19,87.67 -35.7,118.01 -16.28,30.34 -40.15,58.45 -71.83,84.11 -31.45,25.87 -66.48,44.61 -104.85,56.21 -50.41,15.4 -104.4,22.98 -161.96,22.98 -97.04,0 -174.22,-14.05 -231.33,-42.16 -57.11,-28.11 -96.82,-64.92 -119.13,-110.65 -22.53,-45.51 -33.69,-112.21 -33.69,-199.88l0 -404.23c0,-51.76 -2.67,-84.55 -7.8,-98.16 -4.02,-8.7 -10.71,-15.17 -20.53,-19.63 -9.81,-4.24 -47.29,-12.49 -112.21,-24.76zm1706.59 216.84l-65.59 0c-14.28,-83.22 -36.14,-139.21 -65.36,-167.54 -29.23,-28.33 -68.71,-42.61 -118.91,-42.61 -44.84,0 -79.64,11.6 -104.84,35.02 -24.99,23.21 -37.48,53.1 -37.48,89.24 0,32.12 11.6,61.35 34.58,87.45 23.2,26.54 78.07,59.56 164.63,98.82 86.56,39.04 147.24,80.54 181.59,124.04 34.36,44.17 51.53,98.6 51.53,163.52 0,78.3 -29.44,147.01 -88.56,206.13 -58.9,59.11 -154.15,88.56 -285.77,88.56 -47.07,0 -91.47,-3.57 -133.18,-10.48 -31.9,-4.69 -71.17,-14.73 -118.24,-29.9 7.59,-76.52 11.38,-152.14 11.38,-226.43l0 -43.72 65.59 0c16.28,86.55 36.58,144.33 60.9,173.56 32.12,39.48 76.96,59.34 134.52,59.34 45.51,0 82.32,-13.83 109.76,-41.27 27.66,-27.44 41.49,-62.69 41.49,-105.3 0,-26.99 -5.8,-51.08 -17.18,-72.05 -11.6,-20.97 -28.78,-39.94 -51.53,-56.89 -22.75,-16.96 -64.03,-39.49 -124.03,-67.37 -91.91,-43.73 -153.49,-85.89 -184.72,-126.49 -31.23,-40.16 -46.85,-87.45 -46.85,-141.88 0,-80.31 29.68,-146.79 88.79,-199.66 59.34,-52.87 144.78,-79.2 256.32,-79.2 74.07,0 154.38,14.06 241.16,42.39 -1.79,68.49 -2.68,116 -2.68,142.55 0,31.01 0.89,64.47 2.68,100.17z"/>
  <polygon class="fil1" points="2757.78,3608.96 5532.81,3580.61 5533.07,3580.61 5533.31,3580.61 8308.35,3608.96 8308.35,3621.87 5533.31,3656.2 5533.31,3656.21 5533.07,3656.21 5532.81,3656.21 5532.81,3656.2 2757.78,3621.87 "/>
  <path class="fil0" d="M3165.25 3816c0,-1.12 0.53,-1.72 1.71,-1.72l96.2 0c1.12,0 1.72,0.6 1.72,1.72l0 9.17c0,1.18 -0.6,1.77 -1.72,1.77l-31.89 2.96c-1.18,0 -1.77,0.54 -1.77,1.72l0 203.46c0,1.18 0.59,1.77 1.77,1.77l82.3 0c1.18,0 1.77,-0.47 1.77,-1.42l7.1 -39.52c0,-0.89 0.59,-1.36 1.72,-1.36l13.19 0c1.12,0 1.71,0.53 1.71,1.72l0 55.13c0,1.13 -0.59,1.72 -1.71,1.72l-170.39 0c-1.18,0 -1.71,-0.59 -1.71,-1.72l0 -9.22c0,-1.25 0.53,-1.9 1.71,-1.9l29.82 -2.78c1.13,0 1.72,-0.53 1.72,-1.71l0 -204.17c0,-1.18 -0.59,-1.72 -1.72,-1.72l-29.82 -2.96c-1.18,0 -1.71,-0.59 -1.71,-1.77l0 -9.17zm380.97 93.77c-18.46,0 -30.41,10.3 -35.85,30.88 -1.6,6.1 -2.67,12.13 -3.14,17.99l72.47 0c1.07,-32.54 -10.11,-48.87 -33.48,-48.87zm-39.34 62.77c0.47,19.29 4.97,34.67 13.54,46.09 9.83,13.07 23.96,19.58 42.48,19.58 14.79,0 28.64,-4.02 41.59,-12.13 0.48,-0.47 0.83,-0.59 1.19,-0.35 0.23,0.35 0.53,0.71 0.88,1.06l5.03 8.64c0.24,1.07 -0.12,1.83 -1.06,2.43 -20.18,13.54 -40.65,20.29 -61.35,20.29 -23.08,0 -41.3,-7.16 -54.61,-21.48 -13.01,-13.9 -19.58,-32.42 -19.58,-55.67 0,-23.78 6.39,-43.84 19.11,-60.11 13.84,-17.92 32.36,-26.91 55.43,-26.91 20.47,0 36.03,5.85 46.62,17.51 10.3,11.36 15.44,27.27 15.44,47.86 0,3.73 -0.23,7.51 -0.71,11.42 0,1.18 -0.53,1.77 -1.71,1.77l-102.29 0zm263 -53.89c0,-1.19 -0.65,-1.78 -1.89,-1.78l-20.47 0c-1.07,0 -1.54,-0.53 -1.54,-1.54l0 -1.71c0,-0.71 0.36,-1.42 1.18,-2.13l45.44 -45.73c1.01,-1.07 1.95,-1.54 2.78,-1.54l1.72 0c1,0 1.53,0.59 1.53,1.89l0 32.6c0,1.12 0.6,1.71 1.78,1.71l47.09 0c1.19,0 1.78,0.65 1.78,1.9l0 12.66c0,1.24 -0.59,1.89 -1.78,1.89l-47.09 0c-1.18,0 -1.78,0.59 -1.78,1.78l0 94.42c0,16.98 7.58,25.5 22.72,25.5 11.12,0 20.06,-2.84 26.86,-8.52 0.48,-0.42 1.07,-0.59 1.72,-0.48 0.47,0.06 0.89,0.24 1.24,0.48l4.5 8.87c0.23,1.01 -0.12,1.84 -1.01,2.43 -9.17,6.09 -17.04,10.29 -23.6,12.48 -8.76,2.9 -17.75,4.32 -26.86,4.32 -9.71,0 -17.87,-3.02 -24.44,-8.99 -6.57,-6.04 -9.88,-13.85 -9.88,-23.43l0 -107.08zm225.32 -40.23c-0.47,-0.95 -0.35,-1.54 0.36,-1.72 6.8,-3.85 12.24,-7.93 16.27,-12.25 4.08,-4.32 6.09,-9.88 6.09,-16.56 0,-5.86 -1.6,-10.77 -4.85,-14.73 -3.25,-3.91 -8.28,-5.86 -15.09,-5.86 -1.42,-1.66 -2.54,-2.96 -3.37,-4.02 -0.89,-1.01 -1.3,-2.9 -1.3,-5.56 0,-4.97 1.6,-8.7 4.85,-11.3 3.25,-2.61 6.86,-3.91 10.89,-3.91 3.25,0 6.62,0.71 10.05,2.13 3.49,1.48 6.63,3.61 9.47,6.45 2.84,2.84 5.09,6.39 6.86,10.65 1.72,4.26 2.61,9.11 2.61,14.55 0,6.33 -1.07,12.13 -3.14,17.34 -2.07,5.2 -4.91,9.94 -8.52,14.2 -3.55,4.26 -7.63,7.86 -12.3,10.82 -4.62,2.96 -9.41,5.39 -14.38,7.22 -0.24,0 -0.47,-0.06 -0.71,-0.18 -0.18,-0.12 -0.42,-0.29 -0.65,-0.53l-3.14 -6.74zm272.47 65.31c-1.12,-0.35 -1.71,-0.77 -1.71,-1.36l-5.74 -27.75c0,-0.88 -0.48,-1.59 -1.36,-2.07 -5.8,-2.66 -12.31,-3.96 -19.59,-3.96 -12.48,0 -21.12,4.2 -25.85,12.66 -1.72,3.08 -2.6,6.51 -2.6,10.17 0,10.77 8.58,19.59 25.67,26.57l14.91 6.03c25.97,10.65 38.99,25.09 38.99,43.37 0,15.79 -6.57,28.45 -19.76,37.92 -11.77,8.58 -25.91,12.84 -42.3,12.84 -11.89,0 -25.85,-2.72 -41.95,-8.17 -1.12,-0.23 -1.71,-0.82 -1.71,-1.89l0 -41.06c0,-0.94 0.59,-1.42 1.71,-1.42l10.95 0c1.24,0 1.89,0.48 1.89,1.42l5.56 28.4c0.12,0.47 0.59,1.18 1.54,2.07 8.11,3.85 16.45,5.74 25.14,5.74 20.36,0 30.47,-8.58 30.47,-25.68 0,-10.05 -5.14,-17.51 -15.56,-22.48 -1.71,-0.83 -4.91,-2.3 -9.52,-4.38l-15.97 -6.39c-25.09,-10.05 -37.63,-24.84 -37.63,-44.37 0,-13.84 6.27,-25.32 18.75,-34.31 10.71,-7.75 23.61,-11.65 38.64,-11.65 12.24,0 24.9,2.18 37.98,6.44 1.24,0.24 1.89,0.89 1.89,1.9l0 40.05c0,0.95 -0.65,1.36 -1.89,1.36l-10.95 0zm385 -134.83c4.26,0 9.11,0.3 14.56,0.89 5.44,0.53 10.88,1.3 16.44,2.13 5.56,0.89 11.01,1.83 16.39,2.9 5.38,1 10,1.89 13.96,2.6 1.25,0.18 1.9,0.77 1.9,1.72l0 53.71c0,1.19 -0.65,1.72 -1.9,1.72l-13.72 0c-0.53,0 -1.01,-0.12 -1.36,-0.3 -0.36,-0.23 -0.54,-0.59 -0.54,-1.06l-7.1 -39.88c0,-0.71 -0.47,-1.24 -1.36,-1.71 -2.13,-0.47 -4.73,-1.13 -7.98,-1.89 -3.26,-0.83 -6.57,-1.6 -10,-2.37 -3.37,-0.77 -6.92,-1.36 -10.53,-1.83 -3.67,-0.42 -7.16,-0.66 -10.53,-0.66 -15.8,0 -29.88,2.43 -42.18,7.28 -12.31,4.85 -22.66,11.72 -31.12,20.59 -8.4,8.93 -14.85,19.58 -19.23,32.01 -4.38,12.42 -6.57,26.09 -6.57,40.99 0,15.56 2.31,30.35 6.92,44.38 4.62,13.96 11.19,26.26 19.76,36.91 8.52,10.59 18.88,18.99 30.95,25.09 12.06,6.15 25.43,9.23 40.11,9.23 2.54,0 5.68,-0.12 9.34,-0.36 3.73,-0.23 7.4,-0.59 11.01,-1.06 3.67,-0.42 7.28,-1.01 10.83,-1.72 3.6,-0.71 6.68,-1.71 9.22,-3.13 0.89,-0.54 1.36,-1.19 1.36,-1.9l7.1 -40.05c0,-0.24 0.18,-0.47 0.54,-0.83 0.35,-0.35 0.83,-0.53 1.36,-0.53l13.72 0c1.25,0 1.9,0.59 1.9,1.72l0 53.54c0,0.71 -0.65,1.3 -1.9,1.77 -3.96,1.01 -8.28,2.07 -13.01,3.08 -4.74,1.06 -9.88,2.07 -15.5,2.96 -5.62,0.94 -11.66,1.71 -18.11,2.36 -6.5,0.65 -13.66,0.95 -21.53,0.95 -12.9,0 -25.09,-1.42 -36.44,-4.26 -11.42,-2.84 -21.89,-6.92 -31.48,-12.31 -9.58,-5.38 -18.1,-11.77 -25.56,-19.22 -7.45,-7.46 -13.72,-15.74 -18.81,-24.79 -5.09,-9.05 -9.05,-18.99 -11.89,-29.82 -2.84,-10.83 -4.2,-22.01 -4.2,-33.54 0,-13.26 1.6,-25.56 4.91,-36.92 3.31,-11.3 7.99,-21.65 14.02,-31 6.09,-9.35 13.25,-17.63 21.53,-24.73 8.23,-7.1 17.34,-13.08 27.28,-17.93 9.94,-4.85 20.65,-8.52 32.18,-11 11.48,-2.49 23.25,-3.73 35.26,-3.73zm293.48 170.39c-12.13,0.71 -21.3,2.01 -27.39,3.96 -1.6,0.47 -4.44,1.42 -8.52,2.78 -12.25,4.14 -18.34,13.31 -18.34,27.39 0,15.15 7.57,22.72 22.72,22.72 4.38,0 9.7,-1.12 15.91,-3.31 3.14,-1.13 7.75,-3.26 13.91,-6.39 1.12,-0.83 1.71,-1.54 1.71,-2.07l0 -45.08zm2.43 58.21c-14.91,13.79 -31.06,20.65 -48.52,20.65 -18.16,0 -30.4,-7.46 -36.79,-22.36 -2.07,-4.86 -3.08,-10.06 -3.08,-15.62 0,-19.53 9.94,-33.84 29.82,-42.95 5.97,-2.79 12.13,-4.8 18.34,-6.1 13.9,-2.9 26.44,-4.79 37.8,-5.68l0 -27.39c0,-18.4 -9.05,-27.57 -27.04,-27.57 -10.29,0 -19.22,1.84 -26.85,5.56 -0.71,0.53 -1.31,1.54 -1.78,2.9l-5.03 26.21c0,1.01 -0.53,1.54 -1.71,1.54l-11.07 0c-1.18,0 -1.77,-0.53 -1.77,-1.54l0 -39.34c0,-0.71 0.59,-1.3 1.77,-1.78 18.7,-6.68 36.45,-10.05 53.19,-10.05 23.66,0 39.05,7.15 46.09,21.35 2.66,5.33 4.02,12.07 4.02,20.29l0 95.85c0,0.88 0.47,1.59 1.36,2.07l22.36 6.39c1.19,0.71 1.78,1.3 1.9,1.77l0 6.04c-0.42,1.3 -0.95,1.89 -1.54,1.89l-46.8 6.27c-1.18,0 -1.71,-0.59 -1.71,-1.72l-2.96 -16.68zm285.66 -143.52c3.55,0 8.05,1.12 13.31,3.31 5.33,2.19 9.29,4.55 11.83,7.1 0.3,0.23 0.6,0.71 0.83,1.42 0.24,0.65 0.12,1.24 -0.35,1.71l-17.46 24.97c-0.82,1.12 -1.47,1.72 -1.95,1.72 -0.35,0 -0.59,-0.12 -0.83,-0.36 -5.2,-5.21 -10.94,-7.75 -17.15,-7.75 -7.75,0 -14.62,3.37 -20.47,10.18l-10.41 12.12c-0.95,1.07 -1.37,2.31 -1.37,3.85l0 84.25c0,1 0.54,1.59 1.72,1.71l30.17 2.43c1.24,0.12 1.9,0.77 1.9,1.89l0 8.87c0,1.13 -0.66,1.72 -1.9,1.72l-87.2 0c-1.24,0 -1.9,-0.59 -1.9,-1.72l0 -8.87c0,-1.24 0.66,-1.89 1.9,-1.89l24.79 -2.43c1.18,0 1.71,-0.59 1.71,-1.71l0 -117.2c0,-1.13 -0.53,-1.72 -1.71,-1.72l-25.5 -2.96c-1.24,0 -1.89,-0.59 -1.89,-1.71l0 -8.17c0,-1.12 0.47,-1.71 1.41,-1.71l42.6 -7.1c1.3,-0.24 2.01,-0.36 2.25,-0.36l9.88 0c1.18,0 1.77,0.59 1.77,1.72l0 32.95 18.88 -22.01c8.1,-9.46 16.44,-14.25 25.14,-14.25zm223.07 15.79c-18.46,0 -30.41,10.3 -35.85,30.88 -1.6,6.1 -2.67,12.13 -3.14,17.99l72.47 0c1.07,-32.54 -10.11,-48.87 -33.48,-48.87zm-39.34 62.77c0.47,19.29 4.97,34.67 13.54,46.09 9.83,13.07 23.96,19.58 42.48,19.58 14.79,0 28.64,-4.02 41.59,-12.13 0.48,-0.47 0.83,-0.59 1.19,-0.35 0.23,0.35 0.53,0.71 0.88,1.06l5.03 8.64c0.24,1.07 -0.12,1.83 -1.06,2.43 -20.18,13.54 -40.65,20.29 -61.35,20.29 -23.08,0 -41.3,-7.16 -54.61,-21.48 -13.01,-13.9 -19.58,-32.42 -19.58,-55.67 0,-23.78 6.39,-43.84 19.11,-60.11 13.84,-17.92 32.36,-26.91 55.43,-26.91 20.47,0 36.03,5.85 46.62,17.51 10.3,11.36 15.44,27.27 15.44,47.86 0,3.73 -0.23,7.51 -0.71,11.42 0,1.18 -0.53,1.77 -1.71,1.77l-102.29 0zm529.58 -158.26c1.13,0 1.72,0.6 1.72,1.72l0 55.67c0,1.24 -0.59,1.89 -1.72,1.89l-13.19 0c-1.13,0 -1.72,-0.47 -1.72,-1.42l-7.1 -40.17c0,-0.94 -0.59,-1.42 -1.77,-1.42l-57.51 0c-0.94,0 -1.42,0.6 -1.42,1.78l0 203.46c0,1.06 0.6,1.59 1.78,1.71l33.6 2.78c1.24,0.12 1.9,0.77 1.9,1.9l0 9.22c0,1.13 -0.66,1.72 -1.9,1.72l-101.76 0c-1.24,0 -1.89,-0.59 -1.89,-1.72l0 -9.22c0,-1.13 0.65,-1.78 1.89,-1.9l33.67 -2.78c1.12,-0.12 1.71,-0.65 1.71,-1.71l0 -203.46c0,-1.18 -0.47,-1.78 -1.42,-1.78l-57.5 0c-1.19,0 -1.72,0.48 -1.72,1.42l-7.16 40.17c0,0.95 -0.53,1.42 -1.71,1.42l-13.19 0c-1.13,0 -1.72,-0.65 -1.72,-1.89l0 -55.67c0,-1.12 0.59,-1.72 1.72,-1.72l196.41 0zm211.48 95.14c-15.38,0 -26.74,6.5 -34.13,19.4 -5.92,10.3 -8.88,23.73 -8.88,40.23 0,33.19 8.93,55.61 26.74,67.45 6.45,4.26 14.26,6.39 23.37,6.39 28.52,0 42.83,-20.06 42.83,-60.17 0,-19.7 -3.37,-35.97 -10.05,-48.69 -8.58,-16.39 -21.83,-24.61 -39.88,-24.61zm4.5 -15.44c24.96,0 44.25,7.33 57.92,21.88 13.25,14.2 19.88,33.9 19.88,59.11 0,24.14 -7.16,43.95 -21.48,59.45 -14.79,15.8 -34.14,23.73 -58.04,23.73 -24.73,0 -43.95,-7.4 -57.74,-22.19 -13.49,-14.31 -20.29,-33.9 -20.29,-58.74 0,-24.5 7.16,-44.38 21.36,-59.64 14.67,-15.74 34.13,-23.6 58.39,-23.6zm265.73 169.02c-6.8,1.18 -12.72,5.27 -17.81,12.36 -5.08,7.16 -7.63,14.26 -7.63,21.42 0,22.19 15.56,33.31 46.8,33.31 14.55,0 26.56,-2.66 36.03,-7.99 11.65,-6.68 17.51,-16.8 17.51,-30.35 0,-19.17 -15.03,-28.75 -45.08,-28.75l-29.82 0zm22.36 -69.87c12.37,0 20.83,-6.98 25.33,-20.94 1.59,-5.09 2.42,-11.6 2.42,-19.59 0,-28.98 -9.7,-43.54 -29.11,-43.54 -13.43,0 -22.36,7.22 -26.86,21.71 -1.77,5.51 -2.6,12.13 -2.6,19.76 0,14.68 3.31,25.86 10.06,33.61 5.2,5.97 12.13,8.99 20.76,8.99zm-24.78 11.3c-8.29,4.85 -12.49,10.23 -12.49,16.09 0,8.82 3.61,13.73 10.77,14.73 2.31,0.36 5.03,0.54 8.16,0.54l27.57 0c15.44,0 26.98,0.82 34.49,2.42 12.9,2.66 22.6,8.22 29.11,16.63 4.02,5.2 6.63,11.53 7.81,18.93 0.42,2.84 0.65,5.44 0.65,7.75 0,15.02 -5.32,27.86 -16.09,38.51 -9.47,9.35 -21.95,16.15 -37.45,20.47 -10.18,2.72 -21.3,4.14 -33.43,4.14 -17.92,0 -33.01,-2.78 -45.25,-8.34 -16.39,-7.39 -24.62,-18.99 -24.62,-34.84 0,-8.29 3.61,-16.69 10.77,-25.09 6.45,-7.75 13.85,-13.25 22.19,-16.51 -6.04,-1.59 -10.89,-4.97 -14.56,-10.11 -3.72,-5.15 -5.56,-10.89 -5.56,-17.28 0,-11.89 8.7,-23.07 26.15,-33.6 -16.74,-10.53 -25.14,-26.03 -25.14,-46.62 0,-16.86 6.15,-30.88 18.4,-41.95 11.89,-10.88 26.32,-16.32 43.3,-16.32 9.06,0 17.46,1.71 25.33,5.08l51.82 0c1.18,0 1.72,0.54 1.72,1.72l0 8.99c0,1.07 -0.54,1.6 -1.72,1.72l-31.36 2.42c9,9.94 13.49,22.13 13.49,36.62 0,16.51 -5.91,30.24 -17.74,41.12 -11.84,10.95 -26.15,16.39 -42.9,16.39 -8.81,0 -16.56,-1.18 -23.42,-3.61zm309.39 -94.66c-18.46,0 -30.41,10.3 -35.85,30.88 -1.6,6.1 -2.67,12.13 -3.14,17.99l72.47 0c1.07,-32.54 -10.11,-48.87 -33.48,-48.87zm-39.34 62.77c0.47,19.29 4.97,34.67 13.54,46.09 9.83,13.07 23.96,19.58 42.48,19.58 14.79,0 28.64,-4.02 41.59,-12.13 0.48,-0.47 0.83,-0.59 1.19,-0.35 0.23,0.35 0.53,0.71 0.88,1.06l5.03 8.64c0.24,1.07 -0.12,1.83 -1.06,2.43 -20.18,13.54 -40.65,20.29 -61.35,20.29 -23.08,0 -41.3,-7.16 -54.61,-21.48 -13.01,-13.9 -19.58,-32.42 -19.58,-55.67 0,-23.78 6.39,-43.84 19.11,-60.11 13.84,-17.92 32.36,-26.91 55.43,-26.91 20.47,0 36.03,5.85 46.62,17.51 10.3,11.36 15.44,27.27 15.44,47.86 0,3.73 -0.23,7.51 -0.71,11.42 0,1.18 -0.53,1.77 -1.71,1.77l-102.29 0zm263 -53.89c0,-1.19 -0.65,-1.78 -1.89,-1.78l-20.47 0c-1.07,0 -1.54,-0.53 -1.54,-1.54l0 -1.71c0,-0.71 0.36,-1.42 1.18,-2.13l45.44 -45.73c1.01,-1.07 1.95,-1.54 2.78,-1.54l1.72 0c1,0 1.53,0.59 1.53,1.89l0 32.6c0,1.12 0.6,1.71 1.78,1.71l47.09 0c1.19,0 1.78,0.65 1.78,1.9l0 12.66c0,1.24 -0.59,1.89 -1.78,1.89l-47.09 0c-1.18,0 -1.78,0.59 -1.78,1.78l0 94.42c0,16.98 7.58,25.5 22.72,25.5 11.12,0 20.06,-2.84 26.86,-8.52 0.48,-0.42 1.07,-0.59 1.72,-0.48 0.47,0.06 0.89,0.24 1.24,0.48l4.5 8.87c0.23,1.01 -0.12,1.84 -1.01,2.43 -9.17,6.09 -17.04,10.29 -23.6,12.48 -8.76,2.9 -17.75,4.32 -26.86,4.32 -9.71,0 -17.87,-3.02 -24.44,-8.99 -6.57,-6.04 -9.88,-13.85 -9.88,-23.43l0 -107.08zm258.28 -115.78c0.65,-0.24 1.24,-0.36 1.71,-0.36l10.41 0c1.13,0 1.72,0.53 1.72,1.72l0 108.32c18.64,-12.84 36.8,-19.23 54.61,-19.23 30.64,0 45.91,17.16 45.91,51.47l0 91.71c0,1.12 0.59,1.71 1.77,1.71l23.01 2.43c1.19,0 1.78,0.65 1.78,1.89l0 8.87c0,1.13 -0.59,1.72 -1.78,1.72l-77.79 0c-1.19,0 -1.72,-0.59 -1.72,-1.72l0 -8.87c0,-1.24 0.53,-1.89 1.72,-1.89l22.36 -2.43c1.24,0 1.89,-0.59 1.89,-1.71l0 -81.29c0,-25.56 -11.06,-38.34 -33.13,-38.34 -8.28,0 -17.81,1.66 -28.57,4.85 -3.26,0.95 -6.04,2.01 -8.34,3.31 -1.13,0.48 -1.72,1.13 -1.72,2.08l0 109.39c0,1.12 0.59,1.71 1.72,1.71l22.36 2.43c1.18,0 1.77,0.65 1.77,1.89l0 8.87c0,1.13 -0.59,1.72 -1.77,1.72l-79.52 0c-1.18,0 -1.77,-0.59 -1.77,-1.72l0 -8.87c0,-1.24 0.59,-1.89 1.77,-1.89l24.91 -2.43c1.19,0 1.78,-0.59 1.78,-1.71l0 -210.26c0,-1.19 -0.59,-1.72 -1.78,-1.72l-27.69 -2.78c-1.18,0 -1.77,-0.65 -1.77,-1.89l0 -8.17c0,-1.18 0.47,-1.71 1.42,-1.71l44.73 -7.1zm348.73 106.9c-18.46,0 -30.41,10.3 -35.85,30.88 -1.6,6.1 -2.67,12.13 -3.14,17.99l72.47 0c1.07,-32.54 -10.11,-48.87 -33.48,-48.87zm-39.34 62.77c0.47,19.29 4.97,34.67 13.54,46.09 9.83,13.07 23.96,19.58 42.48,19.58 14.79,0 28.64,-4.02 41.59,-12.13 0.48,-0.47 0.83,-0.59 1.19,-0.35 0.23,0.35 0.53,0.71 0.88,1.06l5.03 8.64c0.24,1.07 -0.12,1.83 -1.06,2.43 -20.18,13.54 -40.65,20.29 -61.35,20.29 -23.08,0 -41.3,-7.16 -54.61,-21.48 -13.01,-13.9 -19.58,-32.42 -19.58,-55.67 0,-23.78 6.39,-43.84 19.11,-60.11 13.84,-17.92 32.36,-26.91 55.43,-26.91 20.47,0 36.03,5.85 46.62,17.51 10.3,11.36 15.44,27.27 15.44,47.86 0,3.73 -0.23,7.51 -0.71,11.42 0,1.18 -0.53,1.77 -1.71,1.77l-102.29 0zm347.07 -78.56c3.55,0 8.05,1.12 13.31,3.31 5.33,2.19 9.29,4.55 11.83,7.1 0.3,0.23 0.6,0.71 0.83,1.42 0.24,0.65 0.12,1.24 -0.35,1.71l-17.46 24.97c-0.82,1.12 -1.47,1.72 -1.95,1.72 -0.35,0 -0.59,-0.12 -0.83,-0.36 -5.2,-5.21 -10.94,-7.75 -17.15,-7.75 -7.75,0 -14.62,3.37 -20.47,10.18l-10.41 12.12c-0.95,1.07 -1.37,2.31 -1.37,3.85l0 84.25c0,1 0.54,1.59 1.72,1.71l30.17 2.43c1.24,0.12 1.9,0.77 1.9,1.89l0 8.87c0,1.13 -0.66,1.72 -1.9,1.72l-87.2 0c-1.24,0 -1.9,-0.59 -1.9,-1.72l0 -8.87c0,-1.24 0.66,-1.89 1.9,-1.89l24.79 -2.43c1.18,0 1.71,-0.59 1.71,-1.71l0 -117.2c0,-1.13 -0.53,-1.72 -1.71,-1.72l-25.5 -2.96c-1.24,0 -1.89,-0.59 -1.89,-1.71l0 -8.17c0,-1.12 0.47,-1.71 1.41,-1.71l42.6 -7.1c1.3,-0.24 2.01,-0.36 2.25,-0.36l9.88 0c1.18,0 1.77,0.59 1.77,1.72l0 32.95 18.88 -22.01c8.1,-9.46 16.44,-14.25 25.14,-14.25z"/>
  <image x="561.87" y="935.37" width="2006.97" height="2890.67" xlink:href="logo_Images/logo_ImgID1.png"/>
  <path class="fil0" d="M5487.63 1700.4l0 -48.18c105.3,4.46 187.83,6.69 247.4,6.69 64.02,0 142.55,-2.23 235.8,-6.69l0 48.18c-53.32,9.38 -84.78,17.85 -94.37,24.99 -7.58,5.58 -11.37,12.5 -11.37,20.97 0,9.6 2.45,18.96 7.35,28.11 12.28,22.53 58.9,95.71 139.88,219.52 123.14,-153.27 353.15,-446.84 353.15,-465.14 0,-5.35 -2.71,-9.77 -8.25,-13.38 -5.38,-3.52 -37.93,-11.16 -97.49,-22.76l0 -48.18c89.02,4.46 149.25,6.69 180.7,6.69 21.86,0 80.31,-2.23 175.34,-6.69l0 48.18c-42.83,6.91 -73.44,14.86 -91.46,23.65 -18.1,8.84 -34.66,20.22 -49.07,34.8 -5.89,5.95 -52.01,62.01 -139.44,167.31 -51.1,61.55 -256.11,315.22 -278.19,345.34 60.89,98.6 135.18,213.5 222.19,345.11 29.44,43.5 52.65,71.16 69.82,82.77 17.4,11.82 55.32,25.2 113.77,39.93l0 48.19c-87.67,-4.47 -169.31,-6.7 -244.72,-6.7 -74.5,0 -149.69,2.23 -225.09,6.7l0 -48.19c48.19,-10.04 77.19,-18.52 87.22,-25.89 6.92,-5.35 10.49,-11.15 10.49,-17.62 0,-6.02 -2.45,-13.6 -7.13,-22.52 -4.92,-8.93 -56.22,-90.58 -153.94,-244.95 -51.75,59.78 -273.07,339.59 -343.39,435.31 -12.44,16.94 -17.84,29.89 -17.84,37.47 0,6.91 3.24,12.89 9.81,17.17 9.47,6.19 43.28,14.06 101.28,23.65l0 48.19c-75.85,-4.46 -138.54,-6.69 -188.28,-6.69 -52.88,0 -113.1,2.23 -181.14,6.69l0 -48.19c48.17,-6.91 78.8,-13.26 91.91,-19.41 19.23,-9.02 39.81,-25.54 62.45,-48.84 38.25,-39.37 284.95,-346.52 420.59,-516.52 -126.49,-201.66 -203.46,-321.23 -230.89,-358.72 -17.85,-23.64 -35.69,-41.04 -53.76,-51.75 -18.07,-10.7 -56.01,-23.65 -113.33,-38.6z"/>
  <g id="_105553169394176">
   <path class="fil2" d="M4434.21 3420.23c-66.93,0 -119.28,-18.94 -157.16,-56.71 -37.77,-37.88 -56.71,-94.59 -56.71,-170.03 0,-32.24 5.32,-61.93 15.85,-89.17 10.64,-27.24 25.43,-50.65 44.48,-70.33 19.04,-19.68 41.71,-34.9 68.1,-45.75 26.38,-10.75 55.54,-16.18 87.35,-16.18 31.18,0 59.7,5.22 85.66,15.64 26.07,10.33 48.41,25.12 67.03,44.27 18.73,19.15 33.31,42.24 43.73,69.37 10.32,27.14 15.54,57.25 15.54,90.34 0,36.92 -5.64,69.69 -16.81,98 -11.28,28.41 -26.6,52.24 -45.97,71.61 -19.47,19.36 -42.14,34.05 -68.2,43.94 -25.97,10 -53.63,15 -82.89,15zm2.44 -26.81c21.07,0 39.48,-5.53 55.33,-16.49 15.97,-11.07 29.48,-25.65 40.54,-43.73 11.18,-18.09 19.58,-38.95 25.22,-62.46 5.75,-23.62 8.62,-48.2 8.62,-73.85 0,-24.68 -2.23,-48.94 -6.7,-72.78 -4.47,-23.83 -11.81,-45 -22.03,-63.63 -10.11,-18.62 -23.73,-33.51 -40.75,-44.79 -17.03,-11.17 -37.99,-16.81 -62.67,-16.81 -23.09,0 -42.99,5.74 -59.69,17.13 -16.71,11.49 -30.44,26.49 -41.18,45.11 -10.64,18.62 -18.52,39.69 -23.62,63.31 -5.11,23.62 -7.67,47.57 -7.67,71.83 0,25.64 2.13,50.32 6.39,74.16 4.25,23.73 11.49,44.69 21.71,62.78 10.1,18.08 23.83,32.66 41.07,43.73 17.23,10.96 39.05,16.49 65.43,16.49zm323.79 -301.12c0,-9.15 -0.32,-18.3 -0.96,-27.35 -0.64,-9.04 -2.02,-17.34 -4.37,-25.11 -2.23,-7.66 -5.63,-14.26 -10,-19.79 -4.36,-5.53 -10.32,-9.36 -17.98,-11.38 -4.57,-1.49 -9.47,-2.66 -14.68,-3.41 -5.22,-0.85 -10.11,-1.49 -14.69,-1.91 -2.66,0 -4.68,-1.07 -5.96,-3.2 -1.17,-2.02 -1.8,-4.36 -1.8,-6.91 0,-2.45 0.63,-4.79 1.8,-7.02 1.28,-2.24 3.3,-3.3 5.96,-3.3 7.24,0 14.05,0.1 20.43,0.32 6.39,0.21 12.45,0.53 18.2,0.95 5.85,0.43 12.13,0.75 18.94,0.96 6.7,0.21 13.94,0.32 21.6,0.32 12.87,-0.21 24.58,-0.32 35.11,-0.53 10.53,-0.11 19.9,-0.43 28.2,-0.75 16.81,-0.85 32.98,-1.27 48.3,-1.27 17.24,0 34.16,2.02 50.65,6.06 16.6,4.04 31.29,10.64 44.27,19.58 12.98,9.04 23.41,20.75 31.39,34.9 7.87,14.26 11.81,31.6 11.81,52.14 0,16.17 -2.45,30.32 -7.24,42.24 -4.79,11.92 -11.49,22.13 -20.11,30.64 -8.62,8.52 -18.73,15.43 -30.43,20.65 -11.6,5.32 -24.26,9.47 -37.99,12.34 -2.98,0.85 -4.36,2.23 -4.36,4.26 0,1.91 1.38,3.72 4.36,5.42 13.3,6.6 24.48,13.62 33.63,21.18 9.15,7.44 16.81,15.21 22.87,23.3 6.17,8.08 11.07,16.38 14.69,24.9 3.61,8.51 6.7,17.13 9.04,25.85 2.45,8.73 4.47,17.56 6.07,26.5 1.7,8.93 3.61,17.66 5.64,26.17 2.12,9.9 5.64,17.13 10.64,21.5 5,4.36 9.89,6.49 14.89,6.49 5.22,0 10.11,-2.13 14.79,-6.28 4.68,-4.15 8.3,-10.54 10.75,-19.26 0.64,-2.98 1.81,-4.89 3.51,-5.96 1.6,-1.06 3.51,-1.6 5.53,-1.6 3.2,0 6.07,1.07 8.73,3.2 2.77,2.02 3.94,4.36 3.51,6.81 -1.28,10.64 -4.26,19.79 -8.94,27.56 -4.68,7.76 -10.32,14.25 -17.13,19.25 -6.7,5.11 -14.26,8.73 -22.45,11.07 -8.19,2.34 -16.39,3.51 -24.47,3.51 -6.81,0 -13.41,-0.74 -19.69,-2.13 -6.17,-1.49 -11.91,-3.72 -17.23,-6.7 -5.32,-3.09 -9.9,-6.7 -13.73,-10.96 -3.83,-4.26 -6.7,-9.15 -8.62,-14.79 -2.66,-7.02 -5.21,-14.9 -7.66,-23.41 -2.34,-8.51 -4.68,-17.13 -6.81,-25.85 -2.23,-8.73 -4.26,-17.14 -6.28,-25.33 -2.02,-8.19 -3.83,-15.64 -5.42,-22.34 -7.88,-27.14 -17.88,-46.71 -30.01,-58.52 -12.02,-12.03 -28.84,-18.09 -50.54,-18.09 -7.24,0 -13.41,1.49 -18.52,4.57 -5.1,2.98 -7.66,8.94 -7.66,17.88l0 86.29c0,14.37 1.49,25.96 4.47,34.9 3.09,8.83 7.56,15.75 13.41,20.75 5.96,5 13.3,8.51 22.02,10.64 8.73,2.02 18.84,3.51 30.22,4.36 2.77,0 4.79,1.17 6.07,3.41 1.38,2.23 2.02,4.68 2.02,7.23 0,2.66 -0.75,5.11 -2.13,7.24 -1.49,2.13 -3.62,3.19 -6.6,3.19 -10.53,0 -20.53,-0.21 -29.68,-0.74 -9.26,-0.54 -18.09,-1.17 -26.39,-1.71 -8.3,-0.64 -16.39,-1.27 -24.15,-1.81 -7.77,-0.42 -15.54,-0.74 -23.31,-0.74 -16.17,0 -32.13,0.85 -47.88,2.55 -15.64,1.6 -30.96,2.45 -45.96,2.45 -2.45,0 -4.37,-1.06 -5.75,-3.19 -1.38,-2.13 -2.02,-4.68 -2.02,-7.45 0,-2.45 0.53,-4.68 1.7,-6.81 1.17,-2.02 3.19,-3.19 6.07,-3.62 12.02,-1.27 21.92,-2.98 29.47,-5.1 7.55,-2.24 13.51,-5.64 17.77,-10.22 4.26,-4.57 7.13,-10.75 8.72,-18.73 1.6,-7.87 2.35,-18.08 2.35,-30.53l0 -239.73zm69.58 75.97c0,10.96 2.98,17.45 9.05,19.37 6.27,1.81 15.64,2.76 28.09,2.76 16.6,0 30.54,-1.59 41.81,-4.79 11.18,-3.29 20.22,-8.61 26.92,-15.96 6.81,-7.34 11.6,-16.91 14.37,-28.72 2.87,-11.71 4.25,-26.18 4.25,-43.2 0,-16.39 -1.48,-30.22 -4.57,-41.5 -2.98,-11.28 -7.77,-20.32 -14.26,-27.13 -6.6,-6.92 -15.21,-11.82 -25.96,-14.79 -10.64,-3.09 -23.62,-4.58 -38.84,-4.58 -16.81,0 -27.88,2.23 -33.09,6.6 -5.21,3.93 -7.77,12.55 -7.77,25.85l0 126.09zm499.14 163.12c0,13.94 0.63,24.9 1.91,32.77 1.17,7.87 4.04,13.94 8.51,18.19 4.47,4.37 10.75,7.45 18.84,9.47 8.19,1.92 19.04,3.52 32.77,4.79 2.45,0.43 4.47,1.71 5.96,3.94 1.38,2.23 2.13,4.68 2.13,7.24 0,2.55 -0.75,4.78 -2.13,6.8 -1.49,2.03 -3.73,3.09 -6.6,3.09 -17.02,0 -33.3,-0.85 -48.94,-2.55 -15.54,-1.71 -30.97,-2.56 -46.18,-2.56 -16.18,0 -32.99,0.85 -50.23,2.56 -17.23,1.7 -32.87,2.55 -47.03,2.55 -2.55,0 -4.36,-1.06 -5.64,-3.09 -1.27,-2.02 -1.8,-4.25 -1.8,-6.8 0,-2.56 0.53,-5.01 1.8,-7.24 1.28,-2.23 3.09,-3.51 5.64,-3.94 13.3,-1.27 23.84,-2.87 31.61,-4.79 7.76,-2.02 13.93,-5.1 18.4,-9.47 4.47,-4.25 7.45,-10.32 9.05,-18.19 1.59,-7.87 2.34,-18.83 2.34,-32.77l0 -284.21c0,-15.53 -3.94,-25.43 -11.81,-29.47 -7.98,-4.04 -21.28,-6.06 -39.9,-6.06 -15.86,0 -28.84,1.17 -39.05,3.4 -10.11,2.34 -18.52,6.6 -25.22,12.77 -6.6,6.28 -12.03,14.68 -16.07,25.32 -4.04,10.54 -7.66,24.37 -11.06,41.39 -0.43,2.56 -1.81,4.15 -4.15,5 -2.45,0.86 -4.79,1.17 -7.03,0.96 -2.34,-0.21 -4.36,-0.96 -6.27,-2.23 -1.81,-1.17 -2.77,-2.66 -2.77,-4.36 1.6,-15.75 2.55,-31.82 2.77,-48.31 0.21,-16.39 -0.75,-32.56 -2.77,-48.63 0,-4.79 2.98,-7.98 8.83,-9.68 5.96,-1.6 12.56,-2.45 19.79,-2.45l341.56 0c8.08,0 14.79,0.75 20.11,2.24 5.32,1.38 7.98,4.47 7.98,9.25 -0.85,5 -1.6,11.28 -2.13,18.73 -0.64,7.55 -0.96,15.75 -0.96,24.69 0,8.93 0.32,18.08 0.96,27.45 0.53,9.26 1.28,18.19 2.13,26.71 0,1.7 -1.07,3.29 -3.2,4.68 -2.02,1.49 -4.36,2.34 -7.02,2.66 -2.66,0.32 -5.11,0 -7.45,-0.85 -2.23,-0.96 -3.61,-2.66 -4.04,-5.22 -2.45,-17.02 -5.85,-30.96 -10.11,-41.71 -4.25,-10.85 -9.89,-19.36 -17.02,-25.64 -7.03,-6.17 -15.64,-10.43 -25.86,-12.77 -10.21,-2.23 -22.34,-3.4 -36.39,-3.4 -19.15,0 -32.98,2.02 -41.5,6.06 -8.51,4.04 -12.76,13.94 -12.76,29.47l0 284.21zm531.8 -151.84c5.21,0 8.94,-0.85 11.28,-2.45 2.23,-1.7 3.4,-5.1 3.4,-10.32l0 -86.4c0,-13.19 -0.74,-24.47 -2.12,-33.83 -1.49,-9.37 -4.37,-16.92 -8.62,-22.88 -4.26,-5.85 -10.32,-10.43 -18.2,-13.62 -7.98,-3.19 -18.41,-5.21 -31.49,-6.07 -2.77,0 -4.68,-1.17 -5.96,-3.4 -1.28,-2.34 -1.92,-4.79 -1.92,-7.45 0,-2.66 0.64,-5 1.92,-7.02 1.28,-2.13 3.19,-3.19 5.96,-3.19 13.51,0 28.94,0.63 46.39,1.91 17.45,1.28 33.94,1.92 49.26,1.92 8.94,0 17.45,-0.22 25.33,-0.64 7.87,-0.43 15.53,-0.85 22.87,-1.28 7.45,-0.42 15.01,-0.85 22.67,-1.28 7.66,-0.42 15.96,-0.63 24.9,-0.63 2.55,0 4.25,1.06 5.32,3.19 1.06,2.02 1.49,4.36 1.27,7.02 -0.21,2.66 -0.95,5.11 -2.23,7.45 -1.28,2.23 -2.87,3.4 -5,3.4 -13.3,0.86 -23.94,2.66 -31.92,5.43 -7.98,2.87 -14.15,7.13 -18.41,12.77 -4.26,5.75 -7.02,13.3 -8.41,22.66 -1.38,9.26 -2.02,21.28 -2.02,35.75l0 250.27c0,13.93 0.85,24.79 2.66,32.77 1.7,7.87 4.9,14.04 9.37,18.51 4.46,4.47 10.74,7.66 18.83,9.68 8.09,1.92 18.51,3.52 31.18,4.79 2.44,0.43 4.57,1.71 6.06,3.73 1.6,2.12 2.34,4.47 2.34,7.13 0,2.66 -0.74,5 -2.34,7.02 -1.49,2.13 -3.72,3.19 -6.7,3.19 -17.03,0 -33.31,-0.85 -48.74,-2.45 -15.53,-1.7 -30.96,-2.55 -46.39,-2.55 -16.17,0 -32.98,0.85 -50.22,2.55 -17.24,1.6 -32.77,2.45 -46.71,2.45 -2.77,0 -4.68,-1.06 -5.96,-3.19 -1.28,-2.02 -1.81,-4.36 -1.81,-7.02 0,-2.66 0.53,-5.01 1.81,-7.13 1.28,-2.02 3.19,-3.3 5.96,-3.73 13.09,-1.27 23.51,-2.87 31.49,-4.79 7.88,-2.02 14.05,-5.21 18.52,-9.68 4.47,-4.47 7.45,-10.64 8.94,-18.62 1.38,-7.87 2.12,-18.73 2.12,-32.66l0 -106.09c0,-10.96 -4.68,-16.49 -14.04,-16.49l-190.89 0c-9.36,0 -14.04,4.25 -14.04,12.77l0 109.81c0,13.93 0.85,24.79 2.44,32.66 1.71,7.98 4.79,14.15 9.26,18.62 4.47,4.47 10.75,7.66 18.83,9.68 8.09,1.92 18.52,3.52 31.18,4.79 2.66,0.43 4.79,1.71 6.28,3.73 1.38,2.12 2.13,4.47 2.13,7.13 0,2.66 -0.75,5 -2.13,7.02 -1.49,2.13 -3.83,3.19 -6.92,3.19 -17.02,0 -33.3,-0.85 -48.73,-2.45 -15.43,-1.7 -30.86,-2.55 -46.18,-2.55 -16.17,0 -32.88,0.85 -50.12,2.55 -17.23,1.6 -32.77,2.45 -46.71,2.45 -2.55,0 -4.47,-1.06 -5.74,-3.19 -1.39,-2.02 -2.13,-4.36 -2.13,-7.02 0,-2.66 0.74,-5.01 2.13,-7.13 1.27,-2.02 3.19,-3.3 5.74,-3.73 13.09,-1.27 23.52,-2.87 31.5,-4.79 7.87,-2.02 14.04,-5.21 18.51,-9.68 4.47,-4.47 7.45,-10.64 8.83,-18.51 1.49,-7.98 2.24,-18.84 2.24,-32.77l0 -250.27c0,-13.3 -0.75,-24.57 -2.24,-33.94 -1.38,-9.36 -4.25,-16.92 -8.51,-22.87 -4.25,-5.96 -10.32,-10.54 -18.19,-13.73 -7.98,-3.19 -18.41,-5.21 -31.5,-6.07 -2.55,0 -4.47,-1.17 -5.85,-3.4 -1.28,-2.34 -2.02,-4.79 -2.02,-7.45 0,-2.66 0.74,-5 2.02,-7.02 1.38,-2.13 3.3,-3.19 5.85,-3.19 13.51,0 28.94,0.63 46.39,1.91 17.45,1.28 33.84,1.92 49.16,1.92 8.94,0 17.24,-0.22 25.11,-0.64 7.88,-0.43 15.64,-0.85 23.09,-1.28 7.45,-0.42 15,-0.85 22.56,-1.28 7.66,-0.42 15.85,-0.63 24.79,-0.63 2.77,0 4.58,1.06 5.64,3.19 1.06,2.02 1.49,4.36 1.28,7.02 -0.22,2.66 -1.07,5.11 -2.34,7.45 -1.39,2.23 -3.09,3.4 -5.22,3.4 -13.08,0.86 -23.62,2.66 -31.81,5.43 -8.09,2.77 -14.26,7.02 -18.52,12.77 -4.25,5.64 -7.02,13.19 -8.19,22.56 -1.28,9.25 -1.91,21.17 -1.91,35.64l0 86.4c0,8.51 4.68,12.77 14.04,12.77l190.25 0zm409.34 240.68c-66.93,0 -119.28,-18.94 -157.16,-56.71 -37.77,-37.88 -56.71,-94.59 -56.71,-170.03 0,-32.24 5.32,-61.93 15.85,-89.17 10.64,-27.24 25.43,-50.65 44.48,-70.33 19.04,-19.68 41.71,-34.9 68.1,-45.75 26.38,-10.75 55.54,-16.18 87.35,-16.18 31.18,0 59.7,5.22 85.66,15.64 26.07,10.33 48.41,25.12 67.03,44.27 18.73,19.15 33.31,42.24 43.73,69.37 10.32,27.14 15.54,57.25 15.54,90.34 0,36.92 -5.64,69.69 -16.81,98 -11.28,28.41 -26.6,52.24 -45.97,71.61 -19.47,19.36 -42.14,34.05 -68.2,43.94 -25.97,10 -53.63,15 -82.89,15zm2.44 -26.81c21.07,0 39.48,-5.53 55.33,-16.49 15.97,-11.07 29.48,-25.65 40.54,-43.73 11.18,-18.09 19.58,-38.95 25.22,-62.46 5.75,-23.62 8.62,-48.2 8.62,-73.85 0,-24.68 -2.23,-48.94 -6.7,-72.78 -4.47,-23.83 -11.81,-45 -22.03,-63.63 -10.11,-18.62 -23.73,-33.51 -40.75,-44.79 -17.03,-11.17 -37.99,-16.81 -62.67,-16.81 -23.09,0 -42.99,5.74 -59.69,17.13 -16.71,11.49 -30.44,26.49 -41.18,45.11 -10.64,18.62 -18.52,39.69 -23.62,63.31 -5.11,23.62 -7.67,47.57 -7.67,71.83 0,25.64 2.13,50.32 6.39,74.16 4.25,23.73 11.49,44.69 21.71,62.78 10.1,18.08 23.83,32.66 41.07,43.73 17.23,10.96 39.05,16.49 65.43,16.49z"/>
   <g>
    <g>
     <path class="fil2" d="M6526.26 3391.84l0 -37.54c1.99,0.47 3.86,1.42 5.63,2.84 2.77,2.02 3.94,4.36 3.51,6.81 -1.28,10.64 -4.26,19.79 -8.94,27.56l-0.2 0.33zm243.12 -60.45c0,13.94 0.63,24.9 1.91,32.77 1.17,7.87 4.04,13.94 8.51,18.19 4.47,4.37 10.75,7.45 18.84,9.47 8.19,1.92 19.04,3.52 32.77,4.79 2.45,0.43 4.47,1.71 5.96,3.94 1.38,2.23 2.13,4.68 2.13,7.24 0,2.55 -0.75,4.78 -2.13,6.8 -1.49,2.03 -3.73,3.09 -6.6,3.09 -17.02,0 -33.3,-0.85 -48.94,-2.55 -15.54,-1.71 -30.97,-2.56 -46.18,-2.56 -16.18,0 -32.99,0.85 -50.23,2.56 -17.23,1.7 -32.87,2.55 -47.03,2.55 -2.55,0 -4.36,-1.06 -5.64,-3.09 -1.27,-2.02 -1.8,-4.25 -1.8,-6.8 0,-2.56 0.53,-5.01 1.8,-7.24 1.28,-2.23 3.09,-3.51 5.64,-3.94 13.3,-1.27 23.84,-2.87 31.61,-4.79 7.76,-2.02 13.93,-5.1 18.4,-9.47 4.47,-4.25 7.45,-10.32 9.05,-18.19 1.59,-7.87 2.34,-18.83 2.34,-32.77l0 -284.21c0,-15.53 -3.94,-25.43 -11.81,-29.47 -7.98,-4.04 -21.28,-6.06 -39.9,-6.06 -15.86,0 -28.84,1.17 -39.05,3.4 -10.11,2.34 -18.52,6.6 -25.22,12.77 -6.6,6.28 -12.03,14.68 -16.07,25.32 -4.04,10.54 -7.66,24.37 -11.06,41.39 -0.43,2.56 -1.81,4.15 -4.15,5 -2.45,0.86 -4.79,1.17 -7.03,0.96 -2.34,-0.21 -4.36,-0.96 -6.27,-2.23 -1.81,-1.17 -2.77,-2.66 -2.77,-4.36 1.6,-15.75 2.55,-31.82 2.77,-48.31 0.21,-16.39 -0.75,-32.56 -2.77,-48.63 0,-4.79 2.98,-7.98 8.83,-9.68 5.96,-1.6 12.56,-2.45 19.79,-2.45l341.56 0c8.08,0 14.79,0.75 20.11,2.24 5.32,1.38 7.98,4.47 7.98,9.25 -0.85,5 -1.6,11.28 -2.13,18.73 -0.64,7.55 -0.96,15.75 -0.96,24.69 0,8.93 0.32,18.08 0.96,27.45 0.53,9.26 1.28,18.19 2.13,26.71 0,1.7 -1.07,3.29 -3.2,4.68 -2.02,1.49 -4.36,2.34 -7.02,2.66 -2.66,0.32 -5.11,0 -7.45,-0.85 -2.23,-0.96 -3.61,-2.66 -4.04,-5.22 -2.45,-17.02 -5.85,-30.96 -10.11,-41.71 -4.25,-10.85 -9.89,-19.36 -17.02,-25.64 -7.03,-6.17 -15.64,-10.43 -25.86,-12.77 -10.21,-2.23 -22.34,-3.4 -36.39,-3.4 -19.15,0 -32.98,2.02 -41.5,6.06 -8.51,4.04 -12.76,13.94 -12.76,29.47l0 284.21z"/>
     <rect class="fil3" x="6516.9" y="3343.24" width="23.62" height="53.14"/>
    </g>
    <path class="fil2" d="M7590.56 2972.06c19.16,0 36.82,2.34 52.99,7.13 16.17,4.79 32.24,11.17 47.99,19.05 4.57,2.13 8.94,4.15 12.98,5.96 4.04,1.91 7.56,2.87 10.43,2.87 6.81,0 11.28,-4.15 13.41,-12.34 0.42,-1.71 1.8,-2.98 4.14,-3.83 2.45,-0.85 4.79,-1.17 7.24,-0.96 2.34,0.21 4.36,0.74 6.07,1.6 1.7,0.85 2.34,2.23 1.91,4.14 -1.7,6.71 -2.87,13.73 -3.51,20.97 -0.53,7.34 -0.85,14.79 -0.85,22.45 0,11.91 0.74,23.73 2.45,35.75 1.7,11.92 3.29,24.26 5,36.92 0,1.7 -0.96,3.09 -2.77,4.26 -1.92,1.06 -4.26,1.81 -7.02,2.02 -2.88,0.11 -5.54,-0.11 -8.2,-0.96 -2.55,-0.85 -4.04,-2.45 -4.46,-4.68 -10.65,-38.31 -27.78,-66.4 -51.61,-84.48 -23.83,-18.09 -53.73,-27.14 -89.91,-27.14 -28.09,0 -51.29,5.96 -69.7,17.88 -18.4,11.92 -32.98,27.13 -43.83,45.65 -10.75,18.51 -18.31,39.05 -22.56,61.82 -4.26,22.66 -6.39,44.9 -6.39,66.5 0,23.83 2.56,47.67 7.67,71.39 5.1,23.84 13.4,45.23 24.89,64.48 11.6,19.16 26.6,34.8 45.12,46.82 18.41,12.03 40.86,18.09 67.25,18.09 20.43,0 38.73,-1.81 54.9,-5.32 16.17,-3.51 29.79,-10.11 40.86,-19.9 13.72,-12.45 24.58,-27.34 32.66,-44.58 8.2,-17.24 13.84,-36.71 17.14,-58.31 0.42,-3.08 1.8,-5.11 4.15,-5.96 2.23,-0.85 4.68,-0.96 7.23,-0.32 2.66,0.64 5,1.81 7.24,3.62 2.12,1.81 2.98,3.51 2.34,5.11 -1.28,8.51 -2.13,17.02 -2.56,25.32 -0.42,8.3 -0.63,16.71 -0.63,25.22 0,14.36 0.53,29.05 1.59,44.26 1.07,15.22 2.13,31.07 3.09,47.67 0,2.56 -0.85,4.36 -2.56,5.64 -1.81,1.28 -3.83,2.02 -6.17,2.13 -2.23,0.21 -4.47,-0.21 -6.7,-1.17 -2.13,-1.06 -3.41,-2.66 -3.83,-4.68 -0.85,-3.94 -2.34,-7.77 -4.36,-11.28 -2.13,-3.51 -4.9,-6.49 -8.3,-8.83 -3.41,-2.45 -7.35,-3.62 -11.82,-3.62 -4.46,0 -9.57,1.49 -15.1,4.36 -9.37,5.22 -18.41,9.58 -27.14,13.3 -8.72,3.62 -17.55,6.49 -26.49,8.51 -8.94,2.13 -18.3,3.52 -28.09,4.37 -9.79,0.85 -20.33,1.27 -31.82,1.27 -75.44,0 -131.3,-18.83 -167.69,-56.5 -36.39,-37.56 -54.58,-91.5 -54.58,-161.84 0,-37.45 5.74,-70.54 17.34,-99.27 11.49,-28.84 27.35,-52.88 47.56,-72.25 20.11,-19.36 44.16,-33.83 72.04,-43.62 27.77,-9.79 58.09,-14.69 90.97,-14.69z"/>
    <path class="fil2" d="M8137.09 3179.55c5.21,0 8.94,-0.85 11.28,-2.45 2.23,-1.7 3.4,-5.1 3.4,-10.32l0 -86.4c0,-13.19 -0.74,-24.47 -2.12,-33.83 -1.49,-9.37 -4.37,-16.92 -8.62,-22.88 -4.26,-5.85 -10.32,-10.43 -18.2,-13.62 -7.98,-3.19 -18.41,-5.21 -31.49,-6.07 -2.77,0 -4.68,-1.17 -5.96,-3.4 -1.28,-2.34 -1.92,-4.79 -1.92,-7.45 0,-2.66 0.64,-5 1.92,-7.02 1.28,-2.13 3.19,-3.19 5.96,-3.19 13.51,0 28.94,0.63 46.39,1.91 17.45,1.28 33.94,1.92 49.26,1.92 8.94,0 17.45,-0.22 25.33,-0.64 7.87,-0.43 15.53,-0.85 22.87,-1.28 7.45,-0.42 15.01,-0.85 22.67,-1.28 7.66,-0.42 15.96,-0.63 24.9,-0.63 2.55,0 4.25,1.06 5.32,3.19 1.06,2.02 1.49,4.36 1.27,7.02 -0.21,2.66 -0.95,5.11 -2.23,7.45 -1.28,2.23 -2.87,3.4 -5,3.4 -13.3,0.86 -23.94,2.66 -31.92,5.43 -7.98,2.87 -14.15,7.13 -18.41,12.77 -4.26,5.75 -7.02,13.3 -8.41,22.66 -1.38,9.26 -2.02,21.28 -2.02,35.75l0 250.27c0,13.93 0.85,24.79 2.66,32.77 1.7,7.87 4.9,14.04 9.37,18.51 4.46,4.47 10.74,7.66 18.83,9.68 8.09,1.92 18.51,3.52 31.18,4.79 2.44,0.43 4.57,1.71 6.06,3.73 1.6,2.12 2.34,4.47 2.34,7.13 0,2.66 -0.74,5 -2.34,7.02 -1.49,2.13 -3.72,3.19 -6.7,3.19 -17.03,0 -33.31,-0.85 -48.74,-2.45 -15.53,-1.7 -30.96,-2.55 -46.39,-2.55 -16.17,0 -32.98,0.85 -50.22,2.55 -17.24,1.6 -32.77,2.45 -46.71,2.45 -2.77,0 -4.68,-1.06 -5.96,-3.19 -1.28,-2.02 -1.81,-4.36 -1.81,-7.02 0,-2.66 0.53,-5.01 1.81,-7.13 1.28,-2.02 3.19,-3.3 5.96,-3.73 13.09,-1.27 23.51,-2.87 31.49,-4.79 7.88,-2.02 14.05,-5.21 18.52,-9.68 4.47,-4.47 7.45,-10.64 8.94,-18.62 1.38,-7.87 2.12,-18.73 2.12,-32.66l0 -106.09c0,-10.96 -4.68,-16.49 -14.04,-16.49l-190.89 0c-9.36,0 -14.04,4.25 -14.04,12.77l0 109.81c0,13.93 0.85,24.79 2.44,32.66 1.71,7.98 4.79,14.15 9.26,18.62 4.47,4.47 10.75,7.66 18.83,9.68 8.09,1.92 18.52,3.52 31.18,4.79 2.66,0.43 4.79,1.71 6.28,3.73 1.38,2.12 2.13,4.47 2.13,7.13 0,2.66 -0.75,5 -2.13,7.02 -1.49,2.13 -3.83,3.19 -6.92,3.19 -17.02,0 -33.3,-0.85 -48.73,-2.45 -15.43,-1.7 -30.86,-2.55 -46.18,-2.55 -16.17,0 -32.88,0.85 -50.12,2.55 -17.23,1.6 -32.77,2.45 -46.71,2.45 -2.55,0 -4.47,-1.06 -5.74,-3.19 -1.39,-2.02 -2.13,-4.36 -2.13,-7.02 0,-2.66 0.74,-5.01 2.13,-7.13 1.27,-2.02 3.19,-3.3 5.74,-3.73 13.09,-1.27 23.52,-2.87 31.5,-4.79 7.87,-2.02 14.04,-5.21 18.51,-9.68 4.47,-4.47 7.45,-10.64 8.83,-18.51 1.49,-7.98 2.24,-18.84 2.24,-32.77l0 -250.27c0,-13.3 -0.75,-24.57 -2.24,-33.94 -1.38,-9.36 -4.25,-16.92 -8.51,-22.87 -4.25,-5.96 -10.32,-10.54 -18.19,-13.73 -7.98,-3.19 -18.41,-5.21 -31.5,-6.07 -2.55,0 -4.47,-1.17 -5.85,-3.4 -1.28,-2.34 -2.02,-4.79 -2.02,-7.45 0,-2.66 0.74,-5 2.02,-7.02 1.38,-2.13 3.3,-3.19 5.85,-3.19 13.51,0 28.94,0.63 46.39,1.91 17.45,1.28 33.84,1.92 49.16,1.92 8.94,0 17.24,-0.22 25.11,-0.64 7.88,-0.43 15.64,-0.85 23.09,-1.28 7.45,-0.42 15,-0.85 22.56,-1.28 7.66,-0.42 15.85,-0.63 24.79,-0.63 2.77,0 4.58,1.06 5.64,3.19 1.06,2.02 1.49,4.36 1.28,7.02 -0.22,2.66 -1.07,5.11 -2.34,7.45 -1.39,2.23 -3.09,3.4 -5.22,3.4 -13.08,0.86 -23.62,2.66 -31.81,5.43 -8.09,2.77 -14.26,7.02 -18.52,12.77 -4.25,5.64 -7.02,13.19 -8.19,22.56 -1.28,9.25 -1.91,21.17 -1.91,35.64l0 86.4c0,8.51 4.68,12.77 14.04,12.77l190.25 0z"/>
    <path class="fil2" d="M7288.1 2984.83c3.72,0 6.91,0.43 9.68,1.28 3.3,1.06 4.57,4.47 3.72,10.32 -0.63,3.3 -1.06,6.92 -1.17,10.85 -0.1,3.94 -0.1,8.09 -0.1,12.45l0 10.32c0,9.37 0.32,18.41 0.95,27.24 0.64,8.83 0.96,17.67 0.96,26.39 0,1.6 -1.06,2.98 -3.3,3.83 -2.23,0.96 -4.57,1.49 -7.02,1.49 -2.34,0 -4.47,-0.42 -6.49,-1.28 -2.02,-0.85 -3.19,-2.23 -3.62,-4.04 -2.87,-16.49 -5.96,-29.37 -9.04,-38.84 -3.09,-9.47 -7.45,-16.6 -12.88,-21.49 -5.53,-4.89 -12.87,-7.98 -21.81,-9.26 -9.04,-1.17 -21.07,-2.02 -36.07,-2.44l-38.31 0c-12.23,0 -21.81,0.21 -28.62,0.63 -6.91,0.43 -12.02,1.92 -15.43,4.69 -3.4,2.66 -5.53,7.02 -6.38,12.98 -0.85,5.85 -1.28,14.25 -1.28,25.11l0 111.72c0,6.07 1.07,9.79 3.09,11.17 2.13,1.49 4.15,2.24 6.28,2.24 19.79,0 35.22,-0.85 46.49,-2.66 11.28,-1.7 19.69,-4.79 25.44,-9.15 5.74,-4.37 9.57,-10.22 11.59,-17.67 1.92,-7.34 3.51,-16.7 4.79,-27.87 0.43,-2.34 1.81,-4.05 4.15,-5.11 2.45,-1.17 4.9,-1.7 7.66,-1.7 2.45,0 4.58,0.53 6.49,1.7 1.81,1.06 2.77,2.77 2.77,5.11 0,6.81 -0.21,12.98 -0.64,18.19 -0.32,5.32 -0.74,10.64 -1.28,15.96 -0.53,5.32 -0.95,10.86 -1.27,16.6 -0.43,5.85 -0.64,12.56 -0.64,20.01 0,13.08 0.64,24.68 1.91,34.9 0.75,5.21 1.28,10.95 1.49,17.34 0.32,6.28 0.43,13.19 0.43,20.75 0,2.02 -1.07,3.62 -3.09,4.68 -2.12,0.96 -4.36,1.49 -6.81,1.49 -2.66,0 -5.1,-0.53 -7.34,-1.49 -2.13,-1.06 -3.4,-2.66 -3.83,-4.68 -1.28,-12.56 -2.87,-22.56 -4.79,-30.33 -2.02,-7.66 -5.85,-13.72 -11.59,-18.09 -5.75,-4.36 -14.16,-7.23 -25.44,-8.83 -11.27,-1.59 -26.7,-2.34 -46.49,-2.34 -2.13,0 -4.15,0.75 -6.28,2.34 -2.02,1.6 -3.09,4.58 -3.09,9.15l0 83.85c0,19.47 0.85,34.9 2.66,46.07 1.81,11.17 5.75,19.69 11.81,25.43 6.18,5.64 15.11,9.26 26.92,10.86 11.71,1.59 27.46,2.34 47.25,2.34 10.53,0 20.32,-0.43 29.15,-1.28 8.83,-0.85 15.54,-2.02 20.11,-3.72 8.3,-3.09 15.64,-6.39 21.81,-10.01 6.28,-3.51 11.6,-7.98 15.96,-13.4 4.37,-5.32 7.88,-12.24 10.54,-20.54 2.77,-8.3 4.89,-18.83 6.6,-31.49 0.42,-2.24 1.8,-3.94 4.25,-5.01 2.34,-0.95 5,-1.49 7.88,-1.49 3.19,0 5.95,0.64 8.4,1.81 2.56,1.28 3.62,3.09 3.19,5.32 -2.12,18.09 -4.04,34.8 -5.85,50.23 -1.7,15.32 -2.34,31.17 -2.02,47.35 0,0.63 -0.11,1.49 -0.43,2.44 -0.31,1.07 -0.95,2.13 -2.02,2.98 -1.06,0.96 -2.55,1.81 -4.47,2.56 -2.02,0.74 -4.57,1.06 -7.66,1.06l-231.85 0c-16.17,0 -32.03,0.43 -47.56,1.28 -15.43,0.85 -29.48,1.7 -41.93,2.55 -2.66,0 -4.78,-1.17 -6.27,-3.4 -1.39,-2.24 -2.13,-4.79 -2.13,-7.56 0,-2.23 0.53,-4.36 1.7,-6.49 1.17,-2.02 3.19,-3.19 6.07,-3.62 10,-1.27 18.62,-3.08 26.06,-5.42 7.35,-2.45 13.41,-5.86 18.2,-10.33 4.79,-4.46 8.3,-10.21 10.64,-17.13 2.23,-7.02 3.41,-15.74 3.41,-26.06l0 -246.01c0,-9.36 -0.32,-18.51 -0.96,-27.56 -0.64,-9.15 -2.02,-17.34 -4.37,-24.9 -2.23,-7.44 -5.63,-13.93 -10,-19.36 -4.36,-5.32 -10.32,-9.15 -17.98,-11.17 -4.57,-1.49 -9.47,-2.66 -14.68,-3.41 -5.22,-0.85 -10.11,-1.49 -14.69,-1.91 -2.44,0 -4.25,-0.96 -5.42,-2.98 -1.17,-2.03 -1.71,-4.26 -1.71,-6.81 0,-2.66 0.64,-5.11 1.81,-7.34 1.28,-2.24 3.09,-3.3 5.32,-3.3 14.16,0 27.03,0.32 38.63,0.95 11.49,0.64 25,0.96 40.54,0.96l229.3 0z"/>
   </g>
  </g>
 </g>
</svg>
